%FSLAX24Y24*%
%MOIN*%
G70*
G01*
G75*
G04 Layer_Color=65535*
%ADD10R,0.1500X0.0800*%
%ADD11R,0.3500X0.4500*%
%ADD12C,0.0080*%
%ADD13C,0.0500*%
%ADD14C,0.0150*%
%ADD15C,0.0100*%
%ADD16O,0.0500X0.1000*%
%ADD17R,0.0500X0.1000*%
%ADD18C,0.0600*%
%ADD19R,0.0600X0.0600*%
%ADD20C,0.0750*%
%ADD21C,0.0660*%
%ADD22R,0.0660X0.0660*%
%ADD23C,0.0669*%
%ADD24C,0.0787*%
%ADD25R,0.0787X0.0787*%
%ADD26R,0.0650X0.0650*%
%ADD27C,0.0650*%
%ADD28R,0.1200X0.0650*%
%ADD29O,0.1200X0.0650*%
%ADD30C,0.1900*%
%ADD31C,0.1800*%
%ADD32R,0.0650X0.0650*%
%ADD33C,0.1874*%
%ADD34R,0.0665X0.0665*%
%ADD35C,0.0665*%
%ADD36R,0.0591X0.0591*%
%ADD37C,0.0591*%
%ADD38R,0.0750X0.0750*%
%ADD39C,0.0550*%
%ADD40C,0.0260*%
%ADD41C,0.2000*%
%ADD42C,0.0500*%
%ADD43C,0.0197*%
%ADD44C,0.0079*%
%ADD45C,0.0050*%
%ADD46C,0.0140*%
%ADD47C,0.0160*%
%ADD48C,0.0070*%
%ADD49C,0.0120*%
%ADD50C,0.0059*%
%ADD51R,0.1102X0.0315*%
%ADD52R,0.0315X0.0748*%
G36*
X44131Y29650D02*
Y29248D01*
X44332Y29046D01*
Y28051D01*
X44230Y27948D01*
X43831D01*
X43732Y28051D01*
Y29650D01*
X43831Y29753D01*
X44028D01*
X44131Y29650D01*
D02*
G37*
G36*
X41706Y28746D02*
X40802D01*
Y28947D01*
X41706D01*
Y28746D01*
D02*
G37*
G36*
X40547Y29251D02*
Y28051D01*
X40445Y27948D01*
X39445D01*
X39347Y28051D01*
Y29251D01*
X39445Y29354D01*
X40445D01*
X40547Y29251D01*
D02*
G37*
G36*
X36413Y28852D02*
X36611Y28651D01*
Y28054D01*
X36512Y27948D01*
X36314D01*
X36215Y28054D01*
Y29358D01*
X36413D01*
Y28852D01*
D02*
G37*
G36*
X39206Y29153D02*
X38606D01*
Y28849D01*
X38807Y28651D01*
Y28051D01*
X38704Y27948D01*
X38309D01*
X38207Y28051D01*
Y29251D01*
X38305Y29354D01*
X39206D01*
Y29153D01*
D02*
G37*
G36*
X36451Y29688D02*
Y29552D01*
X36413Y29517D01*
X36212D01*
X36177Y29552D01*
Y29688D01*
X36215Y29726D01*
X36413D01*
X36451Y29688D01*
D02*
G37*
G36*
X35813Y29650D02*
Y28051D01*
X35710Y27948D01*
X35512D01*
X35414Y28051D01*
Y29552D01*
X35015D01*
Y27948D01*
X34817D01*
Y29552D01*
X34213D01*
Y29244D01*
X34410Y29050D01*
Y28051D01*
X34308Y27948D01*
X33913D01*
X33810Y28051D01*
Y29650D01*
X33913Y29753D01*
X34813D01*
X34916Y29650D01*
X35018Y29753D01*
X35710D01*
X35813Y29650D01*
D02*
G37*
G36*
X46536D02*
Y28051D01*
X46434Y27948D01*
X46236D01*
X46137Y28051D01*
Y29552D01*
X45738D01*
Y27948D01*
X45541D01*
Y29552D01*
X44936D01*
Y29244D01*
X45134Y29050D01*
Y28051D01*
X45031Y27948D01*
X44636D01*
X44534Y28051D01*
Y29650D01*
X44636Y29753D01*
X45537D01*
X45639Y29650D01*
X45742Y29753D01*
X46434D01*
X46536Y29650D01*
D02*
G37*
G36*
X38013Y29251D02*
Y28955D01*
X37815D01*
Y29153D01*
X37211D01*
Y28849D01*
X37412Y28651D01*
Y28149D01*
X37815D01*
Y28351D01*
X38013D01*
Y28051D01*
X37910Y27948D01*
X36911D01*
X36812Y28051D01*
Y29251D01*
X36911Y29354D01*
X37910D01*
X38013Y29251D01*
D02*
G37*
G36*
X43223Y29248D02*
X43420Y29046D01*
Y27948D01*
X43223D01*
Y28951D01*
X42618D01*
Y28051D01*
X42516Y27948D01*
X42117D01*
X42018Y28051D01*
Y29650D01*
X42117Y29753D01*
X42314D01*
X42417Y29650D01*
Y29153D01*
X43025D01*
Y29753D01*
X43223D01*
Y29248D01*
D02*
G37*
%LPC*%
G36*
X40350Y29153D02*
X39749D01*
Y28845D01*
X39947Y28651D01*
Y28149D01*
X40350D01*
Y29153D01*
D02*
G37*
%LPD*%
D12*
X4350Y56200D02*
X5350D01*
X4350Y53200D02*
Y56200D01*
Y53200D02*
X5350D01*
Y56200D01*
X750Y45250D02*
Y46250D01*
Y45250D02*
X3750D01*
Y46250D01*
X750D02*
X3750D01*
X12000Y12000D02*
X15000D01*
Y11000D02*
Y12000D01*
X12000Y11000D02*
X15000D01*
X12000D02*
Y12000D01*
X500Y16000D02*
X1500D01*
Y19000D01*
X500D02*
X1500D01*
X500Y16000D02*
Y19000D01*
X20500Y24500D02*
Y27500D01*
X19500Y24500D02*
X20500D01*
X19500D02*
Y27500D01*
X20500D01*
X19500Y32500D02*
X20500D01*
Y35500D01*
X19500D02*
X20500D01*
X19500Y32500D02*
Y35500D01*
X29500Y39000D02*
Y42000D01*
X28500Y39000D02*
X29500D01*
X28500D02*
Y42000D01*
X29500D01*
X38000Y35500D02*
X39000D01*
X38000Y32500D02*
Y35500D01*
Y32500D02*
X39000D01*
Y35500D01*
X40000Y39000D02*
Y42000D01*
X39000Y39000D02*
X40000D01*
X39000D02*
Y42000D01*
X40000D01*
X48000D02*
X49000D01*
X48000Y39000D02*
Y42000D01*
Y39000D02*
X49000D01*
Y42000D01*
X18780Y39090D02*
Y42090D01*
X17780Y39090D02*
X18780D01*
X17780D02*
Y42090D01*
X18780D01*
X28500Y12000D02*
X29500D01*
Y15000D01*
X28500D02*
X29500D01*
X28500Y12000D02*
Y15000D01*
X26000Y24000D02*
X29000D01*
Y23000D02*
Y24000D01*
X26000Y23000D02*
X29000D01*
X26000D02*
Y24000D01*
X23920Y9470D02*
Y10470D01*
Y9470D02*
X26920D01*
Y10470D01*
X23920D02*
X26920D01*
X22500Y45000D02*
Y48000D01*
X21500Y45000D02*
X22500D01*
X21500D02*
Y48000D01*
X22500D01*
X23500Y20500D02*
X24500D01*
Y23500D01*
X23500D02*
X24500D01*
X23500Y20500D02*
Y23500D01*
X25000Y12500D02*
Y15500D01*
X24000Y12500D02*
X25000D01*
X24000D02*
Y15500D01*
X25000D01*
X11000Y43500D02*
Y44500D01*
X8000D02*
X11000D01*
X8000Y43500D02*
Y44500D01*
Y43500D02*
X11000D01*
X4310Y1740D02*
Y2240D01*
X4060Y1990D01*
X4393D01*
X4560Y1740D02*
Y1823D01*
X4643D01*
Y1740D01*
X4560D01*
X4976Y2240D02*
X5310D01*
Y2157D01*
X4976Y1823D01*
Y1740D01*
X5476Y2240D02*
Y1740D01*
Y1907D01*
X5809Y2240D01*
X5560Y1990D01*
X5809Y1740D01*
X40280Y33930D02*
Y34097D01*
Y34013D01*
X39780D01*
X39863Y33930D01*
X39780Y34347D02*
X40280D01*
X40113D01*
X39780Y34680D01*
X40030Y34430D01*
X40280Y34680D01*
X7050Y52700D02*
Y52200D01*
X7300D01*
X7383Y52283D01*
Y52617D01*
X7300Y52700D01*
X7050D01*
X7883Y52617D02*
X7800Y52700D01*
X7633D01*
X7550Y52617D01*
Y52283D01*
X7633Y52200D01*
X7800D01*
X7883Y52283D01*
X8550Y52200D02*
Y52700D01*
X8799D01*
X8883Y52617D01*
Y52450D01*
X8799Y52367D01*
X8550D01*
X9299Y52700D02*
X9133D01*
X9049Y52617D01*
Y52283D01*
X9133Y52200D01*
X9299D01*
X9383Y52283D01*
Y52617D01*
X9299Y52700D01*
X9549D02*
Y52200D01*
X9716Y52367D01*
X9882Y52200D01*
Y52700D01*
X10382D02*
X10049D01*
Y52200D01*
X10382D01*
X10049Y52450D02*
X10216D01*
X10549Y52200D02*
Y52700D01*
X10799D01*
X10882Y52617D01*
Y52450D01*
X10799Y52367D01*
X10549D01*
X10715D02*
X10882Y52200D01*
X22010Y1400D02*
X22343Y900D01*
Y1400D02*
X22010Y900D01*
X22510D02*
X22676D01*
X22593D01*
Y1400D01*
X22510Y1317D01*
X23200Y43240D02*
X23533D01*
Y43157D01*
X23200Y42823D01*
Y42740D01*
X23950D02*
Y43240D01*
X23700Y42990D01*
X24033D01*
X24200Y43240D02*
Y42740D01*
X24533D01*
X25033Y43157D02*
X24949Y43240D01*
X24783D01*
X24700Y43157D01*
Y43073D01*
X24783Y42990D01*
X24949D01*
X25033Y42907D01*
Y42823D01*
X24949Y42740D01*
X24783D01*
X24700Y42823D01*
X25199Y43157D02*
X25283Y43240D01*
X25449D01*
X25533Y43157D01*
Y42823D01*
X25449Y42740D01*
X25283D01*
X25199Y42823D01*
Y43157D01*
X25699D02*
X25782Y43240D01*
X25949D01*
X26032Y43157D01*
Y42823D01*
X25949Y42740D01*
X25782D01*
X25699Y42823D01*
Y43157D01*
X11600Y43300D02*
X11933D01*
Y43217D01*
X11600Y42883D01*
Y42800D01*
X12350D02*
Y43300D01*
X12100Y43050D01*
X12433D01*
X12600Y43300D02*
Y42800D01*
X12933D01*
X13433Y43217D02*
X13349Y43300D01*
X13183D01*
X13100Y43217D01*
Y43133D01*
X13183Y43050D01*
X13349D01*
X13433Y42967D01*
Y42883D01*
X13349Y42800D01*
X13183D01*
X13100Y42883D01*
X13599Y42800D02*
X13766D01*
X13683D01*
Y43300D01*
X13599Y43217D01*
X14016D02*
X14099Y43300D01*
X14266D01*
X14349Y43217D01*
Y43133D01*
X14266Y43050D01*
X14182D01*
X14266D01*
X14349Y42967D01*
Y42883D01*
X14266Y42800D01*
X14099D01*
X14016Y42883D01*
X14516Y43217D02*
X14599Y43300D01*
X14766D01*
X14849Y43217D01*
Y43133D01*
X14766Y43050D01*
X14849Y42967D01*
Y42883D01*
X14766Y42800D01*
X14599D01*
X14516Y42883D01*
Y42967D01*
X14599Y43050D01*
X14516Y43133D01*
Y43217D01*
X14599Y43050D02*
X14766D01*
X5593Y37710D02*
X5260D01*
X5593Y38043D01*
Y38127D01*
X5510Y38210D01*
X5343D01*
X5260Y38127D01*
X5760Y38210D02*
X6093D01*
Y38127D01*
X5760Y37793D01*
Y37710D01*
X6593Y38127D02*
X6510Y38210D01*
X6343D01*
X6260Y38127D01*
Y37793D01*
X6343Y37710D01*
X6510D01*
X6593Y37793D01*
X7093Y38210D02*
X6926Y38127D01*
X6760Y37960D01*
Y37793D01*
X6843Y37710D01*
X7009D01*
X7093Y37793D01*
Y37877D01*
X7009Y37960D01*
X6760D01*
X7509Y37710D02*
Y38210D01*
X7259Y37960D01*
X7593D01*
X8592Y38210D02*
X8259D01*
Y37710D01*
X8592D01*
X8259Y37960D02*
X8426D01*
X8759Y37710D02*
Y38210D01*
X9009D01*
X9092Y38127D01*
Y37960D01*
X9009Y37877D01*
X8759D01*
X9259Y37710D02*
Y38210D01*
X9509D01*
X9592Y38127D01*
Y37960D01*
X9509Y37877D01*
X9259D01*
X9425D02*
X9592Y37710D01*
X10008Y38210D02*
X9842D01*
X9759Y38127D01*
Y37793D01*
X9842Y37710D01*
X10008D01*
X10092Y37793D01*
Y38127D01*
X10008Y38210D01*
X10258Y37710D02*
Y38210D01*
X10425Y38043D01*
X10592Y38210D01*
Y37710D01*
X5713Y30230D02*
X5547Y30147D01*
X5380Y29980D01*
Y29813D01*
X5463Y29730D01*
X5630D01*
X5713Y29813D01*
Y29897D01*
X5630Y29980D01*
X5380D01*
X6213Y29730D02*
X5880D01*
X6213Y30063D01*
Y30147D01*
X6130Y30230D01*
X5963D01*
X5880Y30147D01*
X6713Y30230D02*
X6546Y30147D01*
X6380Y29980D01*
Y29813D01*
X6463Y29730D01*
X6630D01*
X6713Y29813D01*
Y29897D01*
X6630Y29980D01*
X6380D01*
X7129Y29730D02*
Y30230D01*
X6880Y29980D01*
X7213D01*
X7879Y29730D02*
Y30230D01*
X8129D01*
X8212Y30147D01*
Y29980D01*
X8129Y29897D01*
X7879D01*
X8046D02*
X8212Y29730D01*
X8379D02*
Y30063D01*
X8546Y30230D01*
X8712Y30063D01*
Y29730D01*
Y29980D01*
X8379D01*
X8879Y29730D02*
Y30230D01*
X9045Y30063D01*
X9212Y30230D01*
Y29730D01*
X42600Y43300D02*
X42933D01*
Y43217D01*
X42600Y42883D01*
Y42800D01*
X43350D02*
Y43300D01*
X43100Y43050D01*
X43433D01*
X43600Y43300D02*
Y42800D01*
X43933D01*
X44433Y43217D02*
X44349Y43300D01*
X44183D01*
X44100Y43217D01*
Y43133D01*
X44183Y43050D01*
X44349D01*
X44433Y42967D01*
Y42883D01*
X44349Y42800D01*
X44183D01*
X44100Y42883D01*
X44599Y43217D02*
X44683Y43300D01*
X44849D01*
X44933Y43217D01*
Y42883D01*
X44849Y42800D01*
X44683D01*
X44599Y42883D01*
Y43217D01*
X45432Y43300D02*
X45266Y43217D01*
X45099Y43050D01*
Y42883D01*
X45182Y42800D01*
X45349D01*
X45432Y42883D01*
Y42967D01*
X45349Y43050D01*
X45099D01*
X16160Y49080D02*
X16493D01*
Y48997D01*
X16160Y48663D01*
Y48580D01*
X16910D02*
Y49080D01*
X16660Y48830D01*
X16993D01*
X17160Y49080D02*
Y48580D01*
X17493D01*
X17993Y48997D02*
X17909Y49080D01*
X17743D01*
X17660Y48997D01*
Y48913D01*
X17743Y48830D01*
X17909D01*
X17993Y48747D01*
Y48663D01*
X17909Y48580D01*
X17743D01*
X17660Y48663D01*
X18159Y48997D02*
X18243Y49080D01*
X18409D01*
X18493Y48997D01*
Y48663D01*
X18409Y48580D01*
X18243D01*
X18159Y48663D01*
Y48997D01*
X18659D02*
X18743Y49080D01*
X18909D01*
X18992Y48997D01*
Y48663D01*
X18909Y48580D01*
X18743D01*
X18659Y48663D01*
Y48997D01*
X3403Y21600D02*
X3237Y21517D01*
X3070Y21350D01*
Y21183D01*
X3153Y21100D01*
X3320D01*
X3403Y21183D01*
Y21267D01*
X3320Y21350D01*
X3070D01*
X3903Y21600D02*
X3570D01*
Y21350D01*
X3736Y21433D01*
X3820D01*
X3903Y21350D01*
Y21183D01*
X3820Y21100D01*
X3653D01*
X3570Y21183D01*
X4070Y21517D02*
X4153Y21600D01*
X4320D01*
X4403Y21517D01*
Y21433D01*
X4320Y21350D01*
X4236D01*
X4320D01*
X4403Y21267D01*
Y21183D01*
X4320Y21100D01*
X4153D01*
X4070Y21183D01*
X4903Y21100D02*
X4570D01*
X4903Y21433D01*
Y21517D01*
X4819Y21600D01*
X4653D01*
X4570Y21517D01*
X5569Y21100D02*
Y21600D01*
X5819D01*
X5902Y21517D01*
Y21350D01*
X5819Y21267D01*
X5569D01*
X5736D02*
X5902Y21100D01*
X6069Y21600D02*
X6236D01*
X6152D01*
Y21100D01*
X6069D01*
X6236D01*
X6735Y21600D02*
X6569D01*
X6486Y21517D01*
Y21183D01*
X6569Y21100D01*
X6735D01*
X6819Y21183D01*
Y21517D01*
X6735Y21600D01*
X6985D02*
X7319D01*
X7152D01*
Y21100D01*
X25833Y20800D02*
X25500D01*
Y20550D01*
X25667Y20633D01*
X25750D01*
X25833Y20550D01*
Y20383D01*
X25750Y20300D01*
X25583D01*
X25500Y20383D01*
X26333Y20800D02*
X26000D01*
Y20550D01*
X26166Y20633D01*
X26250D01*
X26333Y20550D01*
Y20383D01*
X26250Y20300D01*
X26083D01*
X26000Y20383D01*
X26833Y20800D02*
X26666Y20717D01*
X26500Y20550D01*
Y20383D01*
X26583Y20300D01*
X26750D01*
X26833Y20383D01*
Y20467D01*
X26750Y20550D01*
X26500D01*
X23220Y29270D02*
X23553D01*
Y29187D01*
X23220Y28853D01*
Y28770D01*
X23970D02*
Y29270D01*
X23720Y29020D01*
X24053D01*
X24220Y29270D02*
Y28770D01*
X24553D01*
X25053Y29187D02*
X24969Y29270D01*
X24803D01*
X24720Y29187D01*
Y29103D01*
X24803Y29020D01*
X24969D01*
X25053Y28937D01*
Y28853D01*
X24969Y28770D01*
X24803D01*
X24720Y28853D01*
X25219Y28770D02*
X25386D01*
X25303D01*
Y29270D01*
X25219Y29187D01*
X25886Y28770D02*
Y29270D01*
X25636Y29020D01*
X25969D01*
X26469Y29270D02*
X26136D01*
Y29020D01*
X26302Y29103D01*
X26386D01*
X26469Y29020D01*
Y28853D01*
X26386Y28770D01*
X26219D01*
X26136Y28853D01*
X32500Y36800D02*
X32833D01*
Y36717D01*
X32500Y36383D01*
Y36300D01*
X33250D02*
Y36800D01*
X33000Y36550D01*
X33333D01*
X33500Y36800D02*
Y36300D01*
X33833D01*
X34333Y36717D02*
X34249Y36800D01*
X34083D01*
X34000Y36717D01*
Y36633D01*
X34083Y36550D01*
X34249D01*
X34333Y36467D01*
Y36383D01*
X34249Y36300D01*
X34083D01*
X34000Y36383D01*
X34499Y36717D02*
X34583Y36800D01*
X34749D01*
X34833Y36717D01*
Y36633D01*
X34749Y36550D01*
X34666D01*
X34749D01*
X34833Y36467D01*
Y36383D01*
X34749Y36300D01*
X34583D01*
X34499Y36383D01*
X34999Y36717D02*
X35082Y36800D01*
X35249D01*
X35332Y36717D01*
Y36633D01*
X35249Y36550D01*
X35332Y36467D01*
Y36383D01*
X35249Y36300D01*
X35082D01*
X34999Y36383D01*
Y36467D01*
X35082Y36550D01*
X34999Y36633D01*
Y36717D01*
X35082Y36550D02*
X35249D01*
X34200Y43300D02*
X34533D01*
Y43217D01*
X34200Y42883D01*
Y42800D01*
X34950D02*
Y43300D01*
X34700Y43050D01*
X35033D01*
X35200Y43300D02*
Y42800D01*
X35533D01*
X36033Y43217D02*
X35949Y43300D01*
X35783D01*
X35700Y43217D01*
Y43133D01*
X35783Y43050D01*
X35949D01*
X36033Y42967D01*
Y42883D01*
X35949Y42800D01*
X35783D01*
X35700Y42883D01*
X36199Y42800D02*
X36366D01*
X36283D01*
Y43300D01*
X36199Y43217D01*
X36866Y42800D02*
Y43300D01*
X36616Y43050D01*
X36949D01*
X37449Y43300D02*
X37116D01*
Y43050D01*
X37282Y43133D01*
X37366D01*
X37449Y43050D01*
Y42883D01*
X37366Y42800D01*
X37199D01*
X37116Y42883D01*
X3373Y11270D02*
X3207Y11187D01*
X3040Y11020D01*
Y10853D01*
X3123Y10770D01*
X3290D01*
X3373Y10853D01*
Y10937D01*
X3290Y11020D01*
X3040D01*
X3873Y11270D02*
X3540D01*
Y11020D01*
X3706Y11103D01*
X3790D01*
X3873Y11020D01*
Y10853D01*
X3790Y10770D01*
X3623D01*
X3540Y10853D01*
X4040Y11187D02*
X4123Y11270D01*
X4290D01*
X4373Y11187D01*
Y10853D01*
X4290Y10770D01*
X4123D01*
X4040Y10853D01*
Y11187D01*
X4873Y10770D02*
X4540D01*
X4873Y11103D01*
Y11187D01*
X4789Y11270D01*
X4623D01*
X4540Y11187D01*
X5872D02*
X5789Y11270D01*
X5623D01*
X5539Y11187D01*
Y10853D01*
X5623Y10770D01*
X5789D01*
X5872Y10853D01*
X6039Y10770D02*
Y11270D01*
X6289D01*
X6372Y11187D01*
Y11020D01*
X6289Y10937D01*
X6039D01*
X6539Y11270D02*
Y10853D01*
X6622Y10770D01*
X6789D01*
X6872Y10853D01*
Y11270D01*
X1670Y52170D02*
Y51670D01*
X2003D01*
X2170Y52170D02*
X2503D01*
Y52087D01*
X2170Y51753D01*
Y51670D01*
X2670Y52087D02*
X2753Y52170D01*
X2920D01*
X3003Y52087D01*
Y52003D01*
X2920Y51920D01*
X3003Y51837D01*
Y51753D01*
X2920Y51670D01*
X2753D01*
X2670Y51753D01*
Y51837D01*
X2753Y51920D01*
X2670Y52003D01*
Y52087D01*
X2753Y51920D02*
X2920D01*
X3170Y52087D02*
X3253Y52170D01*
X3419D01*
X3503Y52087D01*
Y51753D01*
X3419Y51670D01*
X3253D01*
X3170Y51753D01*
Y52087D01*
X4003Y52170D02*
X3669D01*
Y51920D01*
X3836Y52003D01*
X3919D01*
X4003Y51920D01*
Y51753D01*
X3919Y51670D01*
X3753D01*
X3669Y51753D01*
X4169Y51670D02*
Y52003D01*
X4336Y52170D01*
X4502Y52003D01*
Y51670D01*
Y51920D01*
X4169D01*
X5002Y52087D02*
X4919Y52170D01*
X4752D01*
X4669Y52087D01*
Y51753D01*
X4752Y51670D01*
X4919D01*
X5002Y51753D01*
X5169Y52170D02*
Y51670D01*
X5419D01*
X5502Y51753D01*
Y52087D01*
X5419Y52170D01*
X5169D01*
X6002Y51670D02*
X5669D01*
X6002Y52003D01*
Y52087D01*
X5919Y52170D01*
X5752D01*
X5669Y52087D01*
X17823Y50580D02*
X17740Y50663D01*
Y50830D01*
X17823Y50913D01*
X17907D01*
X17990Y50830D01*
Y50747D01*
Y50830D01*
X18073Y50913D01*
X18157D01*
X18240Y50830D01*
Y50663D01*
X18157Y50580D01*
X18240Y51080D02*
X18157D01*
Y51163D01*
X18240D01*
Y51080D01*
X17823Y51496D02*
X17740Y51580D01*
Y51746D01*
X17823Y51830D01*
X17907D01*
X17990Y51746D01*
Y51663D01*
Y51746D01*
X18073Y51830D01*
X18157D01*
X18240Y51746D01*
Y51580D01*
X18157Y51496D01*
X17740Y51996D02*
X18240D01*
X18073D01*
X17740Y52329D01*
X17990Y52080D01*
X18240Y52329D01*
X13290Y51033D02*
Y50700D01*
X12957Y51033D01*
X12873D01*
X12790Y50950D01*
Y50783D01*
X12873Y50700D01*
X13290Y51533D02*
Y51200D01*
X12957Y51533D01*
X12873D01*
X12790Y51450D01*
Y51283D01*
X12873Y51200D01*
Y51700D02*
X12790Y51783D01*
Y51950D01*
X12873Y52033D01*
X13207D01*
X13290Y51950D01*
Y51783D01*
X13207Y51700D01*
X12873D01*
X19843Y50610D02*
X19760Y50693D01*
Y50860D01*
X19843Y50943D01*
X19927D01*
X20010Y50860D01*
Y50777D01*
Y50860D01*
X20093Y50943D01*
X20177D01*
X20260Y50860D01*
Y50693D01*
X20177Y50610D01*
X20260Y51110D02*
X20177D01*
Y51193D01*
X20260D01*
Y51110D01*
X19843Y51526D02*
X19760Y51610D01*
Y51776D01*
X19843Y51860D01*
X19927D01*
X20010Y51776D01*
Y51693D01*
Y51776D01*
X20093Y51860D01*
X20177D01*
X20260Y51776D01*
Y51610D01*
X20177Y51526D01*
X19760Y52026D02*
X20260D01*
X20093D01*
X19760Y52359D01*
X20010Y52110D01*
X20260Y52359D01*
X14300Y51063D02*
Y50730D01*
X13967Y51063D01*
X13883D01*
X13800Y50980D01*
Y50813D01*
X13883Y50730D01*
X14300Y51563D02*
Y51230D01*
X13967Y51563D01*
X13883D01*
X13800Y51480D01*
Y51313D01*
X13883Y51230D01*
Y51730D02*
X13800Y51813D01*
Y51980D01*
X13883Y52063D01*
X14217D01*
X14300Y51980D01*
Y51813D01*
X14217Y51730D01*
X13883D01*
X13250Y46100D02*
Y46267D01*
Y46183D01*
X12750D01*
X12833Y46100D01*
X12750Y46517D02*
X13250D01*
X13083D01*
X12750Y46850D01*
X13000Y46600D01*
X13250Y46850D01*
X21290Y51033D02*
Y50700D01*
X20957Y51033D01*
X20873D01*
X20790Y50950D01*
Y50783D01*
X20873Y50700D01*
X21290Y51533D02*
Y51200D01*
X20957Y51533D01*
X20873D01*
X20790Y51450D01*
Y51283D01*
X20873Y51200D01*
Y51700D02*
X20790Y51783D01*
Y51950D01*
X20873Y52033D01*
X21207D01*
X21290Y51950D01*
Y51783D01*
X21207Y51700D01*
X20873D01*
X17290Y51023D02*
Y50690D01*
X16957Y51023D01*
X16873D01*
X16790Y50940D01*
Y50773D01*
X16873Y50690D01*
X17290Y51523D02*
Y51190D01*
X16957Y51523D01*
X16873D01*
X16790Y51440D01*
Y51273D01*
X16873Y51190D01*
Y51690D02*
X16790Y51773D01*
Y51940D01*
X16873Y52023D01*
X17207D01*
X17290Y51940D01*
Y51773D01*
X17207Y51690D01*
X16873D01*
X15250Y51050D02*
Y51217D01*
Y51133D01*
X14750D01*
X14833Y51050D01*
X14750Y51467D02*
X15250D01*
X15083D01*
X14750Y51800D01*
X15000Y51550D01*
X15250Y51800D01*
X26750Y33530D02*
Y33697D01*
Y33613D01*
X26250D01*
X26333Y33530D01*
X26250Y33947D02*
X26750D01*
X26583D01*
X26250Y34280D01*
X26500Y34030D01*
X26750Y34280D01*
X16250Y51050D02*
Y51217D01*
Y51133D01*
X15750D01*
X15833Y51050D01*
X15750Y51467D02*
X16250D01*
X16083D01*
X15750Y51800D01*
X16000Y51550D01*
X16250Y51800D01*
X48770Y34010D02*
X48270D01*
X48520Y33760D01*
Y34093D01*
X48270Y34260D02*
Y34593D01*
X48353D01*
X48687Y34260D01*
X48770D01*
X48270Y34760D02*
X48770D01*
X48603D01*
X48270Y35093D01*
X48520Y34843D01*
X48770Y35093D01*
X27610Y21760D02*
X27777D01*
X27693D01*
Y22260D01*
X27610Y22177D01*
X28027Y22260D02*
Y21760D01*
Y21927D01*
X28360Y22260D01*
X28110Y22010D01*
X28360Y21760D01*
X24270Y46050D02*
X23770D01*
X24020Y45800D01*
Y46133D01*
X23770Y46300D02*
Y46633D01*
X23853D01*
X24187Y46300D01*
X24270D01*
X23770Y46800D02*
X24270D01*
X24103D01*
X23770Y47133D01*
X24020Y46883D01*
X24270Y47133D01*
X47740Y45850D02*
Y46017D01*
Y45933D01*
X47240D01*
X47323Y45850D01*
Y46267D02*
X47240Y46350D01*
Y46516D01*
X47323Y46600D01*
X47657D01*
X47740Y46516D01*
Y46350D01*
X47657Y46267D01*
X47323D01*
Y46766D02*
X47240Y46850D01*
Y47016D01*
X47323Y47100D01*
X47657D01*
X47740Y47016D01*
Y46850D01*
X47657Y46766D01*
X47323D01*
X43760Y45840D02*
Y46007D01*
Y45923D01*
X43260D01*
X43343Y45840D01*
Y46257D02*
X43260Y46340D01*
Y46506D01*
X43343Y46590D01*
X43677D01*
X43760Y46506D01*
Y46340D01*
X43677Y46257D01*
X43343D01*
Y46756D02*
X43260Y46840D01*
Y47006D01*
X43343Y47090D01*
X43677D01*
X43760Y47006D01*
Y46840D01*
X43677Y46756D01*
X43343D01*
X39770Y45880D02*
Y46047D01*
Y45963D01*
X39270D01*
X39353Y45880D01*
Y46297D02*
X39270Y46380D01*
Y46546D01*
X39353Y46630D01*
X39687D01*
X39770Y46546D01*
Y46380D01*
X39687Y46297D01*
X39353D01*
Y46796D02*
X39270Y46880D01*
Y47046D01*
X39353Y47130D01*
X39687D01*
X39770Y47046D01*
Y46880D01*
X39687Y46796D01*
X39353D01*
X31260Y45850D02*
Y46017D01*
Y45933D01*
X30760D01*
X30843Y45850D01*
Y46267D02*
X30760Y46350D01*
Y46516D01*
X30843Y46600D01*
X31177D01*
X31260Y46516D01*
Y46350D01*
X31177Y46267D01*
X30843D01*
Y46766D02*
X30760Y46850D01*
Y47016D01*
X30843Y47100D01*
X31177D01*
X31260Y47016D01*
Y46850D01*
X31177Y46766D01*
X30843D01*
X42750Y45840D02*
Y46007D01*
Y45923D01*
X42250D01*
X42333Y45840D01*
Y46257D02*
X42250Y46340D01*
Y46506D01*
X42333Y46590D01*
X42667D01*
X42750Y46506D01*
Y46340D01*
X42667Y46257D01*
X42333D01*
Y46756D02*
X42250Y46840D01*
Y47006D01*
X42333Y47090D01*
X42667D01*
X42750Y47006D01*
Y46840D01*
X42667Y46756D01*
X42333D01*
X44760Y45840D02*
Y46007D01*
Y45923D01*
X44260D01*
X44343Y45840D01*
Y46257D02*
X44260Y46340D01*
Y46506D01*
X44343Y46590D01*
X44677D01*
X44760Y46506D01*
Y46340D01*
X44677Y46257D01*
X44343D01*
Y46756D02*
X44260Y46840D01*
Y47006D01*
X44343Y47090D01*
X44677D01*
X44760Y47006D01*
Y46840D01*
X44677Y46756D01*
X44343D01*
X48770Y45860D02*
Y46027D01*
Y45943D01*
X48270D01*
X48353Y45860D01*
Y46277D02*
X48270Y46360D01*
Y46526D01*
X48353Y46610D01*
X48687D01*
X48770Y46526D01*
Y46360D01*
X48687Y46277D01*
X48353D01*
Y46776D02*
X48270Y46860D01*
Y47026D01*
X48353Y47110D01*
X48687D01*
X48770Y47026D01*
Y46860D01*
X48687Y46776D01*
X48353D01*
X23700Y33420D02*
Y33587D01*
Y33503D01*
X23200D01*
X23283Y33420D01*
X23200Y33837D02*
X23700D01*
X23533D01*
X23200Y34170D01*
X23450Y33920D01*
X23700Y34170D01*
X25750Y33510D02*
Y33677D01*
Y33593D01*
X25250D01*
X25333Y33510D01*
X25250Y33927D02*
X25750D01*
X25583D01*
X25250Y34260D01*
X25500Y34010D01*
X25750Y34260D01*
X22750Y33390D02*
Y33557D01*
Y33473D01*
X22250D01*
X22333Y33390D01*
X22250Y33807D02*
X22750D01*
X22583D01*
X22250Y34140D01*
X22500Y33890D01*
X22750Y34140D01*
X24770Y33470D02*
Y33637D01*
Y33553D01*
X24270D01*
X24353Y33470D01*
X24270Y33887D02*
X24770D01*
X24603D01*
X24270Y34220D01*
X24520Y33970D01*
X24770Y34220D01*
X45750Y45860D02*
Y46027D01*
Y45943D01*
X45250D01*
X45333Y45860D01*
X45250Y46277D02*
X45750D01*
X45583D01*
X45250Y46610D01*
X45500Y46360D01*
X45750Y46610D01*
X46750Y46133D02*
Y45800D01*
X46417Y46133D01*
X46333D01*
X46250Y46050D01*
Y45883D01*
X46333Y45800D01*
X46750Y46633D02*
Y46300D01*
X46417Y46633D01*
X46333D01*
X46250Y46550D01*
Y46383D01*
X46333Y46300D01*
Y46800D02*
X46250Y46883D01*
Y47050D01*
X46333Y47133D01*
X46667D01*
X46750Y47050D01*
Y46883D01*
X46667Y46800D01*
X46333D01*
X40770Y45870D02*
Y46037D01*
Y45953D01*
X40270D01*
X40353Y45870D01*
X40270Y46287D02*
X40770D01*
X40603D01*
X40270Y46620D01*
X40520Y46370D01*
X40770Y46620D01*
X41750Y46133D02*
Y45800D01*
X41417Y46133D01*
X41333D01*
X41250Y46050D01*
Y45883D01*
X41333Y45800D01*
X41750Y46633D02*
Y46300D01*
X41417Y46633D01*
X41333D01*
X41250Y46550D01*
Y46383D01*
X41333Y46300D01*
Y46800D02*
X41250Y46883D01*
Y47050D01*
X41333Y47133D01*
X41667D01*
X41750Y47050D01*
Y46883D01*
X41667Y46800D01*
X41333D01*
X37260Y45880D02*
Y46047D01*
Y45963D01*
X36760D01*
X36843Y45880D01*
X36760Y46297D02*
X37260D01*
X37093D01*
X36760Y46630D01*
X37010Y46380D01*
X37260Y46630D01*
X38250Y46153D02*
Y45820D01*
X37917Y46153D01*
X37833D01*
X37750Y46070D01*
Y45903D01*
X37833Y45820D01*
X38250Y46653D02*
Y46320D01*
X37917Y46653D01*
X37833D01*
X37750Y46570D01*
Y46403D01*
X37833Y46320D01*
Y46820D02*
X37750Y46903D01*
Y47070D01*
X37833Y47153D01*
X38167D01*
X38250Y47070D01*
Y46903D01*
X38167Y46820D01*
X37833D01*
X34240Y45850D02*
Y46017D01*
Y45933D01*
X33740D01*
X33823Y45850D01*
X33740Y46267D02*
X34240D01*
X34073D01*
X33740Y46600D01*
X33990Y46350D01*
X34240Y46600D01*
X35240Y46103D02*
Y45770D01*
X34907Y46103D01*
X34823D01*
X34740Y46020D01*
Y45853D01*
X34823Y45770D01*
X35240Y46603D02*
Y46270D01*
X34907Y46603D01*
X34823D01*
X34740Y46520D01*
Y46353D01*
X34823Y46270D01*
Y46770D02*
X34740Y46853D01*
Y47020D01*
X34823Y47103D01*
X35157D01*
X35240Y47020D01*
Y46853D01*
X35157Y46770D01*
X34823D01*
X29280Y45870D02*
Y46037D01*
Y45953D01*
X28780D01*
X28863Y45870D01*
X28780Y46287D02*
X29280D01*
X29113D01*
X28780Y46620D01*
X29030Y46370D01*
X29280Y46620D01*
X30270Y46103D02*
Y45770D01*
X29937Y46103D01*
X29853D01*
X29770Y46020D01*
Y45853D01*
X29853Y45770D01*
X30270Y46603D02*
Y46270D01*
X29937Y46603D01*
X29853D01*
X29770Y46520D01*
Y46353D01*
X29853Y46270D01*
Y46770D02*
X29770Y46853D01*
Y47020D01*
X29853Y47103D01*
X30187D01*
X30270Y47020D01*
Y46853D01*
X30187Y46770D01*
X29853D01*
X26260Y45900D02*
Y46067D01*
Y45983D01*
X25760D01*
X25843Y45900D01*
X25760Y46317D02*
X26260D01*
X26093D01*
X25760Y46650D01*
X26010Y46400D01*
X26260Y46650D01*
X27260Y46163D02*
Y45830D01*
X26927Y46163D01*
X26843D01*
X26760Y46080D01*
Y45913D01*
X26843Y45830D01*
X27260Y46663D02*
Y46330D01*
X26927Y46663D01*
X26843D01*
X26760Y46580D01*
Y46413D01*
X26843Y46330D01*
Y46830D02*
X26760Y46913D01*
Y47080D01*
X26843Y47163D01*
X27177D01*
X27260Y47080D01*
Y46913D01*
X27177Y46830D01*
X26843D01*
X31600Y31217D02*
X31683Y31300D01*
X31850D01*
X31933Y31217D01*
Y31133D01*
X31850Y31050D01*
X31767D01*
X31850D01*
X31933Y30967D01*
Y30883D01*
X31850Y30800D01*
X31683D01*
X31600Y30883D01*
X32100Y30800D02*
Y30883D01*
X32183D01*
Y30800D01*
X32100D01*
X32516Y31217D02*
X32600Y31300D01*
X32766D01*
X32850Y31217D01*
Y31133D01*
X32766Y31050D01*
X32683D01*
X32766D01*
X32850Y30967D01*
Y30883D01*
X32766Y30800D01*
X32600D01*
X32516Y30883D01*
X33016Y31300D02*
Y30800D01*
Y30967D01*
X33349Y31300D01*
X33100Y31050D01*
X33349Y30800D01*
X27873Y12790D02*
X27790Y12873D01*
Y13040D01*
X27873Y13123D01*
X27957D01*
X28040Y13040D01*
Y12957D01*
Y13040D01*
X28123Y13123D01*
X28207D01*
X28290Y13040D01*
Y12873D01*
X28207Y12790D01*
X28290Y13290D02*
X28207D01*
Y13373D01*
X28290D01*
Y13290D01*
X27873Y13706D02*
X27790Y13790D01*
Y13956D01*
X27873Y14040D01*
X27957D01*
X28040Y13956D01*
Y13873D01*
Y13956D01*
X28123Y14040D01*
X28207D01*
X28290Y13956D01*
Y13790D01*
X28207Y13706D01*
X27790Y14206D02*
X28290D01*
X28123D01*
X27790Y14539D01*
X28040Y14290D01*
X28290Y14539D01*
X17100Y2667D02*
X17183Y2750D01*
X17350D01*
X17433Y2667D01*
Y2583D01*
X17350Y2500D01*
X17267D01*
X17350D01*
X17433Y2417D01*
Y2333D01*
X17350Y2250D01*
X17183D01*
X17100Y2333D01*
X17600Y2250D02*
Y2333D01*
X17683D01*
Y2250D01*
X17600D01*
X18016Y2667D02*
X18100Y2750D01*
X18266D01*
X18350Y2667D01*
Y2583D01*
X18266Y2500D01*
X18183D01*
X18266D01*
X18350Y2417D01*
Y2333D01*
X18266Y2250D01*
X18100D01*
X18016Y2333D01*
X18516Y2750D02*
Y2250D01*
Y2417D01*
X18849Y2750D01*
X18600Y2500D01*
X18849Y2250D01*
X19450Y11627D02*
X19533Y11710D01*
X19700D01*
X19783Y11627D01*
Y11543D01*
X19700Y11460D01*
X19617D01*
X19700D01*
X19783Y11377D01*
Y11293D01*
X19700Y11210D01*
X19533D01*
X19450Y11293D01*
X19950Y11210D02*
Y11293D01*
X20033D01*
Y11210D01*
X19950D01*
X20366Y11627D02*
X20450Y11710D01*
X20616D01*
X20700Y11627D01*
Y11543D01*
X20616Y11460D01*
X20533D01*
X20616D01*
X20700Y11377D01*
Y11293D01*
X20616Y11210D01*
X20450D01*
X20366Y11293D01*
X20866Y11710D02*
Y11210D01*
Y11377D01*
X21199Y11710D01*
X20950Y11460D01*
X21199Y11210D01*
X17110Y1657D02*
X17193Y1740D01*
X17360D01*
X17443Y1657D01*
Y1573D01*
X17360Y1490D01*
X17277D01*
X17360D01*
X17443Y1407D01*
Y1323D01*
X17360Y1240D01*
X17193D01*
X17110Y1323D01*
X17610Y1240D02*
Y1323D01*
X17693D01*
Y1240D01*
X17610D01*
X18026Y1657D02*
X18110Y1740D01*
X18276D01*
X18360Y1657D01*
Y1573D01*
X18276Y1490D01*
X18193D01*
X18276D01*
X18360Y1407D01*
Y1323D01*
X18276Y1240D01*
X18110D01*
X18026Y1323D01*
X18526Y1740D02*
Y1240D01*
Y1407D01*
X18859Y1740D01*
X18610Y1490D01*
X18859Y1240D01*
X11783Y47453D02*
Y47787D01*
X11700Y47870D01*
X11533D01*
X11450Y47787D01*
Y47453D01*
X11533Y47370D01*
X11700D01*
X11617Y47537D02*
X11783Y47370D01*
X11700D02*
X11783Y47453D01*
X11950D02*
X12033Y47370D01*
X12200D01*
X12283Y47453D01*
Y47787D01*
X12200Y47870D01*
X12033D01*
X11950Y47787D01*
Y47703D01*
X12033Y47620D01*
X12283D01*
X11783Y49393D02*
Y49727D01*
X11700Y49810D01*
X11533D01*
X11450Y49727D01*
Y49393D01*
X11533Y49310D01*
X11700D01*
X11617Y49477D02*
X11783Y49310D01*
X11700D02*
X11783Y49393D01*
X11950Y49727D02*
X12033Y49810D01*
X12200D01*
X12283Y49727D01*
Y49643D01*
X12200Y49560D01*
X12283Y49477D01*
Y49393D01*
X12200Y49310D01*
X12033D01*
X11950Y49393D01*
Y49477D01*
X12033Y49560D01*
X11950Y49643D01*
Y49727D01*
X12033Y49560D02*
X12200D01*
X11643Y51603D02*
Y51937D01*
X11560Y52020D01*
X11393D01*
X11310Y51937D01*
Y51603D01*
X11393Y51520D01*
X11560D01*
X11477Y51687D02*
X11643Y51520D01*
X11560D02*
X11643Y51603D01*
X11810Y52020D02*
X12143D01*
Y51937D01*
X11810Y51603D01*
Y51520D01*
X43913Y59073D02*
Y59407D01*
X43830Y59490D01*
X43663D01*
X43580Y59407D01*
Y59073D01*
X43663Y58990D01*
X43830D01*
X43747Y59157D02*
X43913Y58990D01*
X43830D02*
X43913Y59073D01*
X44413Y59490D02*
X44246Y59407D01*
X44080Y59240D01*
Y59073D01*
X44163Y58990D01*
X44330D01*
X44413Y59073D01*
Y59157D01*
X44330Y59240D01*
X44080D01*
X40343Y59053D02*
Y59387D01*
X40260Y59470D01*
X40093D01*
X40010Y59387D01*
Y59053D01*
X40093Y58970D01*
X40260D01*
X40177Y59137D02*
X40343Y58970D01*
X40260D02*
X40343Y59053D01*
X40843Y59470D02*
X40510D01*
Y59220D01*
X40676Y59303D01*
X40760D01*
X40843Y59220D01*
Y59053D01*
X40760Y58970D01*
X40593D01*
X40510Y59053D01*
X36053Y58903D02*
Y59237D01*
X35970Y59320D01*
X35803D01*
X35720Y59237D01*
Y58903D01*
X35803Y58820D01*
X35970D01*
X35887Y58987D02*
X36053Y58820D01*
X35970D02*
X36053Y58903D01*
X36470Y58820D02*
Y59320D01*
X36220Y59070D01*
X36553D01*
X32223Y58923D02*
Y59257D01*
X32140Y59340D01*
X31973D01*
X31890Y59257D01*
Y58923D01*
X31973Y58840D01*
X32140D01*
X32057Y59007D02*
X32223Y58840D01*
X32140D02*
X32223Y58923D01*
X32390Y59257D02*
X32473Y59340D01*
X32640D01*
X32723Y59257D01*
Y59173D01*
X32640Y59090D01*
X32556D01*
X32640D01*
X32723Y59007D01*
Y58923D01*
X32640Y58840D01*
X32473D01*
X32390Y58923D01*
X28433Y58903D02*
Y59237D01*
X28350Y59320D01*
X28183D01*
X28100Y59237D01*
Y58903D01*
X28183Y58820D01*
X28350D01*
X28267Y58987D02*
X28433Y58820D01*
X28350D02*
X28433Y58903D01*
X28933Y58820D02*
X28600D01*
X28933Y59153D01*
Y59237D01*
X28850Y59320D01*
X28683D01*
X28600Y59237D01*
X24443Y58943D02*
Y59277D01*
X24360Y59360D01*
X24193D01*
X24110Y59277D01*
Y58943D01*
X24193Y58860D01*
X24360D01*
X24277Y59027D02*
X24443Y58860D01*
X24360D02*
X24443Y58943D01*
X24610Y58860D02*
X24776D01*
X24693D01*
Y59360D01*
X24610Y59277D01*
X3390Y57990D02*
X3223D01*
X3140Y57907D01*
Y57573D01*
X3223Y57490D01*
X3390D01*
X3473Y57573D01*
Y57907D01*
X3390Y57990D01*
X3640Y57490D02*
Y57990D01*
X3973Y57490D01*
Y57990D01*
X5389D02*
X5223D01*
X5139Y57907D01*
Y57573D01*
X5223Y57490D01*
X5389D01*
X5473Y57573D01*
Y57907D01*
X5389Y57990D01*
X5972D02*
X5639D01*
Y57740D01*
X5806D01*
X5639D01*
Y57490D01*
X6472Y57990D02*
X6139D01*
Y57740D01*
X6306D01*
X6139D01*
Y57490D01*
X553Y20890D02*
X387D01*
X470D01*
Y20473D01*
X387Y20390D01*
X303D01*
X220Y20473D01*
X720Y20390D02*
Y20890D01*
X970D01*
X1053Y20807D01*
Y20640D01*
X970Y20557D01*
X720D01*
X1220Y20390D02*
X1386D01*
X1303D01*
Y20890D01*
X1220Y20807D01*
X21680Y54210D02*
Y54710D01*
X21930D01*
X22013Y54627D01*
Y54460D01*
X21930Y54377D01*
X21680D01*
X21847D02*
X22013Y54210D01*
X22513Y54627D02*
X22430Y54710D01*
X22263D01*
X22180Y54627D01*
Y54543D01*
X22263Y54460D01*
X22430D01*
X22513Y54377D01*
Y54293D01*
X22430Y54210D01*
X22263D01*
X22180Y54293D01*
X23013Y54210D02*
X22680D01*
X23013Y54543D01*
Y54627D01*
X22930Y54710D01*
X22763D01*
X22680Y54627D01*
X23180D02*
X23263Y54710D01*
X23429D01*
X23513Y54627D01*
Y54543D01*
X23429Y54460D01*
X23346D01*
X23429D01*
X23513Y54377D01*
Y54293D01*
X23429Y54210D01*
X23263D01*
X23180Y54293D01*
X24013Y54210D02*
X23679D01*
X24013Y54543D01*
Y54627D01*
X23929Y54710D01*
X23763D01*
X23679Y54627D01*
X2990Y31353D02*
Y31020D01*
X3490D01*
Y31353D01*
X3240Y31020D02*
Y31187D01*
X2990Y31520D02*
X3490Y31853D01*
X2990D02*
X3490Y31520D01*
Y32020D02*
X2990D01*
Y32270D01*
X3073Y32353D01*
X3240D01*
X3323Y32270D01*
Y32020D01*
X3490Y32520D02*
X3157D01*
X2990Y32686D01*
X3157Y32853D01*
X3490D01*
X3240D01*
Y32520D01*
X3490Y33019D02*
X2990D01*
X3490Y33353D01*
X2990D01*
X3073Y33852D02*
X2990Y33769D01*
Y33602D01*
X3073Y33519D01*
X3157D01*
X3240Y33602D01*
Y33769D01*
X3323Y33852D01*
X3407D01*
X3490Y33769D01*
Y33602D01*
X3407Y33519D01*
X2990Y34019D02*
Y34186D01*
Y34102D01*
X3490D01*
Y34019D01*
Y34186D01*
X2990Y34685D02*
Y34519D01*
X3073Y34436D01*
X3407D01*
X3490Y34519D01*
Y34685D01*
X3407Y34769D01*
X3073D01*
X2990Y34685D01*
X3490Y34935D02*
X2990D01*
X3490Y35269D01*
X2990D01*
X8950Y45760D02*
Y45260D01*
X9200D01*
X9283Y45343D01*
Y45677D01*
X9200Y45760D01*
X8950D01*
X9783Y45260D02*
X9450D01*
X9783Y45593D01*
Y45677D01*
X9700Y45760D01*
X9533D01*
X9450Y45677D01*
X27730Y33780D02*
X28230D01*
Y34030D01*
X28147Y34113D01*
X27813D01*
X27730Y34030D01*
Y33780D01*
X28230Y34280D02*
Y34446D01*
Y34363D01*
X27730D01*
X27813Y34280D01*
X8530Y43580D02*
Y43663D01*
X8613D01*
Y43580D01*
X8530D01*
X9280D02*
X8947D01*
X9280Y43913D01*
Y43997D01*
X9196Y44080D01*
X9030D01*
X8947Y43997D01*
X9780Y43580D02*
X9446D01*
X9780Y43913D01*
Y43997D01*
X9696Y44080D01*
X9530D01*
X9446Y43997D01*
X9946Y43913D02*
Y43663D01*
X10030Y43580D01*
X10279D01*
Y43913D01*
X24930Y13080D02*
X24847D01*
Y13163D01*
X24930D01*
Y13080D01*
Y13830D02*
Y13497D01*
X24597Y13830D01*
X24513D01*
X24430Y13746D01*
Y13580D01*
X24513Y13497D01*
X24930Y14330D02*
Y13996D01*
X24597Y14330D01*
X24513D01*
X24430Y14246D01*
Y14080D01*
X24513Y13996D01*
X24597Y14496D02*
X24847D01*
X24930Y14580D01*
Y14829D01*
X24597D01*
X24420Y21080D02*
X24337D01*
Y21163D01*
X24420D01*
Y21080D01*
Y21830D02*
Y21497D01*
X24087Y21830D01*
X24003D01*
X23920Y21746D01*
Y21580D01*
X24003Y21497D01*
X24420Y22330D02*
Y21996D01*
X24087Y22330D01*
X24003D01*
X23920Y22246D01*
Y22080D01*
X24003Y21996D01*
X24087Y22496D02*
X24337D01*
X24420Y22580D01*
Y22829D01*
X24087D01*
X22420Y45780D02*
X22337D01*
Y45863D01*
X22420D01*
Y45780D01*
Y46197D02*
Y46363D01*
Y46280D01*
X21920D01*
X22003Y46197D01*
X22087Y46613D02*
X22337D01*
X22420Y46696D01*
Y46946D01*
X22087D01*
X24650Y9580D02*
Y9663D01*
X24733D01*
Y9580D01*
X24650D01*
X25067D02*
X25233D01*
X25150D01*
Y10080D01*
X25067Y9997D01*
X25483Y9913D02*
Y9663D01*
X25566Y9580D01*
X25816D01*
Y9913D01*
X26870Y23120D02*
Y23203D01*
X26953D01*
Y23120D01*
X26870D01*
X27287D02*
X27453D01*
X27370D01*
Y23620D01*
X27287Y23537D01*
X27703Y23453D02*
Y23203D01*
X27786Y23120D01*
X28036D01*
Y23453D01*
X29330Y12840D02*
X29247D01*
Y12923D01*
X29330D01*
Y12840D01*
Y13257D02*
Y13423D01*
Y13340D01*
X28830D01*
X28913Y13257D01*
X28997Y13673D02*
X29247D01*
X29330Y13756D01*
Y14006D01*
X28997D01*
X18680Y39940D02*
X18597D01*
Y40023D01*
X18680D01*
Y39940D01*
Y40357D02*
Y40523D01*
Y40440D01*
X18180D01*
X18263Y40357D01*
X18347Y40773D02*
X18597D01*
X18680Y40856D01*
Y41106D01*
X18347D01*
X48880Y39860D02*
X48797D01*
Y39943D01*
X48880D01*
Y39860D01*
Y40277D02*
Y40443D01*
Y40360D01*
X48380D01*
X48463Y40277D01*
X48547Y40693D02*
X48797D01*
X48880Y40776D01*
Y41026D01*
X48547D01*
X39880Y39850D02*
X39797D01*
Y39933D01*
X39880D01*
Y39850D01*
Y40267D02*
Y40433D01*
Y40350D01*
X39380D01*
X39463Y40267D01*
X39547Y40683D02*
X39797D01*
X39880Y40766D01*
Y41016D01*
X39547D01*
X38900Y33350D02*
X38817D01*
Y33433D01*
X38900D01*
Y33350D01*
Y33767D02*
Y33933D01*
Y33850D01*
X38400D01*
X38483Y33767D01*
X38567Y34183D02*
X38817D01*
X38900Y34266D01*
Y34516D01*
X38567D01*
X29390Y39850D02*
X29307D01*
Y39933D01*
X29390D01*
Y39850D01*
Y40267D02*
Y40433D01*
Y40350D01*
X28890D01*
X28973Y40267D01*
X29057Y40683D02*
X29307D01*
X29390Y40766D01*
Y41016D01*
X29057D01*
X20370Y33360D02*
X20287D01*
Y33443D01*
X20370D01*
Y33360D01*
Y33777D02*
Y33943D01*
Y33860D01*
X19870D01*
X19953Y33777D01*
X20037Y34193D02*
X20287D01*
X20370Y34276D01*
Y34526D01*
X20037D01*
X20360Y25390D02*
X20277D01*
Y25473D01*
X20360D01*
Y25390D01*
Y25807D02*
Y25973D01*
Y25890D01*
X19860D01*
X19943Y25807D01*
X20027Y26223D02*
X20277D01*
X20360Y26306D01*
Y26556D01*
X20027D01*
X1420Y16770D02*
X1337D01*
Y16853D01*
X1420D01*
Y16770D01*
Y17187D02*
Y17353D01*
Y17270D01*
X920D01*
X1003Y17187D01*
X1087Y17603D02*
X1337D01*
X1420Y17686D01*
Y17936D01*
X1087D01*
X12900Y11200D02*
Y11283D01*
X12983D01*
Y11200D01*
X12900D01*
X13317D02*
X13483D01*
X13400D01*
Y11700D01*
X13317Y11617D01*
X13733Y11533D02*
Y11283D01*
X13816Y11200D01*
X14066D01*
Y11533D01*
X1870Y45480D02*
X2037D01*
X1953D01*
Y45980D01*
X1870Y45897D01*
X2287Y45813D02*
Y45563D01*
X2370Y45480D01*
X2620D01*
Y45813D01*
X5230Y53960D02*
X5147D01*
Y54043D01*
X5230D01*
Y53960D01*
Y54377D02*
Y54543D01*
Y54460D01*
X4730D01*
X4813Y54377D01*
X4897Y54793D02*
X5147D01*
X5230Y54876D01*
Y55126D01*
X4897D01*
X1050Y54300D02*
X1217D01*
X1133D01*
Y54800D01*
X1050Y54717D01*
X1467D02*
X1550Y54800D01*
X1716D01*
X1800Y54717D01*
Y54383D01*
X1716Y54300D01*
X1550D01*
X1467Y54383D01*
Y54717D01*
X1966D02*
X2050Y54800D01*
X2216D01*
X2300Y54717D01*
Y54383D01*
X2216Y54300D01*
X2050D01*
X1966Y54383D01*
Y54717D01*
X2466Y54633D02*
Y54383D01*
X2550Y54300D01*
X2799D01*
Y54633D01*
X3299Y54800D02*
X2966D01*
Y54550D01*
X3133D01*
X2966D01*
Y54300D01*
X44013Y35220D02*
X43847D01*
X43930D01*
Y34803D01*
X43847Y34720D01*
X43763D01*
X43680Y34803D01*
X44180Y34720D02*
Y35220D01*
X44430D01*
X44513Y35137D01*
Y34970D01*
X44430Y34887D01*
X44180D01*
X45013Y34720D02*
X44680D01*
X45013Y35053D01*
Y35137D01*
X44930Y35220D01*
X44763D01*
X44680Y35137D01*
X28923Y3257D02*
X28840Y3340D01*
X28673D01*
X28590Y3257D01*
Y2923D01*
X28673Y2840D01*
X28840D01*
X28923Y2923D01*
X29090Y2840D02*
Y3340D01*
X29423Y2840D01*
Y3340D01*
X29590Y2840D02*
X29756D01*
X29673D01*
Y3340D01*
X29590Y3257D01*
X45740Y31020D02*
Y31520D01*
X45990D01*
X46073Y31437D01*
Y31270D01*
X45990Y31187D01*
X45740D01*
X46323Y31020D02*
X46490D01*
X46573Y31103D01*
Y31270D01*
X46490Y31353D01*
X46323D01*
X46240Y31270D01*
Y31103D01*
X46323Y31020D01*
X46740Y31353D02*
Y31103D01*
X46823Y31020D01*
X46906Y31103D01*
X46990Y31020D01*
X47073Y31103D01*
Y31353D01*
X47489Y31020D02*
X47323D01*
X47240Y31103D01*
Y31270D01*
X47323Y31353D01*
X47489D01*
X47573Y31270D01*
Y31187D01*
X47240D01*
X47739Y31353D02*
Y31020D01*
Y31187D01*
X47823Y31270D01*
X47906Y31353D01*
X47989D01*
X47750Y34093D02*
Y33760D01*
X47417Y34093D01*
X47333D01*
X47250Y34010D01*
Y33843D01*
X47333Y33760D01*
X47750Y34593D02*
Y34260D01*
X47417Y34593D01*
X47333D01*
X47250Y34510D01*
Y34343D01*
X47333Y34260D01*
Y34760D02*
X47250Y34843D01*
Y35010D01*
X47333Y35093D01*
X47667D01*
X47750Y35010D01*
Y34843D01*
X47667Y34760D01*
X47333D01*
X24500Y250D02*
X24667D01*
X24583D01*
Y750D01*
X24500Y667D01*
X24917Y250D02*
Y750D01*
X25083Y583D01*
X25250Y750D01*
Y250D01*
X25416Y750D02*
Y250D01*
Y500D01*
X25750D01*
Y750D01*
Y250D01*
X25916Y583D02*
X26249D01*
X25916Y250D01*
X26249D01*
X250Y22700D02*
Y23200D01*
X417Y23033D01*
X583Y23200D01*
Y22700D01*
X1000D02*
X833D01*
X750Y22783D01*
Y22950D01*
X833Y23033D01*
X1000D01*
X1083Y22950D01*
Y22867D01*
X750D01*
X1250Y22700D02*
Y23033D01*
X1333D01*
X1416Y22950D01*
Y22700D01*
Y22950D01*
X1500Y23033D01*
X1583Y22950D01*
Y22700D01*
X1833D02*
X1999D01*
X2083Y22783D01*
Y22950D01*
X1999Y23033D01*
X1833D01*
X1750Y22950D01*
Y22783D01*
X1833Y22700D01*
X2249Y23033D02*
Y22700D01*
Y22867D01*
X2333Y22950D01*
X2416Y23033D01*
X2499D01*
X2749D02*
Y22783D01*
X2833Y22700D01*
X3082D01*
Y22617D01*
X2999Y22533D01*
X2916D01*
X3082Y22700D02*
Y23033D01*
X42250Y37250D02*
X42417D01*
X42333D01*
Y36750D01*
X42250D01*
X42417D01*
X42667D02*
X43000Y37083D01*
X43416Y37250D02*
X43250D01*
X43166Y37167D01*
Y36833D01*
X43250Y36750D01*
X43416D01*
X43500Y36833D01*
Y37167D01*
X43416Y37250D01*
X44499Y37167D02*
X44416Y37250D01*
X44249D01*
X44166Y37167D01*
Y37083D01*
X44249Y37000D01*
X44416D01*
X44499Y36917D01*
Y36833D01*
X44416Y36750D01*
X44249D01*
X44166Y36833D01*
X44916Y36750D02*
X44749D01*
X44666Y36833D01*
Y37000D01*
X44749Y37083D01*
X44916D01*
X44999Y37000D01*
Y36917D01*
X44666D01*
X45166Y36750D02*
X45332D01*
X45249D01*
Y37250D01*
X45166D01*
X45832Y36750D02*
X45666D01*
X45582Y36833D01*
Y37000D01*
X45666Y37083D01*
X45832D01*
X45915Y37000D01*
Y36917D01*
X45582D01*
X46415Y37083D02*
X46165D01*
X46082Y37000D01*
Y36833D01*
X46165Y36750D01*
X46415D01*
X46665Y37167D02*
Y37083D01*
X46582D01*
X46749D01*
X46665D01*
Y36833D01*
X46749Y36750D01*
X500Y23900D02*
X333D01*
X250Y23817D01*
Y23483D01*
X333Y23400D01*
X500D01*
X583Y23483D01*
Y23817D01*
X500Y23900D01*
X750Y23400D02*
Y23733D01*
X1000D01*
X1083Y23650D01*
Y23400D01*
X1250Y23900D02*
Y23400D01*
X1500D01*
X1583Y23483D01*
Y23567D01*
Y23650D01*
X1500Y23733D01*
X1250D01*
X1833Y23400D02*
X1999D01*
X2083Y23483D01*
Y23650D01*
X1999Y23733D01*
X1833D01*
X1750Y23650D01*
Y23483D01*
X1833Y23400D01*
X2333Y23733D02*
X2499D01*
X2583Y23650D01*
Y23400D01*
X2333D01*
X2249Y23483D01*
X2333Y23567D01*
X2583D01*
X2749Y23733D02*
Y23400D01*
Y23567D01*
X2833Y23650D01*
X2916Y23733D01*
X2999D01*
X3582Y23900D02*
Y23400D01*
X3332D01*
X3249Y23483D01*
Y23650D01*
X3332Y23733D01*
X3582D01*
X340Y44800D02*
X507D01*
X423D01*
Y45300D01*
X340Y45217D01*
X30250Y24500D02*
X30083D01*
X30000Y24417D01*
Y24083D01*
X30083Y24000D01*
X30250D01*
X30333Y24083D01*
Y24417D01*
X30250Y24500D01*
X30500Y24000D02*
Y24500D01*
X30833Y24000D01*
Y24500D01*
X36600Y2300D02*
Y1967D01*
X36767Y1800D01*
X36933Y1967D01*
Y2300D01*
X37350Y1800D02*
X37183D01*
X37100Y1883D01*
Y2050D01*
X37183Y2133D01*
X37350D01*
X37433Y2050D01*
Y1967D01*
X37100D01*
X37600Y2133D02*
Y1800D01*
Y1967D01*
X37683Y2050D01*
X37766Y2133D01*
X37850D01*
X38100Y1800D02*
X38349D01*
X38433Y1883D01*
X38349Y1967D01*
X38183D01*
X38100Y2050D01*
X38183Y2133D01*
X38433D01*
X38599Y1800D02*
X38766D01*
X38683D01*
Y2133D01*
X38599D01*
X39099Y1800D02*
X39266D01*
X39349Y1883D01*
Y2050D01*
X39266Y2133D01*
X39099D01*
X39016Y2050D01*
Y1883D01*
X39099Y1800D01*
X39516D02*
Y2133D01*
X39766D01*
X39849Y2050D01*
Y1800D01*
X40515D02*
X40682D01*
X40599D01*
Y2300D01*
X40515Y2217D01*
X41432Y1800D02*
Y2300D01*
X41682D01*
X41765Y2217D01*
Y2050D01*
X41682Y1967D01*
X41432D01*
X41598D02*
X41765Y1800D01*
X42182D02*
X42015D01*
X41932Y1883D01*
Y2050D01*
X42015Y2133D01*
X42182D01*
X42265Y2050D01*
Y1967D01*
X41932D01*
X42431Y2133D02*
X42598Y1800D01*
X42765Y2133D01*
X43431Y1800D02*
X43598D01*
X43514D01*
Y2300D01*
X43431Y2217D01*
X3000Y22350D02*
X2833D01*
X2750Y22267D01*
Y21933D01*
X2833Y21850D01*
X3000D01*
X3083Y21933D01*
Y22267D01*
X3000Y22350D01*
X3250Y21850D02*
Y22350D01*
X3583Y21850D01*
Y22350D01*
X3750Y22017D02*
X4083D01*
X3750Y22183D02*
X4083D01*
X4583Y22350D02*
X4250D01*
Y21850D01*
X4583D01*
X4250Y22100D02*
X4416D01*
X4749Y21850D02*
Y22183D01*
X4999D01*
X5083Y22100D01*
Y21850D01*
X5332Y22183D02*
X5499D01*
X5582Y22100D01*
Y21850D01*
X5332D01*
X5249Y21933D01*
X5332Y22017D01*
X5582D01*
X5749Y22350D02*
Y21850D01*
X5999D01*
X6082Y21933D01*
Y22017D01*
Y22100D01*
X5999Y22183D01*
X5749D01*
X6249Y21850D02*
X6415D01*
X6332D01*
Y22350D01*
X6249D01*
X6915Y21850D02*
X6749D01*
X6665Y21933D01*
Y22100D01*
X6749Y22183D01*
X6915D01*
X6999Y22100D01*
Y22017D01*
X6665D01*
X42500Y34250D02*
X42333D01*
X42250Y34167D01*
Y33833D01*
X42333Y33750D01*
X42500D01*
X42583Y33833D01*
Y34167D01*
X42500Y34250D01*
X42750Y33750D02*
Y34250D01*
X43083Y33750D01*
Y34250D01*
X43250Y33917D02*
X43583D01*
X43250Y34083D02*
X43583D01*
X43750Y33750D02*
Y34250D01*
X43999D01*
X44083Y34167D01*
Y34000D01*
X43999Y33917D01*
X43750D01*
X43916D02*
X44083Y33750D01*
X44583Y34167D02*
X44499Y34250D01*
X44333D01*
X44249Y34167D01*
Y34083D01*
X44333Y34000D01*
X44499D01*
X44583Y33917D01*
Y33833D01*
X44499Y33750D01*
X44333D01*
X44249Y33833D01*
X45082Y33750D02*
X44749D01*
X45082Y34083D01*
Y34167D01*
X44999Y34250D01*
X44833D01*
X44749Y34167D01*
X45249D02*
X45332Y34250D01*
X45499D01*
X45582Y34167D01*
Y34083D01*
X45499Y34000D01*
X45416D01*
X45499D01*
X45582Y33917D01*
Y33833D01*
X45499Y33750D01*
X45332D01*
X45249Y33833D01*
X46082Y33750D02*
X45749D01*
X46082Y34083D01*
Y34167D01*
X45999Y34250D01*
X45832D01*
X45749Y34167D01*
X42000Y33500D02*
X41833D01*
X41750Y33417D01*
Y33083D01*
X41833Y33000D01*
X42000D01*
X42083Y33083D01*
Y33417D01*
X42000Y33500D01*
X42583D02*
X42250D01*
Y33250D01*
X42416D01*
X42250D01*
Y33000D01*
X43083Y33500D02*
X42750D01*
Y33250D01*
X42916D01*
X42750D01*
Y33000D01*
X43250Y33167D02*
X43583D01*
X43250Y33333D02*
X43583D01*
X43749Y33500D02*
Y33000D01*
Y33167D01*
X44083Y33500D01*
X43833Y33250D01*
X44083Y33000D01*
X44499D02*
X44332D01*
X44249Y33083D01*
Y33250D01*
X44332Y33333D01*
X44499D01*
X44582Y33250D01*
Y33167D01*
X44249D01*
X44749Y33333D02*
Y33083D01*
X44832Y33000D01*
X45082D01*
Y32917D01*
X44999Y32833D01*
X44916D01*
X45082Y33000D02*
Y33333D01*
X45249Y32833D02*
Y33333D01*
X45499D01*
X45582Y33250D01*
Y33083D01*
X45499Y33000D01*
X45249D01*
X45832Y33333D02*
X45999D01*
X46082Y33250D01*
Y33000D01*
X45832D01*
X45749Y33083D01*
X45832Y33167D01*
X46082D01*
X46582Y33500D02*
Y33000D01*
X46332D01*
X46249Y33083D01*
Y33250D01*
X46332Y33333D01*
X46582D01*
X28130Y8710D02*
X28297D01*
X28213D01*
Y9210D01*
X28130Y9127D01*
D15*
X27400Y57500D02*
G03*
X24643Y57500I-1379J243D01*
G01*
X31600D02*
G03*
X28843Y57500I-1379J243D01*
G01*
X35400D02*
G03*
X32643Y57500I-1379J243D01*
G01*
X39400D02*
G03*
X36643Y57500I-1379J243D01*
G01*
X43400D02*
G03*
X40643Y57500I-1379J243D01*
G01*
X46900D02*
G03*
X44143Y57500I-1379J243D01*
G01*
X11400Y50500D02*
G03*
X8643Y50500I-1379J243D01*
G01*
X11400Y48500D02*
G03*
X8643Y48500I-1379J243D01*
G01*
X11400Y46500D02*
G03*
X8643Y46500I-1379J243D01*
G01*
X22000Y17750D02*
G03*
X22000Y17250I0J-250D01*
G01*
X19000Y34250D02*
G03*
X19000Y33750I0J-250D01*
G01*
X17280Y40840D02*
G03*
X17280Y40340I0J-250D01*
G01*
X28000Y40750D02*
G03*
X28000Y40250I0J-250D01*
G01*
X22000Y7250D02*
G03*
X22000Y6750I0J-250D01*
G01*
X38500Y40750D02*
G03*
X38500Y40250I0J-250D01*
G01*
X37500Y34250D02*
G03*
X37500Y33750I0J-250D01*
G01*
X29000Y26750D02*
G03*
X29000Y26250I0J-250D01*
G01*
X29500Y18250D02*
G03*
X29500Y17750I0J-250D01*
G01*
X21000Y46750D02*
G03*
X21000Y46250I0J-250D01*
G01*
X47500Y40750D02*
G03*
X47500Y40250I0J-250D01*
G01*
X19000Y26250D02*
G03*
X19000Y25750I0J-250D01*
G01*
X4250Y54500D02*
G03*
X4250Y54500I-2000J0D01*
G01*
X45520Y31380D02*
G03*
X45520Y31380I-1020J0D01*
G01*
X28150Y3510D02*
Y8510D01*
Y3510D02*
X30150D01*
Y8510D01*
X28150D02*
X30150D01*
X2800Y58580D02*
Y59980D01*
Y58580D02*
X6800D01*
Y59980D01*
X2800D02*
X6800D01*
X15000Y1500D02*
Y2500D01*
X6000Y1500D02*
X15000D01*
X6000D02*
Y2500D01*
X15000D01*
X200Y44600D02*
X2600D01*
X200Y24400D02*
Y44600D01*
X2600Y24400D02*
Y44600D01*
X200Y24400D02*
X2600D01*
X600Y21400D02*
X2400D01*
Y22400D01*
X600D02*
X2400D01*
X600Y21400D02*
Y22400D01*
X24643Y57500D02*
X27400D01*
X28843D02*
X31600D01*
X32643D02*
X35400D01*
X36643D02*
X39400D01*
X40643D02*
X43400D01*
X44143D02*
X46900D01*
X8643Y50500D02*
X11400D01*
X8643Y48500D02*
X11400D01*
X8643Y46500D02*
X11400D01*
X45750Y49500D02*
Y56500D01*
Y49500D02*
X49750D01*
Y56500D01*
X45750D02*
X49750D01*
X2000Y19650D02*
X22000D01*
X2000Y15350D02*
Y19650D01*
Y15350D02*
X22000D01*
Y17250D01*
Y17750D02*
Y19650D01*
X19000Y34250D02*
Y36150D01*
Y31850D02*
Y33750D01*
X5000Y31850D02*
X19000D01*
X5000D02*
Y36150D01*
X19000D01*
X9280Y41240D02*
X17280D01*
X9280Y39940D02*
Y41240D01*
Y39940D02*
X17280D01*
Y40340D01*
Y40840D02*
Y41240D01*
X21000Y41150D02*
X28000D01*
X21000Y39850D02*
Y41150D01*
Y39850D02*
X28000D01*
Y40250D01*
Y40750D02*
Y41150D01*
X23110Y1000D02*
X26910D01*
X22510Y1600D02*
X23110Y1000D01*
X26910Y9000D02*
X27510Y8400D01*
X22510Y9000D02*
X26910D01*
X27510Y1600D02*
Y8400D01*
X22510Y1600D02*
Y9000D01*
X26910Y1000D02*
X27510Y1600D01*
X10650Y52800D02*
Y60000D01*
X7150Y52800D02*
Y60000D01*
Y52800D02*
X10622D01*
X7150Y60000D02*
X10650D01*
X31250Y24750D02*
X34250D01*
X31250Y23750D02*
X34250D01*
X31250D02*
Y24750D01*
X34250Y23775D02*
Y24750D01*
X22000Y7250D02*
Y9150D01*
Y4850D02*
Y6750D01*
X2000Y4850D02*
X22000D01*
X2000D02*
Y9150D01*
X22000D01*
X38500Y40750D02*
Y41150D01*
Y39850D02*
Y40250D01*
X30500Y39850D02*
X38500D01*
X30500D02*
Y41150D01*
X38500D01*
X37500Y34250D02*
Y34650D01*
Y33350D02*
Y33750D01*
X30500Y33350D02*
X37500D01*
X30500D02*
Y34650D01*
X37500D01*
X29000Y26750D02*
Y27150D01*
Y25850D02*
Y26250D01*
X21000Y25850D02*
X29000D01*
X21000D02*
Y27150D01*
X29000D01*
X29500Y18250D02*
Y18650D01*
Y17350D02*
Y17750D01*
X22500Y17350D02*
X29500D01*
X22500D02*
Y18650D01*
X29500D01*
X41750Y56500D02*
X45750D01*
Y49500D02*
Y56500D01*
X41750Y49500D02*
X45750D01*
X41750D02*
Y56500D01*
X36250D02*
X40250D01*
Y49500D02*
Y56500D01*
X36250Y49500D02*
X40250D01*
X36250D02*
Y56500D01*
X32250D02*
X36250D01*
Y49500D02*
Y56500D01*
X32250Y49500D02*
X36250D01*
X32250D02*
Y56500D01*
X28250D02*
X32250D01*
Y49500D02*
Y56500D01*
X28250Y49500D02*
X32250D01*
X28250D02*
Y56500D01*
X24250D02*
X28250D01*
Y49500D02*
Y56500D01*
X24250Y49500D02*
X28250D01*
X24250D02*
Y56500D01*
X21000Y46750D02*
Y47150D01*
Y45850D02*
Y46250D01*
X14000Y45850D02*
X21000D01*
X14000D02*
Y47150D01*
X21000D01*
X47500Y40750D02*
Y41150D01*
Y39850D02*
Y40250D01*
X40500Y39850D02*
X47500D01*
X40500D02*
Y41150D01*
X47500D01*
X5000Y28150D02*
X19000D01*
X5000Y23850D02*
Y28150D01*
Y23850D02*
X19000D01*
Y25750D01*
Y26250D02*
Y28150D01*
X2550Y883D02*
Y483D01*
X2683Y350D01*
X2817Y483D01*
X2950Y350D01*
X3083Y483D01*
Y883D01*
X3350D02*
Y483D01*
X3483Y350D01*
X3616Y483D01*
X3750Y350D01*
X3883Y483D01*
Y883D01*
X4149D02*
Y483D01*
X4283Y350D01*
X4416Y483D01*
X4549Y350D01*
X4683Y483D01*
Y883D01*
X4949Y350D02*
Y483D01*
X5083D01*
Y350D01*
X4949D01*
X5616Y1150D02*
Y350D01*
X6016D01*
X6149Y483D01*
Y617D01*
Y750D01*
X6016Y883D01*
X5616D01*
X6415D02*
Y350D01*
Y617D01*
X6549Y750D01*
X6682Y883D01*
X6815D01*
X7215Y350D02*
X7482D01*
X7348D01*
Y883D01*
X7215D01*
X8281Y350D02*
X8015D01*
X7882Y483D01*
Y750D01*
X8015Y883D01*
X8281D01*
X8415Y750D01*
Y617D01*
X7882D01*
X8681Y350D02*
X8948D01*
X8815D01*
Y1150D01*
X8681D01*
X9881Y883D02*
X9481D01*
X9348Y750D01*
Y483D01*
X9481Y350D01*
X9881D01*
X10281D02*
X10547D01*
X10681Y483D01*
Y750D01*
X10547Y883D01*
X10281D01*
X10148Y750D01*
Y483D01*
X10281Y350D01*
X10947D02*
Y883D01*
X11081D01*
X11214Y750D01*
Y350D01*
Y750D01*
X11347Y883D01*
X11480Y750D01*
Y350D01*
X11747Y83D02*
Y883D01*
X12147D01*
X12280Y750D01*
Y483D01*
X12147Y350D01*
X11747D01*
X12547Y883D02*
Y483D01*
X12680Y350D01*
X13080D01*
Y883D01*
X13480Y1016D02*
Y883D01*
X13347D01*
X13613D01*
X13480D01*
Y483D01*
X13613Y350D01*
X14413D02*
X14146D01*
X14013Y483D01*
Y750D01*
X14146Y883D01*
X14413D01*
X14546Y750D01*
Y617D01*
X14013D01*
X14813Y883D02*
Y350D01*
Y617D01*
X14946Y750D01*
X15079Y883D01*
X15213D01*
X15612Y350D02*
X16012D01*
X16146Y483D01*
X16012Y617D01*
X15746D01*
X15612Y750D01*
X15746Y883D01*
X16146D01*
X16412Y350D02*
Y483D01*
X16545D01*
Y350D01*
X16412D01*
X17612Y883D02*
X17212D01*
X17079Y750D01*
Y483D01*
X17212Y350D01*
X17612D01*
X18012D02*
X18278D01*
X18412Y483D01*
Y750D01*
X18278Y883D01*
X18012D01*
X17878Y750D01*
Y483D01*
X18012Y350D01*
X18678D02*
Y883D01*
X18811D01*
X18945Y750D01*
Y350D01*
Y750D01*
X19078Y883D01*
X19211Y750D01*
Y350D01*
X1200Y55600D02*
X1600D01*
X1400Y55800D02*
Y55400D01*
X43750Y31850D02*
X44150D01*
X43950Y32050D02*
Y31650D01*
D43*
X1321Y50900D02*
G03*
X1321Y50900I-98J0D01*
G01*
D44*
X21488Y62089D02*
G03*
X21215Y62362I-274J0D01*
G01*
X21490Y60276D02*
G03*
X21764Y60002I274J0D01*
G01*
X14785Y62362D02*
G03*
X14512Y62089I0J-274D01*
G01*
X14236Y60002D02*
G03*
X14510Y60276I0J274D01*
G01*
X40000Y35700D02*
Y36100D01*
Y32900D02*
Y33300D01*
X40400D02*
Y35700D01*
X39600D02*
X40400D01*
X39600Y33300D02*
Y35700D01*
Y33300D02*
X40400D01*
X27449Y35043D02*
X28551D01*
Y32957D02*
Y35043D01*
X27449Y32957D02*
Y35043D01*
X18000Y52700D02*
Y53100D01*
Y49900D02*
Y50300D01*
X18400D02*
Y52700D01*
X17600D02*
X18400D01*
X17600Y50300D02*
Y52700D01*
Y50300D02*
X18400D01*
X339Y46441D02*
Y51559D01*
Y46441D02*
X8012D01*
Y51559D01*
X339D02*
X8012D01*
X21490Y60276D02*
Y62087D01*
X14510Y60276D02*
Y62087D01*
X15244Y55118D02*
Y58819D01*
X11937Y60000D02*
X24063D01*
X20756Y55118D02*
Y58819D01*
X11937Y55118D02*
X24063D01*
X14785Y62362D02*
X21215D01*
X11937Y55118D02*
Y60000D01*
X24063Y55118D02*
Y60000D01*
X11937Y58819D02*
X24063D01*
X16800Y1100D02*
Y1900D01*
X19200D01*
Y1100D02*
Y1900D01*
X16800Y1100D02*
X19200D01*
X16400Y1500D02*
X16800D01*
X19200D02*
X19600D01*
X18900Y11500D02*
X19300D01*
X21700D02*
X22100D01*
X19300Y11900D02*
X21700D01*
X19300Y11100D02*
Y11900D01*
Y11100D02*
X21700D01*
Y11900D01*
X16800Y2100D02*
Y2900D01*
X19200D01*
Y2100D02*
Y2900D01*
X16800Y2100D02*
X19200D01*
X16400Y2500D02*
X16800D01*
X19200D02*
X19600D01*
X28000Y11900D02*
Y12300D01*
Y14700D02*
Y15100D01*
X27600Y12300D02*
Y14700D01*
Y12300D02*
X28400D01*
Y14700D01*
X27600D02*
X28400D01*
X31340Y30630D02*
Y31430D01*
X33740D01*
Y30630D02*
Y31430D01*
X31340Y30630D02*
X33740D01*
X30940Y31030D02*
X31340D01*
X33740D02*
X34140D01*
X27000Y44900D02*
Y45300D01*
Y47700D02*
Y48100D01*
X26600Y45300D02*
Y47700D01*
Y45300D02*
X27400D01*
Y47700D01*
X26600D02*
X27400D01*
X25600D02*
X26400D01*
Y45300D02*
Y47700D01*
X25600Y45300D02*
X26400D01*
X25600D02*
Y47700D01*
X26000D02*
Y48100D01*
Y44900D02*
Y45300D01*
X30000Y44900D02*
Y45300D01*
Y47700D02*
Y48100D01*
X29600Y45300D02*
Y47700D01*
Y45300D02*
X30400D01*
Y47700D01*
X29600D02*
X30400D01*
X28600D02*
X29400D01*
Y45300D02*
Y47700D01*
X28600Y45300D02*
X29400D01*
X28600D02*
Y47700D01*
X29000D02*
Y48100D01*
Y44900D02*
Y45300D01*
X35000Y44900D02*
Y45300D01*
Y47700D02*
Y48100D01*
X34600Y45300D02*
Y47700D01*
Y45300D02*
X35400D01*
Y47700D01*
X34600D02*
X35400D01*
X33600D02*
X34400D01*
Y45300D02*
Y47700D01*
X33600Y45300D02*
X34400D01*
X33600D02*
Y47700D01*
X34000D02*
Y48100D01*
Y44900D02*
Y45300D01*
X38000Y44900D02*
Y45300D01*
Y47700D02*
Y48100D01*
X37600Y45300D02*
Y47700D01*
Y45300D02*
X38400D01*
Y47700D01*
X37600D02*
X38400D01*
X36600D02*
X37400D01*
Y45300D02*
Y47700D01*
X36600Y45300D02*
X37400D01*
X36600D02*
Y47700D01*
X37000D02*
Y48100D01*
Y44900D02*
Y45300D01*
X41500Y44900D02*
Y45300D01*
Y47700D02*
Y48100D01*
X41100Y45300D02*
Y47700D01*
Y45300D02*
X41900D01*
Y47700D01*
X41100D02*
X41900D01*
X40100D02*
X40900D01*
Y45300D02*
Y47700D01*
X40100Y45300D02*
X40900D01*
X40100D02*
Y47700D01*
X40500D02*
Y48100D01*
Y44900D02*
Y45300D01*
X46500Y44900D02*
Y45300D01*
Y47700D02*
Y48100D01*
X46100Y45300D02*
Y47700D01*
Y45300D02*
X46900D01*
Y47700D01*
X46100D02*
X46900D01*
X45100D02*
X45900D01*
Y45300D02*
Y47700D01*
X45100Y45300D02*
X45900D01*
X45100D02*
Y47700D01*
X45500D02*
Y48100D01*
Y44900D02*
Y45300D01*
X24500Y35200D02*
Y35600D01*
Y32400D02*
Y32800D01*
X24900D02*
Y35200D01*
X24100D02*
X24900D01*
X24100Y32800D02*
Y35200D01*
Y32800D02*
X24900D01*
X22100D02*
X22900D01*
X22100D02*
Y35200D01*
X22900D01*
Y32800D02*
Y35200D01*
X22500Y32400D02*
Y32800D01*
Y35200D02*
Y35600D01*
X25500Y35200D02*
Y35600D01*
Y32400D02*
Y32800D01*
X25900D02*
Y35200D01*
X25100D02*
X25900D01*
X25100Y32800D02*
Y35200D01*
Y32800D02*
X25900D01*
X23100Y35200D02*
X23900D01*
Y32800D02*
Y35200D01*
X23100Y32800D02*
X23900D01*
X23100D02*
Y35200D01*
X23500D02*
Y35600D01*
Y32400D02*
Y32800D01*
X48500Y47700D02*
Y48100D01*
Y44900D02*
Y45300D01*
X48900D02*
Y47700D01*
X48100D02*
X48900D01*
X48100Y45300D02*
Y47700D01*
Y45300D02*
X48900D01*
X44100D02*
X44900D01*
X44100D02*
Y47700D01*
X44900D01*
Y45300D02*
Y47700D01*
X44500Y44900D02*
Y45300D01*
Y47700D02*
Y48100D01*
X42500Y47700D02*
Y48100D01*
Y44900D02*
Y45300D01*
X42900D02*
Y47700D01*
X42100D02*
X42900D01*
X42100Y45300D02*
Y47700D01*
Y45300D02*
X42900D01*
X30600D02*
X31400D01*
X30600D02*
Y47700D01*
X31400D01*
Y45300D02*
Y47700D01*
X31000Y44900D02*
Y45300D01*
Y47700D02*
Y48100D01*
X39500Y47700D02*
Y48100D01*
Y44900D02*
Y45300D01*
X39900D02*
Y47700D01*
X39100D02*
X39900D01*
X39100Y45300D02*
Y47700D01*
Y45300D02*
X39900D01*
X43100D02*
X43900D01*
X43100D02*
Y47700D01*
X43900D01*
Y45300D02*
Y47700D01*
X43500Y44900D02*
Y45300D01*
Y47700D02*
Y48100D01*
X47500Y47700D02*
Y48100D01*
Y44900D02*
Y45300D01*
X47900D02*
Y47700D01*
X47100D02*
X47900D01*
X47100Y45300D02*
Y47700D01*
Y45300D02*
X47900D01*
X23600D02*
X24400D01*
X23600D02*
Y47700D01*
X24400D01*
Y45300D02*
Y47700D01*
X24000Y44900D02*
Y45300D01*
Y47700D02*
Y48100D01*
X26400Y22000D02*
X26800D01*
X29200D02*
X29600D01*
X26800Y22400D02*
X29200D01*
X26800Y21600D02*
Y22400D01*
Y21600D02*
X29200D01*
Y22400D01*
X48100Y33300D02*
X48900D01*
X48100D02*
Y35700D01*
X48900D01*
Y33300D02*
Y35700D01*
X48500Y32900D02*
Y33300D01*
Y35700D02*
Y36100D01*
X16000Y49900D02*
Y50300D01*
Y52700D02*
Y53100D01*
X15600Y50300D02*
Y52700D01*
Y50300D02*
X16400D01*
Y52700D01*
X15600D02*
X16400D01*
X26100Y32800D02*
X26900D01*
X26100D02*
Y35200D01*
X26900D01*
Y32800D02*
Y35200D01*
X26500Y32400D02*
Y32800D01*
Y35200D02*
Y35600D01*
X15000Y52700D02*
Y53100D01*
Y49900D02*
Y50300D01*
X15400D02*
Y52700D01*
X14600D02*
X15400D01*
X14600Y50300D02*
Y52700D01*
Y50300D02*
X15400D01*
X16600D02*
X17400D01*
X16600D02*
Y52700D01*
X17400D01*
Y50300D02*
Y52700D01*
X17000Y49900D02*
Y50300D01*
Y52700D02*
Y53100D01*
X21000Y52700D02*
Y53100D01*
Y49900D02*
Y50300D01*
X21400D02*
Y52700D01*
X20600D02*
X21400D01*
X20600Y50300D02*
Y52700D01*
Y50300D02*
X21400D01*
X12600Y47700D02*
X13400D01*
Y45300D02*
Y47700D01*
X12600Y45300D02*
X13400D01*
X12600D02*
Y47700D01*
X13000D02*
Y48100D01*
Y44900D02*
Y45300D01*
X14000Y49900D02*
Y50300D01*
Y52700D02*
Y53100D01*
X13600Y50300D02*
Y52700D01*
Y50300D02*
X14400D01*
Y52700D01*
X13600D02*
X14400D01*
X19600Y50300D02*
X20400D01*
X19600D02*
Y52700D01*
X20400D01*
Y50300D02*
Y52700D01*
X20000Y49900D02*
Y50300D01*
Y52700D02*
Y53100D01*
X13000Y49900D02*
Y50300D01*
Y52700D02*
Y53100D01*
X12600Y50300D02*
Y52700D01*
Y50300D02*
X13400D01*
Y52700D01*
X12600D02*
X13400D01*
X8732Y45126D02*
Y45874D01*
X10268D01*
X8732Y45126D02*
X10268D01*
X43500Y36500D02*
X45500D01*
X43500Y35500D02*
Y36500D01*
Y35500D02*
X45500D01*
Y36500D01*
X47100Y35700D02*
X47900D01*
Y33300D02*
Y35700D01*
X47100Y33300D02*
X47900D01*
X47100D02*
Y35700D01*
X47500D02*
Y36100D01*
Y32900D02*
Y33300D01*
D45*
X41760Y25220D02*
X43770D01*
X41760Y23460D02*
X43770D01*
X43790D02*
Y25230D01*
X41760Y23460D02*
Y25220D01*
X43770Y23460D02*
X43790Y23480D01*
X33770Y3460D02*
X33790Y3480D01*
X31760Y3460D02*
Y5220D01*
X33790Y3460D02*
Y5230D01*
X31760Y3460D02*
X33770D01*
X31760Y5220D02*
X33770D01*
X36760D02*
X38770D01*
X36760Y3460D02*
X38770D01*
X38790D02*
Y5230D01*
X36760Y3460D02*
Y5220D01*
X38770Y3460D02*
X38790Y3480D01*
X43770Y3460D02*
X43790Y3480D01*
X41760Y3460D02*
Y5220D01*
X43790Y3460D02*
Y5230D01*
X41760Y3460D02*
X43770D01*
X41760Y5220D02*
X43770D01*
X46760D02*
X48770D01*
X46760Y3460D02*
X48770D01*
X48790D02*
Y5230D01*
X46760Y3460D02*
Y5220D01*
X48770Y3460D02*
X48790Y3480D01*
X33770Y7460D02*
X33790Y7480D01*
X31760Y7460D02*
Y9220D01*
X33790Y7460D02*
Y9230D01*
X31760Y7460D02*
X33770D01*
X31760Y9220D02*
X33770D01*
X36760D02*
X38770D01*
X36760Y7460D02*
X38770D01*
X38790D02*
Y9230D01*
X36760Y7460D02*
Y9220D01*
X38770Y7460D02*
X38790Y7480D01*
X43770Y7460D02*
X43790Y7480D01*
X41760Y7460D02*
Y9220D01*
X43790Y7460D02*
Y9230D01*
X41760Y7460D02*
X43770D01*
X41760Y9220D02*
X43770D01*
X46760Y25220D02*
X48770D01*
X46760Y23460D02*
X48770D01*
X48790D02*
Y25230D01*
X46760Y23460D02*
Y25220D01*
X48770Y23460D02*
X48790Y23480D01*
X48770Y7460D02*
X48790Y7480D01*
X46760Y7460D02*
Y9220D01*
X48790Y7460D02*
Y9230D01*
X46760Y7460D02*
X48770D01*
X46760Y9220D02*
X48770D01*
X31760Y13220D02*
X33770D01*
X31760Y11460D02*
X33770D01*
X33790D02*
Y13230D01*
X31760Y11460D02*
Y13220D01*
X33770Y11460D02*
X33790Y11480D01*
X38770Y11460D02*
X38790Y11480D01*
X36760Y11460D02*
Y13220D01*
X38790Y11460D02*
Y13230D01*
X36760Y11460D02*
X38770D01*
X36760Y13220D02*
X38770D01*
X41760D02*
X43770D01*
X41760Y11460D02*
X43770D01*
X43790D02*
Y13230D01*
X41760Y11460D02*
Y13220D01*
X43770Y11460D02*
X43790Y11480D01*
X48770Y11460D02*
X48790Y11480D01*
X46760Y11460D02*
Y13220D01*
X48790Y11460D02*
Y13230D01*
X46760Y11460D02*
X48770D01*
X46760Y13220D02*
X48770D01*
X31760Y17220D02*
X33770D01*
X31760Y15460D02*
X33770D01*
X33790D02*
Y17230D01*
X31760Y15460D02*
Y17220D01*
X33770Y15460D02*
X33790Y15480D01*
X38770Y15460D02*
X38790Y15480D01*
X36760Y15460D02*
Y17220D01*
X38790Y15460D02*
Y17230D01*
X36760Y15460D02*
X38770D01*
X36760Y17220D02*
X38770D01*
X41760D02*
X43770D01*
X41760Y15460D02*
X43770D01*
X43790D02*
Y17230D01*
X41760Y15460D02*
Y17220D01*
X43770Y15460D02*
X43790Y15480D01*
X48770Y15460D02*
X48790Y15480D01*
X46760Y15460D02*
Y17220D01*
X48790Y15460D02*
Y17230D01*
X46760Y15460D02*
X48770D01*
X46760Y17220D02*
X48770D01*
X31760Y21220D02*
X33770D01*
X31760Y19460D02*
X33770D01*
X33790D02*
Y21230D01*
X31760Y19460D02*
Y21220D01*
X33770Y19460D02*
X33790Y19480D01*
X38770Y19460D02*
X38790Y19480D01*
X36760Y19460D02*
Y21220D01*
X38790Y19460D02*
Y21230D01*
X36760Y19460D02*
X38770D01*
X36760Y21220D02*
X38770D01*
X46760D02*
X48770D01*
X46760Y19460D02*
X48770D01*
X48790D02*
Y21230D01*
X46760Y19460D02*
Y21220D01*
X48770Y19460D02*
X48790Y19480D01*
X38770Y23460D02*
X38790Y23480D01*
X36760Y23460D02*
Y25220D01*
X38790Y23460D02*
Y25230D01*
X36760Y23460D02*
X38770D01*
X36760Y25220D02*
X38770D01*
X41760Y21220D02*
X43770D01*
X41760Y19460D02*
X43770D01*
X43790D02*
Y21230D01*
X41760Y19460D02*
Y21220D01*
X43770Y19460D02*
X43790Y19480D01*
D46*
X32313Y25746D02*
X32180Y25880D01*
X31913D01*
X31780Y25746D01*
Y25613D01*
X31913Y25480D01*
X32180D01*
X32313Y25347D01*
Y25213D01*
X32180Y25080D01*
X31913D01*
X31780Y25213D01*
X33113Y25746D02*
X32980Y25880D01*
X32713D01*
X32580Y25746D01*
Y25613D01*
X32713Y25480D01*
X32980D01*
X33113Y25347D01*
Y25213D01*
X32980Y25080D01*
X32713D01*
X32580Y25213D01*
X33379Y25880D02*
X33913D01*
X33646D01*
Y25080D01*
X42260Y22000D02*
Y22800D01*
X42660D01*
X42793Y22666D01*
Y22400D01*
X42660Y22267D01*
X42260D01*
X43593Y22666D02*
X43460Y22800D01*
X43193D01*
X43060Y22666D01*
Y22133D01*
X43193Y22000D01*
X43460D01*
X43593Y22133D01*
X37713Y26666D02*
X37580Y26800D01*
X37313D01*
X37180Y26666D01*
Y26133D01*
X37313Y26000D01*
X37580D01*
X37713Y26133D01*
Y26400D01*
X37447D01*
X38380Y26800D02*
X38113D01*
X37980Y26666D01*
Y26133D01*
X38113Y26000D01*
X38380D01*
X38513Y26133D01*
Y26666D01*
X38380Y26800D01*
X37150Y22800D02*
Y22000D01*
X37550D01*
X37683Y22133D01*
Y22666D01*
X37550Y22800D01*
X37150D01*
X37950Y22000D02*
Y22533D01*
X38216Y22800D01*
X38483Y22533D01*
Y22000D01*
Y22400D01*
X37950D01*
X32110Y22000D02*
Y22533D01*
X32377Y22800D01*
X32643Y22533D01*
Y22000D01*
Y22400D01*
X32110D01*
X32910Y22800D02*
Y22000D01*
X33310D01*
X33443Y22133D01*
Y22666D01*
X33310Y22800D01*
X32910D01*
X48283Y18800D02*
X47750D01*
Y18400D01*
X48017D01*
X47750D01*
Y18000D01*
X43123Y18800D02*
X42590D01*
Y18000D01*
X43123D01*
X42590Y18400D02*
X42857D01*
X37480Y18800D02*
Y18000D01*
X37880D01*
X38013Y18133D01*
Y18666D01*
X37880Y18800D01*
X37480D01*
X33063Y18506D02*
X32930Y18640D01*
X32663D01*
X32530Y18506D01*
Y17973D01*
X32663Y17840D01*
X32930D01*
X33063Y17973D01*
X47590Y14800D02*
Y14000D01*
X47990D01*
X48123Y14133D01*
Y14267D01*
X47990Y14400D01*
X47590D01*
X47990D01*
X48123Y14533D01*
Y14666D01*
X47990Y14800D01*
X47590D01*
X42540Y14000D02*
Y14533D01*
X42807Y14800D01*
X43073Y14533D01*
Y14000D01*
Y14400D01*
X42540D01*
X37510Y14133D02*
X37643Y14000D01*
X37910D01*
X38043Y14133D01*
Y14666D01*
X37910Y14800D01*
X37643D01*
X37510Y14666D01*
Y14533D01*
X37643Y14400D01*
X38043D01*
X32530Y14666D02*
X32663Y14800D01*
X32930D01*
X33063Y14666D01*
Y14533D01*
X32930Y14400D01*
X33063Y14267D01*
Y14133D01*
X32930Y14000D01*
X32663D01*
X32530Y14133D01*
Y14267D01*
X32663Y14400D01*
X32530Y14533D01*
Y14666D01*
X32663Y14400D02*
X32930D01*
X47540Y10800D02*
X48073D01*
Y10666D01*
X47540Y10133D01*
Y10000D01*
X47240Y26000D02*
Y26800D01*
X47640D01*
X47773Y26666D01*
Y26400D01*
X47640Y26267D01*
X47240D01*
X47507D02*
X47773Y26000D01*
X48573Y26666D02*
X48440Y26800D01*
X48173D01*
X48040Y26666D01*
Y26533D01*
X48173Y26400D01*
X48440D01*
X48573Y26267D01*
Y26133D01*
X48440Y26000D01*
X48173D01*
X48040Y26133D01*
X43073Y10800D02*
X42807Y10666D01*
X42540Y10400D01*
Y10133D01*
X42673Y10000D01*
X42940D01*
X43073Y10133D01*
Y10267D01*
X42940Y10400D01*
X42540D01*
X38073Y10800D02*
X37540D01*
Y10400D01*
X37807Y10533D01*
X37940D01*
X38073Y10400D01*
Y10133D01*
X37940Y10000D01*
X37673D01*
X37540Y10133D01*
X32930Y10000D02*
Y10800D01*
X32530Y10400D01*
X33063D01*
X47540Y6666D02*
X47673Y6800D01*
X47940D01*
X48073Y6666D01*
Y6533D01*
X47940Y6400D01*
X47807D01*
X47940D01*
X48073Y6267D01*
Y6133D01*
X47940Y6000D01*
X47673D01*
X47540Y6133D01*
X43073Y6000D02*
X42540D01*
X43073Y6533D01*
Y6666D01*
X42940Y6800D01*
X42673D01*
X42540Y6666D01*
X37630Y6000D02*
X37897D01*
X37763D01*
Y6800D01*
X37630Y6666D01*
X32530D02*
X32663Y6800D01*
X32930D01*
X33063Y6666D01*
Y6133D01*
X32930Y6000D01*
X32663D01*
X32530Y6133D01*
Y6666D01*
X42793Y26666D02*
X42660Y26800D01*
X42393D01*
X42260Y26666D01*
Y26533D01*
X42393Y26400D01*
X42660D01*
X42793Y26267D01*
Y26133D01*
X42660Y26000D01*
X42393D01*
X42260Y26133D01*
X43060Y26800D02*
X43593D01*
X43326D01*
Y26000D01*
D47*
X47510Y22500D02*
X48176D01*
X47843Y22833D02*
Y22167D01*
D48*
X36100Y800D02*
Y1300D01*
X36267Y1133D01*
X36433Y1300D01*
Y800D01*
X36683Y1133D02*
X36850D01*
X36933Y1050D01*
Y800D01*
X36683D01*
X36600Y883D01*
X36683Y967D01*
X36933D01*
X37433Y1300D02*
Y800D01*
X37183D01*
X37100Y883D01*
Y1050D01*
X37183Y1133D01*
X37433D01*
X37849Y800D02*
X37683D01*
X37600Y883D01*
Y1050D01*
X37683Y1133D01*
X37849D01*
X37933Y1050D01*
Y967D01*
X37600D01*
X38599Y800D02*
X38766D01*
X38682D01*
Y1133D01*
X38599D01*
X39016Y800D02*
Y1133D01*
X39266D01*
X39349Y1050D01*
Y800D01*
X40099Y1217D02*
Y1133D01*
X40015D01*
X40182D01*
X40099D01*
Y883D01*
X40182Y800D01*
X40432Y1300D02*
Y800D01*
Y1050D01*
X40515Y1133D01*
X40682D01*
X40765Y1050D01*
Y800D01*
X41182D02*
X41015D01*
X40932Y883D01*
Y1050D01*
X41015Y1133D01*
X41182D01*
X41265Y1050D01*
Y967D01*
X40932D01*
X41931Y1300D02*
Y883D01*
X42015Y800D01*
X42181D01*
X42265Y883D01*
Y1300D01*
X42431Y800D02*
Y883D01*
X42515D01*
Y800D01*
X42431D01*
X43181Y1217D02*
X43098Y1300D01*
X42931D01*
X42848Y1217D01*
Y1133D01*
X42931Y1050D01*
X43098D01*
X43181Y967D01*
Y883D01*
X43098Y800D01*
X42931D01*
X42848Y883D01*
X43348Y800D02*
Y883D01*
X43431D01*
Y800D01*
X43348D01*
X43764D02*
Y1133D01*
X43931Y1300D01*
X44097Y1133D01*
Y800D01*
Y1050D01*
X43764D01*
X44264Y800D02*
Y883D01*
X44347D01*
Y800D01*
X44264D01*
D49*
X6450Y2750D02*
Y2867D01*
X6567D01*
Y2750D01*
X6450D01*
D50*
X16561Y58632D02*
X16364Y58533D01*
X16167Y58337D01*
Y58140D01*
X16266Y58041D01*
X16463D01*
X16561Y58140D01*
Y58238D01*
X16463Y58337D01*
X16167D01*
X19439Y58140D02*
X19537Y58041D01*
X19734D01*
X19833Y58140D01*
Y58533D01*
X19734Y58632D01*
X19537D01*
X19439Y58533D01*
Y58435D01*
X19537Y58337D01*
X19833D01*
X20378Y54931D02*
X19984D01*
Y54636D01*
X20181Y54734D01*
X20279D01*
X20378Y54636D01*
Y54439D01*
X20279Y54341D01*
X20083D01*
X19984Y54439D01*
X15720Y54341D02*
X15917D01*
X15819D01*
Y54931D01*
X15720Y54833D01*
D51*
X27999Y33077D02*
D03*
D52*
X10150Y45500D02*
D03*
M02*
