M48
;Layer_Color=0
;FILE_FORMAT=2:4
INCH,TZ
;TYPE=PLATED
T1F00S00C0.0150
T2F00S00C0.0250
T3F00S00C0.0276
T4F00S00C0.0280
T5F00S00C0.0290
T6F00S00C0.0300
T7F00S00C0.0330
T8F00S00C0.0335
T9F00S00C0.0350
T10F00S00C0.0354
T11F00S00C0.0429
T12F00S00C0.0460
T13F00S00C0.0472
T14F00S00C0.0530
T15F00S00C0.1100
T16F00S00C0.1150
T17F00S00C0.1283
T18F00S00C0.1300
%
T01
X2500Y11550
X6210Y11650
X9190Y11090
X9000Y15960
X8920Y16710
X8500Y16330
X7900Y15600
X12800Y15330
X14510Y16710
X15500Y16800
X16500Y16740
X18080
X20500Y15960
X21500Y15600
X22020Y13870
X21980Y13470
X20500Y13130
X17540Y12610
X16930Y13130
X16910Y8760
X15550Y9020
X11940Y7460
X27320Y6520
Y3720
X27670Y2840
X29170Y5510
X33600Y6500
Y4000
X35700Y4900
X40200Y6000
X42000Y8100
X37800Y12200
X37240Y12470
X33250Y12850
X29750Y13180
X28000Y13470
X27350Y10830
X30640Y10550
X47280Y10480
X47170Y8100
X47160Y4060
X45710Y22000
X43430Y20120
X42950Y24000
X36000Y27010
X35500Y27700
X35060Y30180
X33000
X32500Y26500
X31690Y25930
X30300Y21200
X30630Y20480
X29750Y17910
X32200
X35660Y18710
X25240Y20480
Y21610
X25090Y23800
X24500Y26230
X25500Y30140
X22500
X20780Y32200
X19480Y31250
X20560Y28170
X17360Y26940
X16260Y27590
X16290Y24980
X16510Y24410
X17680Y24420
X18850Y24810
X20500Y21910
X17500Y21290
X15500Y21630
X15210Y22200
X13620Y21910
X13500Y24120
Y25810
X12930Y25500
X11970Y25290
X12100Y23720
X11500Y21520
X13150Y18500
X14500Y18320
X17800Y17570
X18500Y18000
X15200Y32200
X6500Y32160
X6910Y26000
X6250Y25500
X6300Y25000
X7230Y24410
X7500Y22200
X7430Y21300
X9100
X9680Y22200
X10590Y21900
X10600Y21360
X10500Y18790
X11050Y19090
X11100Y18000
X4400Y18500
X4490Y17120
X2870Y17570
X3370Y19080
X5400Y21630
X6500Y22190
X2810Y24110
X3390Y25500
X930Y26000
X10080Y25810
X10500Y24980
X8900Y32520
X7510Y33100
X8090Y34310
X5900Y35000
X4900Y34500
X4500Y35720
X3940Y36000
X3700Y35420
X3090Y35540
X2810Y37000
X5500Y32510
X4240Y43000
X3240Y45000
X8600Y42500
X9000Y42000
X10320Y43120
X11290Y43450
X11280Y43980
X12280Y43740
X12300Y40770
X13300Y40500
X14260Y40000
X15520Y40030
X15170Y41300
X15500Y43740
X18500Y43450
X19500Y43500
X21000
X23000Y42780
X23500Y44010
X18000Y46390
X13550Y47240
X11300Y41100
X11990Y36000
X13040Y36090
X15030Y37890
X15970Y37740
X16950Y34000
X18020Y33560
X14910Y33100
X23990Y33520
X25500Y34690
X27080Y34400
X33500Y34010
X35860Y36530
X35510Y38150
X37580Y39850
X41580Y40610
X41400Y37200
X33000Y40510
X32000Y40140
X33000Y43290
X34010Y43030
X30510Y43850
X44520Y40910
X44470Y37740
X47000
X44500Y55500
X43500Y54510
X39010Y53990
X35000Y54000
X31200
X27000
X25030Y49090
T02
X4500Y47500
X5500
X6500
Y48500
X5500
X4500
Y49500
X5500
X6500
Y50500
X5500
X4500
T03
X44500Y30900
Y31900
T04
X4030Y59280
X4820
X5610
T05
X2500Y4000
X3500
X4500
X5500
X6500
X7500
X8500
X9500
X10500
Y10000
X9500
X8500
X7500
X6500
X5500
X4500
X3500
X2500
Y14500
X3500
X4500
X5500
X6500
X7500
X8500
X9500
X10500
X11500
X12500
X13500
X14500
X15500
X16500
X17500
X18500
X19500
X20500
X21500
X23000Y16500
X24000
X25000
X26000
X21500Y10000
X20500
X19500
X18500
X17500
X16500
X15500
X14500
X13500
X12500
X11500
Y4000
X12500
X13500
X14500
X15500
X16500
X17500
X18500
X19500
X20500
X21500
X27000Y16500
X28000
X29000
Y19500
X28000
X27000
X27500Y25000
X28500
Y28000
X27500
X26500
X25500
X24500
X23500
X22500
X21500
Y25000
X22500
X23500
X24500
X25500
X26500
X26000Y19500
X25000
X24000
X23000
X21500Y20500
X20500
X19500
X18500
X17500
X16500
X15500
X14500
X13500
X12500
X11500
Y23000
X12500
X13500
X14500
X15500
X16500
X17500
X18500
Y29000
X17500
X16500
X15500
X14500
X13500
X12500
X11500
Y31000
X12500
X13500
X14500
X15500
X16500
X17500
X18500
X10500
X9500
X8500
X7500
X6500
X5500
Y29000
X6500
X7500
X8500
X9500
X10500
Y23000
X9500
X8500
X7500
X6500
X5500
Y20500
X4500
X3500
X2500
X6500
X7500
X8500
X9500
X10500
Y37000
X9500
X8500
X7500
X6500
X5500
X9780Y39090
X10780
Y42090
X9780
X10000Y47000
X9000
X11000
X14500Y48000
X15500
X16500
X17500
X18500
X19500
X20500
Y45000
X19500
X18500
X17500
X16500
X15500
X14500
X14780Y42090
X13780
X12780
X11780
Y39090
X12780
X13780
X14780
X15780
X16780
X16500Y37000
X17500
X18500
X15500
X14500
X13500
X12500
X11500
X15780Y42090
X16780
X21500Y42000
X22500
X23500
X24500
X25500
X26500
Y39000
X25500
X24500
X23500
X22500
X21500
X27500
Y42000
X31000
X32000
X33000
X34000
X35000
X36000
X37000
X38000
Y39000
X37000
X36000
X35000
X34000
X33000
X32000
X31000
Y35500
X32000
X33000
X34000
X35000
X36000
X37000
Y32500
X36000
X35000
X34000
X33000
X32000
X31000
X41000Y39000
X42000
Y42000
X41000
X43000
X44000
X45000
X46000
X47000
Y39000
X46000
X45000
X44000
X43000
X45250Y50000
X46250
Y51000
X45250
Y52000
Y53000
X46250Y54000
Y55000
Y56000
X45250
Y55000
X45500Y58000
X44500
X43000
X46500
X49250Y56000
Y55000
Y53000
Y52000
Y51000
Y50000
X42250
Y51000
X39750
Y52000
Y53000
Y55000
Y56000
X42250
Y55000
Y54000
X42000Y58000
X41000
X39000
X38000
X37000
X35000
X34000
X33000
X31200
X30200
X29200
X27000
X27750Y56000
X28750
Y55000
Y54000
X27750Y55000
Y53000
Y52000
Y51000
X28750
Y50000
X27750
X31750
X32750
Y51000
X31750
Y52000
Y53000
X32750Y54000
Y55000
Y56000
X31750
Y55000
X35750
X36750
Y56000
X35750
X36750Y54000
X35750Y53000
Y52000
Y51000
X36750
Y50000
X35750
X39750
X24750
Y51000
Y54000
Y55000
Y56000
X25000Y58000
X26000
X11000Y51000
X10000
X9000
Y49000
X10000
X11000
T06
X28650Y4010
X29650
Y5010
Y6010
Y7010
Y8010
X28650
Y7010
Y6010
Y5010
T07
X6500Y2000
X7500
X8500
X9500
X10500
X1000Y16500
X12500Y11500
X14500
Y2000
X13500
X12500
X11500
X24420Y9970
X26420
X24500Y13000
Y15000
X29000Y14500
Y12500
X28500Y23500
X26500
X24000Y23000
Y21000
X20000Y25000
Y27000
X1000Y18500
X1250Y45750
X3250
X8500Y44000
X10500
X18280Y41590
Y39590
X20000Y35000
Y33000
X22000Y45500
Y47500
X29000Y41500
Y39500
X39500
Y41500
X38500Y35000
Y33000
X48500Y39500
Y41500
X4850Y53700
Y55700
X2250Y55500
Y53500
T08
X16000Y1500
Y2500
X20000
Y1500
X18500Y11500
X22500
X28000
Y15500
X30000Y22000
X30540Y31030
X34540
X26500Y32000
X25500
X24500
X23500
X22500
X26000Y22000
X25500Y36000
X24500
X23500
X22500
X26500
X26000Y44500
X24000
X13000
X27000
X29000
X30000
X31000
X34000
X35000
X37000
X38000
X39500
X40500
X41500
X40000Y36500
Y32500
X47500
X48500
Y36500
X47500
Y44500
X46500
X45500
X44500
X43500
X42500
X48500
Y48500
X47500
X46500
X45500
X44500
X43500
X42500
X41500
X40500
X39500
X38000
X37000
X35000
X34000
X31000
X30000
X29000
X27000
X26000
X24000
X21000Y49500
X20000
X18000
X17000
X16000
X15000
X14000
X13000
Y48500
Y53500
X14000
X15000
X16000
X17000
X18000
X20000
X21000
T09
X23510Y2000
X26510
Y8000
X23510
X31750Y24250
X32750
X33750
X2000Y25000
X1000
Y26000
Y27000
Y28000
Y29000
Y30000
Y31000
Y32000
X2000
Y31000
Y30000
Y29000
Y28000
Y27000
Y26000
Y21900
X1000
Y33000
Y34000
Y35000
Y36000
Y37000
Y38000
Y39000
Y40000
Y41000
Y42000
Y43000
Y44000
X2000
Y43000
Y42000
Y41000
Y40000
Y39000
Y38000
Y37000
Y36000
Y35000
Y34000
Y33000
T10
X8102Y45500
X10898
X44000Y36000
X45000
T11
X15819Y55701
X16909
X18000
X19091
X20181
X19636Y56819
X18545
X17455
X16364
T12
X31400Y3450
Y5200
Y7450
Y9200
Y11450
Y13200
Y15450
X34150
Y13200
Y11450
Y9200
Y7450
Y5200
Y3450
X36400
Y5200
Y7450
Y9200
Y11450
Y13200
Y15450
X39150
Y13200
Y11450
Y9200
Y7450
Y5200
Y3450
X41400
Y5200
Y7450
Y9200
Y11450
Y13200
Y15450
X44150
Y13200
Y11450
Y9200
Y7450
Y5200
Y3450
X46400
Y5200
Y7450
Y9200
Y11450
Y13200
Y15450
X49150
Y13200
Y11450
Y9200
Y7450
Y5200
Y3450
Y17200
Y19450
Y21200
Y23450
Y25200
X46400
Y23450
X44150
Y25200
Y21200
Y19450
Y17200
X46400
Y19450
Y21200
X41400
Y19450
Y17200
X39150
Y19450
Y21200
Y23450
Y25200
X41400
Y23450
X36400
Y25200
Y21200
Y19450
Y17200
X34150
Y19450
Y21200
X31400
Y19450
Y17200
T13
X28000Y31941
Y36059
T14
X3200Y59280
X6430
T15
X7060Y55787
X8950Y56968
T16
X1500Y1500
X30500
X48500
Y28500
X30500
X48500Y58500
X1500
T17
X13081Y56260
X22919
T18
X8950Y54528
M30
