M48
;Layer_Color=0
;FILE_FORMAT=2:3
INCH,LZ
;TYPE=PLATED
T1F00S00C0.033
T2F00S00C0.035
%
T01
X035Y0513
Y0533
X04
Y0513
X03
Y0533
X025
Y0513
T02
X022Y033
X023
Y034
Y035
Y036
Y037
Y038
Y039
Y04
Y041
Y042
Y043
Y044
Y045
Y046
X022
Y045
Y044
Y043
Y042
Y041
Y04
Y039
Y038
Y037
Y036
Y035
Y034
X027
X028
Y033
X027
Y035
X028
Y036
Y037
Y038
Y039
Y04
Y041
Y042
Y043
Y044
Y045
Y046
X027
Y045
Y044
Y043
Y042
Y041
Y04
Y039
Y038
Y037
Y036
X032
X033
Y035
Y034
Y033
X032
Y034
Y035
Y037
X033
Y038
Y039
Y04
Y041
Y042
Y043
Y044
Y045
Y046
X032
Y045
Y044
Y043
Y042
Y041
Y04
Y039
Y038
X037
X038
Y037
Y036
Y035
Y034
Y033
X037
Y034
Y035
Y036
Y037
Y039
X038
Y04
Y041
Y042
Y043
Y044
Y045
Y046
X037
Y045
Y044
Y043
Y042
Y041
Y04
X042
X043
Y039
Y038
Y037
Y036
Y035
Y034
Y033
X042
Y034
Y035
Y036
Y037
Y038
Y039
Y041
X043
Y042
Y043
Y044
Y045
Y046
X042
Y045
Y044
Y043
Y042
Y047
X043
Y048
Y049
Y05
Y051
Y052
X042
Y051
Y05
Y049
Y048
X038
Y047
X037
Y048
Y049
X038
Y05
Y051
Y052
X037
Y051
Y05
X033
Y049
Y048
Y047
X032
Y048
Y049
Y05
Y051
X033
Y052
X032
X028
Y051
Y05
Y049
Y048
Y047
X027
Y048
Y049
Y05
Y051
Y052
X023
Y051
Y05
Y049
Y048
Y047
X022
Y048
Y049
Y05
Y051
Y052
M30
