%FSLAX23Y23*%
%MOIN*%
G70*
G01*
G75*
G04 Layer_Physical_Order=1*
G04 Layer_Color=255*
%ADD10C,0.010*%
%ADD11C,0.012*%
%ADD12C,0.065*%
%ADD13R,0.065X0.065*%
%ADD14C,0.066*%
G36*
X4085Y5300D02*
X4085Y5300D01*
X4085D01*
X4086Y5294D01*
X4089Y5289D01*
X4094Y5286D01*
X4100Y5285D01*
X4365D01*
Y3215D01*
X4100D01*
X4094Y3214D01*
X4089Y3211D01*
X4086Y3206D01*
X4085Y3200D01*
Y3015D01*
X2415D01*
Y3200D01*
X2414Y3206D01*
X2411Y3211D01*
X2406Y3214D01*
X2400Y3215D01*
X2115D01*
Y5285D01*
X2400D01*
X2406Y5286D01*
X2411Y5289D01*
X2414Y5294D01*
X2415Y5300D01*
Y5485D01*
X4085D01*
Y5300D01*
D02*
G37*
%LPC*%
G36*
X2195Y5195D02*
X2158D01*
Y5157D01*
X2195D01*
Y5195D01*
D02*
G37*
G36*
X4242D02*
X4205D01*
Y5157D01*
X4242D01*
Y5195D01*
D02*
G37*
G36*
X4295D02*
X4258D01*
X4259Y5189D01*
X4263Y5179D01*
X4270Y5170D01*
X4279Y5163D01*
X4289Y5159D01*
X4295Y5158D01*
Y5195D01*
D02*
G37*
G36*
X4300Y5143D02*
X4289Y5141D01*
X4279Y5137D01*
X4270Y5130D01*
X4263Y5121D01*
X4259Y5111D01*
X4257Y5100D01*
X4259Y5089D01*
X4263Y5079D01*
X4270Y5070D01*
X4279Y5063D01*
X4289Y5059D01*
X4300Y5057D01*
X4311Y5059D01*
X4321Y5063D01*
X4330Y5070D01*
X4337Y5079D01*
X4341Y5089D01*
X4343Y5100D01*
X4341Y5111D01*
X4337Y5121D01*
X4330Y5130D01*
X4321Y5137D01*
X4311Y5141D01*
X4300Y5143D01*
D02*
G37*
G36*
Y4843D02*
X4289Y4841D01*
X4279Y4837D01*
X4270Y4830D01*
X4263Y4821D01*
X4259Y4811D01*
X4257Y4800D01*
X4259Y4789D01*
X4263Y4779D01*
X4270Y4770D01*
X4279Y4763D01*
X4289Y4759D01*
X4300Y4757D01*
X4311Y4759D01*
X4321Y4763D01*
X4330Y4770D01*
X4337Y4779D01*
X4341Y4789D01*
X4343Y4800D01*
X4341Y4811D01*
X4337Y4821D01*
X4330Y4830D01*
X4321Y4837D01*
X4311Y4841D01*
X4300Y4843D01*
D02*
G37*
G36*
Y4943D02*
X4289Y4941D01*
X4279Y4937D01*
X4270Y4930D01*
X4263Y4921D01*
X4259Y4911D01*
X4257Y4900D01*
X4259Y4889D01*
X4263Y4879D01*
X4270Y4870D01*
X4279Y4863D01*
X4289Y4859D01*
X4300Y4857D01*
X4311Y4859D01*
X4321Y4863D01*
X4330Y4870D01*
X4337Y4879D01*
X4341Y4889D01*
X4343Y4900D01*
X4341Y4911D01*
X4337Y4921D01*
X4330Y4930D01*
X4321Y4937D01*
X4311Y4941D01*
X4300Y4943D01*
D02*
G37*
G36*
Y5043D02*
X4289Y5041D01*
X4279Y5037D01*
X4270Y5030D01*
X4263Y5021D01*
X4259Y5011D01*
X4257Y5000D01*
X4259Y4989D01*
X4263Y4979D01*
X4270Y4970D01*
X4279Y4963D01*
X4289Y4959D01*
X4300Y4957D01*
X4311Y4959D01*
X4321Y4963D01*
X4330Y4970D01*
X4337Y4979D01*
X4341Y4989D01*
X4343Y5000D01*
X4341Y5011D01*
X4337Y5021D01*
X4330Y5030D01*
X4321Y5037D01*
X4311Y5041D01*
X4300Y5043D01*
D02*
G37*
G36*
X2295Y5242D02*
X2289Y5241D01*
X2279Y5237D01*
X2270Y5230D01*
X2263Y5221D01*
X2259Y5211D01*
X2258Y5205D01*
X2295D01*
Y5242D01*
D02*
G37*
G36*
X2305D02*
Y5205D01*
X2342D01*
X2341Y5211D01*
X2337Y5221D01*
X2330Y5230D01*
X2321Y5237D01*
X2311Y5241D01*
X2305Y5242D01*
D02*
G37*
G36*
X2695Y5242D02*
X2658D01*
Y5205D01*
X2695D01*
Y5242D01*
D02*
G37*
G36*
X2243D02*
X2205D01*
Y5205D01*
X2243D01*
Y5242D01*
D02*
G37*
G36*
X4342Y5195D02*
X4305D01*
Y5158D01*
X4311Y5159D01*
X4321Y5163D01*
X4330Y5170D01*
X4337Y5179D01*
X4341Y5189D01*
X4342Y5195D01*
D02*
G37*
G36*
X4195D02*
X4157D01*
Y5165D01*
X4153Y5163D01*
X4152Y5164D01*
X4146Y5165D01*
X4025D01*
X4022Y5168D01*
X4011Y5172D01*
X4000Y5173D01*
X3989Y5172D01*
X3978Y5168D01*
X3975Y5165D01*
X3832D01*
X3830Y5170D01*
X3830Y5170D01*
X3837Y5179D01*
X3841Y5189D01*
X3842Y5195D01*
X3758D01*
X3759Y5189D01*
X3763Y5179D01*
X3770Y5170D01*
X3770Y5170D01*
X3768Y5165D01*
X3749D01*
X3746Y5164D01*
X3743Y5168D01*
Y5195D01*
X3658D01*
Y5168D01*
X3654Y5164D01*
X3651Y5165D01*
X3525D01*
X3522Y5168D01*
X3511Y5172D01*
X3500Y5173D01*
X3489Y5172D01*
X3478Y5168D01*
X3475Y5165D01*
X3332D01*
X3330Y5170D01*
X3330Y5170D01*
X3337Y5179D01*
X3341Y5189D01*
X3342Y5195D01*
X3258D01*
X3259Y5189D01*
X3263Y5179D01*
X3270Y5170D01*
X3270Y5170D01*
X3268Y5165D01*
X3249D01*
X3246Y5164D01*
X3243Y5168D01*
Y5195D01*
X3158D01*
Y5168D01*
X3154Y5164D01*
X3151Y5165D01*
X3025D01*
X3022Y5168D01*
X3011Y5172D01*
X3000Y5173D01*
X2989Y5172D01*
X2978Y5168D01*
X2975Y5165D01*
X2832D01*
X2830Y5170D01*
X2830Y5170D01*
X2837Y5179D01*
X2841Y5189D01*
X2842Y5195D01*
X2758D01*
X2759Y5189D01*
X2763Y5179D01*
X2770Y5170D01*
X2770Y5170D01*
X2768Y5165D01*
X2749D01*
X2746Y5164D01*
X2743Y5168D01*
Y5195D01*
X2658D01*
Y5168D01*
X2654Y5164D01*
X2651Y5165D01*
X2525D01*
X2522Y5168D01*
X2511Y5172D01*
X2500Y5173D01*
X2489Y5172D01*
X2478Y5168D01*
X2475Y5165D01*
X2332D01*
X2330Y5170D01*
X2330Y5170D01*
X2337Y5179D01*
X2341Y5189D01*
X2342Y5195D01*
X2258D01*
X2259Y5189D01*
X2263Y5179D01*
X2270Y5170D01*
X2270Y5170D01*
X2268Y5165D01*
X2249D01*
X2246Y5164D01*
X2243Y5168D01*
Y5195D01*
X2205D01*
Y5157D01*
X2228D01*
X2230Y5153D01*
X2216Y5139D01*
X2211Y5141D01*
X2200Y5143D01*
X2189Y5141D01*
X2179Y5137D01*
X2170Y5130D01*
X2163Y5121D01*
X2159Y5111D01*
X2157Y5100D01*
X2159Y5089D01*
X2163Y5079D01*
X2170Y5070D01*
X2179Y5063D01*
X2189Y5059D01*
X2200Y5057D01*
X2211Y5059D01*
X2221Y5063D01*
X2230Y5070D01*
X2237Y5079D01*
X2241Y5089D01*
X2243Y5100D01*
X2241Y5111D01*
X2239Y5116D01*
X2255Y5132D01*
X2265D01*
X2268Y5128D01*
X2263Y5121D01*
X2259Y5111D01*
X2257Y5100D01*
X2259Y5089D01*
X2263Y5079D01*
X2270Y5070D01*
X2270Y5070D01*
X2268Y5065D01*
X2249D01*
X2242Y5064D01*
X2237Y5060D01*
X2216Y5039D01*
X2211Y5041D01*
X2200Y5043D01*
X2189Y5041D01*
X2179Y5037D01*
X2170Y5030D01*
X2163Y5021D01*
X2159Y5011D01*
X2157Y5000D01*
X2159Y4989D01*
X2163Y4979D01*
X2170Y4970D01*
X2179Y4963D01*
X2189Y4959D01*
X2200Y4957D01*
X2211Y4959D01*
X2221Y4963D01*
X2230Y4970D01*
X2237Y4979D01*
X2241Y4989D01*
X2243Y5000D01*
X2241Y5011D01*
X2239Y5016D01*
X2255Y5032D01*
X2265D01*
X2268Y5028D01*
X2263Y5021D01*
X2259Y5011D01*
X2257Y5000D01*
X2259Y4989D01*
X2263Y4979D01*
X2270Y4970D01*
X2270Y4970D01*
X2268Y4965D01*
X2249D01*
X2242Y4964D01*
X2237Y4960D01*
X2216Y4939D01*
X2211Y4941D01*
X2200Y4943D01*
X2189Y4941D01*
X2179Y4937D01*
X2170Y4930D01*
X2163Y4921D01*
X2159Y4911D01*
X2157Y4900D01*
X2159Y4889D01*
X2163Y4879D01*
X2170Y4870D01*
X2179Y4863D01*
X2189Y4859D01*
X2200Y4857D01*
X2211Y4859D01*
X2221Y4863D01*
X2230Y4870D01*
X2237Y4879D01*
X2241Y4889D01*
X2243Y4900D01*
X2241Y4911D01*
X2239Y4916D01*
X2255Y4932D01*
X2265D01*
X2268Y4928D01*
X2263Y4921D01*
X2259Y4911D01*
X2257Y4900D01*
X2259Y4889D01*
X2263Y4879D01*
X2270Y4870D01*
X2270Y4870D01*
X2268Y4865D01*
X2249D01*
X2242Y4864D01*
X2237Y4860D01*
X2216Y4839D01*
X2211Y4841D01*
X2200Y4843D01*
X2189Y4841D01*
X2179Y4837D01*
X2170Y4830D01*
X2163Y4821D01*
X2159Y4811D01*
X2157Y4800D01*
X2159Y4789D01*
X2163Y4779D01*
X2170Y4770D01*
X2179Y4763D01*
X2189Y4759D01*
X2200Y4757D01*
X2211Y4759D01*
X2221Y4763D01*
X2230Y4770D01*
X2237Y4779D01*
X2241Y4789D01*
X2243Y4800D01*
X2241Y4811D01*
X2239Y4816D01*
X2255Y4832D01*
X2265D01*
X2268Y4828D01*
X2263Y4821D01*
X2259Y4811D01*
X2257Y4800D01*
X2259Y4789D01*
X2263Y4779D01*
X2270Y4770D01*
X2270Y4770D01*
X2268Y4765D01*
X2249D01*
X2242Y4764D01*
X2237Y4760D01*
X2216Y4739D01*
X2211Y4741D01*
X2200Y4743D01*
X2189Y4741D01*
X2179Y4737D01*
X2170Y4730D01*
X2163Y4721D01*
X2159Y4711D01*
X2157Y4700D01*
X2159Y4689D01*
X2163Y4679D01*
X2170Y4670D01*
X2179Y4663D01*
X2189Y4659D01*
X2200Y4657D01*
X2211Y4659D01*
X2221Y4663D01*
X2230Y4670D01*
X2237Y4679D01*
X2241Y4689D01*
X2243Y4700D01*
X2241Y4711D01*
X2239Y4716D01*
X2255Y4732D01*
X2265D01*
X2268Y4728D01*
X2263Y4721D01*
X2259Y4711D01*
X2257Y4700D01*
X2259Y4689D01*
X2263Y4679D01*
X2270Y4670D01*
X2270Y4670D01*
X2268Y4665D01*
X2249D01*
X2242Y4664D01*
X2237Y4660D01*
X2216Y4639D01*
X2211Y4641D01*
X2200Y4643D01*
X2189Y4641D01*
X2179Y4637D01*
X2170Y4630D01*
X2163Y4621D01*
X2159Y4611D01*
X2157Y4600D01*
X2159Y4589D01*
X2163Y4579D01*
X2170Y4570D01*
X2179Y4563D01*
X2189Y4559D01*
X2200Y4557D01*
X2211Y4559D01*
X2221Y4563D01*
X2230Y4570D01*
X2237Y4579D01*
X2241Y4589D01*
X2243Y4600D01*
X2241Y4611D01*
X2239Y4616D01*
X2255Y4632D01*
X2265D01*
X2268Y4628D01*
X2263Y4621D01*
X2259Y4611D01*
X2257Y4600D01*
X2259Y4589D01*
X2263Y4579D01*
X2270Y4570D01*
X2270Y4570D01*
X2268Y4565D01*
X2249D01*
X2242Y4564D01*
X2237Y4560D01*
X2216Y4539D01*
X2211Y4541D01*
X2200Y4543D01*
X2189Y4541D01*
X2179Y4537D01*
X2170Y4530D01*
X2163Y4521D01*
X2159Y4511D01*
X2157Y4500D01*
X2159Y4489D01*
X2163Y4479D01*
X2170Y4470D01*
X2179Y4463D01*
X2189Y4459D01*
X2200Y4457D01*
X2211Y4459D01*
X2221Y4463D01*
X2230Y4470D01*
X2237Y4479D01*
X2241Y4489D01*
X2243Y4500D01*
X2241Y4511D01*
X2239Y4516D01*
X2255Y4532D01*
X2265D01*
X2268Y4528D01*
X2263Y4521D01*
X2259Y4511D01*
X2257Y4500D01*
X2259Y4489D01*
X2263Y4479D01*
X2270Y4470D01*
X2270Y4470D01*
X2268Y4465D01*
X2249D01*
X2242Y4464D01*
X2237Y4460D01*
X2216Y4439D01*
X2211Y4441D01*
X2200Y4443D01*
X2189Y4441D01*
X2179Y4437D01*
X2170Y4430D01*
X2163Y4421D01*
X2159Y4411D01*
X2157Y4400D01*
X2159Y4389D01*
X2163Y4379D01*
X2170Y4370D01*
X2179Y4363D01*
X2189Y4359D01*
X2200Y4357D01*
X2211Y4359D01*
X2221Y4363D01*
X2230Y4370D01*
X2237Y4379D01*
X2241Y4389D01*
X2243Y4400D01*
X2241Y4411D01*
X2239Y4416D01*
X2255Y4432D01*
X2265D01*
X2268Y4428D01*
X2263Y4421D01*
X2259Y4411D01*
X2257Y4400D01*
X2259Y4389D01*
X2263Y4379D01*
X2270Y4370D01*
X2270Y4370D01*
X2268Y4365D01*
X2249D01*
X2242Y4364D01*
X2237Y4360D01*
X2216Y4339D01*
X2211Y4341D01*
X2200Y4343D01*
X2189Y4341D01*
X2179Y4337D01*
X2170Y4330D01*
X2163Y4321D01*
X2159Y4311D01*
X2157Y4300D01*
X2159Y4289D01*
X2163Y4279D01*
X2170Y4270D01*
X2179Y4263D01*
X2189Y4259D01*
X2200Y4257D01*
X2211Y4259D01*
X2221Y4263D01*
X2230Y4270D01*
X2237Y4279D01*
X2241Y4289D01*
X2243Y4300D01*
X2241Y4311D01*
X2239Y4316D01*
X2255Y4332D01*
X2265D01*
X2268Y4328D01*
X2263Y4321D01*
X2259Y4311D01*
X2257Y4300D01*
X2259Y4289D01*
X2263Y4279D01*
X2270Y4270D01*
X2270Y4270D01*
X2268Y4265D01*
X2249D01*
X2242Y4264D01*
X2237Y4260D01*
X2216Y4239D01*
X2211Y4241D01*
X2200Y4243D01*
X2189Y4241D01*
X2179Y4237D01*
X2170Y4230D01*
X2163Y4221D01*
X2159Y4211D01*
X2157Y4200D01*
X2159Y4189D01*
X2163Y4179D01*
X2170Y4170D01*
X2179Y4163D01*
X2189Y4159D01*
X2200Y4157D01*
X2211Y4159D01*
X2221Y4163D01*
X2230Y4170D01*
X2237Y4179D01*
X2241Y4189D01*
X2243Y4200D01*
X2241Y4211D01*
X2239Y4216D01*
X2255Y4232D01*
X2265D01*
X2268Y4228D01*
X2263Y4221D01*
X2259Y4211D01*
X2257Y4200D01*
X2259Y4189D01*
X2263Y4179D01*
X2270Y4170D01*
X2270Y4170D01*
X2268Y4165D01*
X2249D01*
X2242Y4164D01*
X2237Y4160D01*
X2216Y4139D01*
X2211Y4141D01*
X2200Y4143D01*
X2189Y4141D01*
X2179Y4137D01*
X2170Y4130D01*
X2163Y4121D01*
X2159Y4111D01*
X2157Y4100D01*
X2159Y4089D01*
X2163Y4079D01*
X2170Y4070D01*
X2179Y4063D01*
X2189Y4059D01*
X2200Y4057D01*
X2211Y4059D01*
X2221Y4063D01*
X2230Y4070D01*
X2237Y4079D01*
X2241Y4089D01*
X2243Y4100D01*
X2241Y4111D01*
X2239Y4116D01*
X2255Y4132D01*
X2265D01*
X2268Y4128D01*
X2263Y4121D01*
X2259Y4111D01*
X2257Y4100D01*
X2259Y4089D01*
X2263Y4079D01*
X2270Y4070D01*
X2270Y4070D01*
X2268Y4065D01*
X2249D01*
X2242Y4064D01*
X2237Y4060D01*
X2216Y4039D01*
X2211Y4041D01*
X2200Y4043D01*
X2189Y4041D01*
X2179Y4037D01*
X2170Y4030D01*
X2163Y4021D01*
X2159Y4011D01*
X2157Y4000D01*
X2159Y3989D01*
X2163Y3979D01*
X2170Y3970D01*
X2179Y3963D01*
X2189Y3959D01*
X2200Y3957D01*
X2211Y3959D01*
X2221Y3963D01*
X2230Y3970D01*
X2237Y3979D01*
X2241Y3989D01*
X2243Y4000D01*
X2241Y4011D01*
X2239Y4016D01*
X2255Y4032D01*
X2265D01*
X2268Y4028D01*
X2263Y4021D01*
X2259Y4011D01*
X2257Y4000D01*
X2259Y3989D01*
X2263Y3979D01*
X2270Y3970D01*
X2270Y3970D01*
X2268Y3965D01*
X2249D01*
X2242Y3964D01*
X2237Y3960D01*
X2216Y3939D01*
X2211Y3941D01*
X2200Y3943D01*
X2189Y3941D01*
X2179Y3937D01*
X2170Y3930D01*
X2163Y3921D01*
X2159Y3911D01*
X2157Y3900D01*
X2159Y3889D01*
X2163Y3879D01*
X2170Y3870D01*
X2179Y3863D01*
X2189Y3859D01*
X2200Y3857D01*
X2211Y3859D01*
X2221Y3863D01*
X2230Y3870D01*
X2237Y3879D01*
X2241Y3889D01*
X2243Y3900D01*
X2241Y3911D01*
X2239Y3916D01*
X2255Y3932D01*
X2265D01*
X2268Y3928D01*
X2263Y3921D01*
X2259Y3911D01*
X2257Y3900D01*
X2259Y3889D01*
X2263Y3879D01*
X2270Y3870D01*
X2270Y3870D01*
X2268Y3865D01*
X2249D01*
X2242Y3864D01*
X2237Y3860D01*
X2216Y3839D01*
X2211Y3841D01*
X2200Y3843D01*
X2189Y3841D01*
X2179Y3837D01*
X2170Y3830D01*
X2163Y3821D01*
X2159Y3811D01*
X2157Y3800D01*
X2159Y3789D01*
X2163Y3779D01*
X2170Y3770D01*
X2179Y3763D01*
X2189Y3759D01*
X2200Y3757D01*
X2211Y3759D01*
X2221Y3763D01*
X2230Y3770D01*
X2237Y3779D01*
X2241Y3789D01*
X2243Y3800D01*
X2241Y3811D01*
X2239Y3816D01*
X2255Y3832D01*
X2265D01*
X2268Y3828D01*
X2263Y3821D01*
X2259Y3811D01*
X2257Y3800D01*
X2259Y3789D01*
X2263Y3779D01*
X2270Y3770D01*
X2270Y3770D01*
X2268Y3765D01*
X2249D01*
X2242Y3764D01*
X2237Y3760D01*
X2216Y3739D01*
X2211Y3741D01*
X2200Y3743D01*
X2189Y3741D01*
X2179Y3737D01*
X2170Y3730D01*
X2163Y3721D01*
X2159Y3711D01*
X2157Y3700D01*
X2159Y3689D01*
X2163Y3679D01*
X2170Y3670D01*
X2179Y3663D01*
X2189Y3659D01*
X2200Y3657D01*
X2211Y3659D01*
X2221Y3663D01*
X2230Y3670D01*
X2237Y3679D01*
X2241Y3689D01*
X2243Y3700D01*
X2241Y3711D01*
X2239Y3716D01*
X2255Y3732D01*
X2265D01*
X2268Y3728D01*
X2263Y3721D01*
X2259Y3711D01*
X2257Y3700D01*
X2259Y3689D01*
X2263Y3679D01*
X2270Y3670D01*
X2270Y3670D01*
X2268Y3665D01*
X2249D01*
X2242Y3664D01*
X2237Y3660D01*
X2216Y3639D01*
X2211Y3641D01*
X2200Y3643D01*
X2189Y3641D01*
X2179Y3637D01*
X2170Y3630D01*
X2163Y3621D01*
X2159Y3611D01*
X2157Y3600D01*
X2159Y3589D01*
X2163Y3579D01*
X2170Y3570D01*
X2179Y3563D01*
X2189Y3559D01*
X2200Y3557D01*
X2211Y3559D01*
X2221Y3563D01*
X2230Y3570D01*
X2237Y3579D01*
X2241Y3589D01*
X2243Y3600D01*
X2241Y3611D01*
X2239Y3616D01*
X2255Y3632D01*
X2265D01*
X2268Y3628D01*
X2263Y3621D01*
X2259Y3611D01*
X2257Y3600D01*
X2259Y3589D01*
X2263Y3579D01*
X2270Y3570D01*
X2270Y3570D01*
X2268Y3565D01*
X2249D01*
X2242Y3564D01*
X2237Y3560D01*
X2216Y3539D01*
X2211Y3541D01*
X2200Y3543D01*
X2189Y3541D01*
X2179Y3537D01*
X2170Y3530D01*
X2163Y3521D01*
X2159Y3511D01*
X2157Y3500D01*
X2159Y3489D01*
X2163Y3479D01*
X2170Y3470D01*
X2179Y3463D01*
X2189Y3459D01*
X2200Y3457D01*
X2211Y3459D01*
X2221Y3463D01*
X2230Y3470D01*
X2237Y3479D01*
X2241Y3489D01*
X2243Y3500D01*
X2241Y3511D01*
X2239Y3516D01*
X2255Y3532D01*
X2265D01*
X2268Y3528D01*
X2263Y3521D01*
X2259Y3511D01*
X2257Y3500D01*
X2259Y3489D01*
X2263Y3479D01*
X2270Y3470D01*
X2270Y3470D01*
X2268Y3465D01*
X2249D01*
X2242Y3464D01*
X2237Y3460D01*
X2216Y3439D01*
X2211Y3441D01*
X2200Y3443D01*
X2189Y3441D01*
X2179Y3437D01*
X2170Y3430D01*
X2163Y3421D01*
X2159Y3411D01*
X2157Y3400D01*
X2159Y3389D01*
X2163Y3379D01*
X2170Y3370D01*
X2179Y3363D01*
X2189Y3359D01*
X2200Y3357D01*
X2211Y3359D01*
X2221Y3363D01*
X2230Y3370D01*
X2237Y3379D01*
X2241Y3389D01*
X2243Y3400D01*
X2241Y3411D01*
X2239Y3416D01*
X2255Y3432D01*
X2265D01*
X2268Y3428D01*
X2263Y3421D01*
X2259Y3411D01*
X2257Y3400D01*
X2259Y3389D01*
X2263Y3379D01*
X2270Y3370D01*
X2270Y3370D01*
X2268Y3365D01*
X2249D01*
X2242Y3364D01*
X2237Y3360D01*
X2216Y3339D01*
X2211Y3341D01*
X2200Y3343D01*
X2189Y3341D01*
X2179Y3337D01*
X2170Y3330D01*
X2163Y3321D01*
X2159Y3311D01*
X2157Y3300D01*
X2159Y3289D01*
X2163Y3279D01*
X2170Y3270D01*
X2179Y3263D01*
X2189Y3259D01*
X2200Y3257D01*
X2211Y3259D01*
X2221Y3263D01*
X2230Y3270D01*
X2237Y3279D01*
X2241Y3289D01*
X2243Y3300D01*
X2241Y3311D01*
X2239Y3316D01*
X2255Y3332D01*
X2265D01*
X2268Y3328D01*
X2263Y3321D01*
X2259Y3311D01*
X2257Y3300D01*
X2259Y3289D01*
X2263Y3279D01*
X2270Y3270D01*
X2279Y3263D01*
X2289Y3259D01*
X2300Y3257D01*
X2311Y3259D01*
X2321Y3263D01*
X2330Y3270D01*
X2337Y3279D01*
X2341Y3289D01*
X2343Y3300D01*
X2341Y3311D01*
X2337Y3321D01*
X2330Y3330D01*
X2331Y3332D01*
X2645D01*
X2661Y3316D01*
X2659Y3311D01*
X2657Y3300D01*
X2659Y3289D01*
X2663Y3279D01*
X2670Y3270D01*
X2679Y3263D01*
X2689Y3259D01*
X2700Y3257D01*
X2711Y3259D01*
X2721Y3263D01*
X2730Y3270D01*
X2737Y3279D01*
X2741Y3289D01*
X2743Y3300D01*
X2741Y3311D01*
X2739Y3316D01*
X2755Y3332D01*
X2765D01*
X2768Y3328D01*
X2763Y3321D01*
X2759Y3311D01*
X2757Y3300D01*
X2759Y3289D01*
X2763Y3279D01*
X2770Y3270D01*
X2779Y3263D01*
X2789Y3259D01*
X2800Y3257D01*
X2811Y3259D01*
X2821Y3263D01*
X2830Y3270D01*
X2837Y3279D01*
X2841Y3289D01*
X2843Y3300D01*
X2841Y3311D01*
X2837Y3321D01*
X2830Y3330D01*
X2831Y3332D01*
X3145D01*
X3161Y3316D01*
X3159Y3311D01*
X3157Y3300D01*
X3159Y3289D01*
X3163Y3279D01*
X3170Y3270D01*
X3179Y3263D01*
X3189Y3259D01*
X3200Y3257D01*
X3211Y3259D01*
X3221Y3263D01*
X3230Y3270D01*
X3237Y3279D01*
X3241Y3289D01*
X3243Y3300D01*
X3241Y3311D01*
X3239Y3316D01*
X3255Y3332D01*
X3265D01*
X3268Y3328D01*
X3263Y3321D01*
X3259Y3311D01*
X3257Y3300D01*
X3259Y3289D01*
X3263Y3279D01*
X3270Y3270D01*
X3279Y3263D01*
X3289Y3259D01*
X3300Y3257D01*
X3311Y3259D01*
X3321Y3263D01*
X3330Y3270D01*
X3337Y3279D01*
X3341Y3289D01*
X3343Y3300D01*
X3341Y3311D01*
X3337Y3321D01*
X3330Y3330D01*
X3331Y3332D01*
X3653D01*
X3663Y3322D01*
X3663Y3321D01*
X3659Y3311D01*
X3657Y3300D01*
X3659Y3289D01*
X3663Y3279D01*
X3670Y3270D01*
X3679Y3263D01*
X3689Y3259D01*
X3700Y3257D01*
X3711Y3259D01*
X3721Y3263D01*
X3730Y3270D01*
X3737Y3279D01*
X3741Y3289D01*
X3743Y3300D01*
X3741Y3311D01*
X3737Y3321D01*
X3737Y3322D01*
X3747Y3332D01*
X3765D01*
X3768Y3328D01*
X3763Y3321D01*
X3759Y3311D01*
X3757Y3300D01*
X3759Y3289D01*
X3763Y3279D01*
X3770Y3270D01*
X3779Y3263D01*
X3789Y3259D01*
X3800Y3257D01*
X3811Y3259D01*
X3821Y3263D01*
X3830Y3270D01*
X3837Y3279D01*
X3841Y3289D01*
X3843Y3300D01*
X3841Y3311D01*
X3837Y3321D01*
X3830Y3330D01*
X3831Y3332D01*
X4148D01*
X4162Y3318D01*
X4159Y3311D01*
X4157Y3300D01*
X4159Y3289D01*
X4163Y3279D01*
X4170Y3270D01*
X4179Y3263D01*
X4189Y3259D01*
X4200Y3257D01*
X4211Y3259D01*
X4221Y3263D01*
X4230Y3270D01*
X4237Y3279D01*
X4241Y3289D01*
X4243Y3300D01*
X4241Y3311D01*
X4237Y3321D01*
X4230Y3330D01*
X4221Y3337D01*
X4211Y3341D01*
X4200Y3343D01*
X4189Y3341D01*
X4186Y3340D01*
X4166Y3360D01*
X4161Y3364D01*
X4155Y3365D01*
X3832D01*
X3830Y3370D01*
X3830Y3370D01*
X3837Y3379D01*
X3841Y3389D01*
X3843Y3400D01*
X3841Y3411D01*
X3837Y3421D01*
X3830Y3430D01*
X3831Y3432D01*
X4145D01*
X4161Y3416D01*
X4159Y3411D01*
X4157Y3400D01*
X4159Y3389D01*
X4163Y3379D01*
X4170Y3370D01*
X4179Y3363D01*
X4189Y3359D01*
X4200Y3357D01*
X4211Y3359D01*
X4221Y3363D01*
X4230Y3370D01*
X4237Y3379D01*
X4241Y3389D01*
X4243Y3400D01*
X4241Y3411D01*
X4237Y3421D01*
X4230Y3430D01*
X4221Y3437D01*
X4211Y3441D01*
X4200Y3443D01*
X4189Y3441D01*
X4184Y3439D01*
X4163Y3460D01*
X4158Y3464D01*
X4152Y3465D01*
X3832D01*
X3830Y3470D01*
X3830Y3470D01*
X3837Y3479D01*
X3841Y3489D01*
X3843Y3500D01*
X3841Y3511D01*
X3837Y3521D01*
X3830Y3530D01*
X3831Y3532D01*
X4145D01*
X4161Y3516D01*
X4159Y3511D01*
X4157Y3500D01*
X4159Y3489D01*
X4163Y3479D01*
X4170Y3470D01*
X4179Y3463D01*
X4189Y3459D01*
X4200Y3457D01*
X4211Y3459D01*
X4221Y3463D01*
X4230Y3470D01*
X4237Y3479D01*
X4241Y3489D01*
X4243Y3500D01*
X4241Y3511D01*
X4237Y3521D01*
X4230Y3530D01*
X4221Y3537D01*
X4211Y3541D01*
X4200Y3543D01*
X4189Y3541D01*
X4184Y3539D01*
X4163Y3560D01*
X4158Y3564D01*
X4152Y3565D01*
X3832D01*
X3830Y3570D01*
X3830Y3570D01*
X3837Y3579D01*
X3841Y3589D01*
X3843Y3600D01*
X3841Y3611D01*
X3837Y3621D01*
X3830Y3630D01*
X3831Y3632D01*
X4145D01*
X4161Y3616D01*
X4159Y3611D01*
X4157Y3600D01*
X4159Y3589D01*
X4163Y3579D01*
X4170Y3570D01*
X4179Y3563D01*
X4189Y3559D01*
X4200Y3557D01*
X4211Y3559D01*
X4221Y3563D01*
X4230Y3570D01*
X4237Y3579D01*
X4241Y3589D01*
X4243Y3600D01*
X4241Y3611D01*
X4237Y3621D01*
X4230Y3630D01*
X4221Y3637D01*
X4211Y3641D01*
X4200Y3643D01*
X4189Y3641D01*
X4184Y3639D01*
X4163Y3660D01*
X4158Y3664D01*
X4152Y3665D01*
X3832D01*
X3830Y3670D01*
X3830Y3670D01*
X3837Y3679D01*
X3841Y3689D01*
X3843Y3700D01*
X3841Y3711D01*
X3837Y3721D01*
X3830Y3730D01*
X3831Y3732D01*
X4145D01*
X4161Y3716D01*
X4159Y3711D01*
X4157Y3700D01*
X4159Y3689D01*
X4163Y3679D01*
X4170Y3670D01*
X4179Y3663D01*
X4189Y3659D01*
X4200Y3657D01*
X4211Y3659D01*
X4221Y3663D01*
X4230Y3670D01*
X4237Y3679D01*
X4241Y3689D01*
X4243Y3700D01*
X4241Y3711D01*
X4237Y3721D01*
X4230Y3730D01*
X4221Y3737D01*
X4211Y3741D01*
X4200Y3743D01*
X4189Y3741D01*
X4184Y3739D01*
X4163Y3760D01*
X4158Y3764D01*
X4152Y3765D01*
X3832D01*
X3830Y3770D01*
X3830Y3770D01*
X3837Y3779D01*
X3841Y3789D01*
X3843Y3800D01*
X3841Y3811D01*
X3837Y3821D01*
X3830Y3830D01*
X3831Y3832D01*
X4145D01*
X4161Y3816D01*
X4159Y3811D01*
X4157Y3800D01*
X4159Y3789D01*
X4163Y3779D01*
X4170Y3770D01*
X4179Y3763D01*
X4189Y3759D01*
X4200Y3757D01*
X4211Y3759D01*
X4221Y3763D01*
X4230Y3770D01*
X4237Y3779D01*
X4241Y3789D01*
X4243Y3800D01*
X4241Y3811D01*
X4237Y3821D01*
X4230Y3830D01*
X4221Y3837D01*
X4211Y3841D01*
X4200Y3843D01*
X4189Y3841D01*
X4184Y3839D01*
X4163Y3860D01*
X4158Y3864D01*
X4152Y3865D01*
X3832D01*
X3830Y3870D01*
X3830Y3870D01*
X3837Y3879D01*
X3841Y3889D01*
X3843Y3900D01*
X3841Y3911D01*
X3837Y3921D01*
X3830Y3930D01*
X3831Y3932D01*
X4145D01*
X4161Y3916D01*
X4159Y3911D01*
X4157Y3900D01*
X4159Y3889D01*
X4163Y3879D01*
X4170Y3870D01*
X4179Y3863D01*
X4189Y3859D01*
X4200Y3857D01*
X4211Y3859D01*
X4221Y3863D01*
X4230Y3870D01*
X4237Y3879D01*
X4241Y3889D01*
X4243Y3900D01*
X4241Y3911D01*
X4237Y3921D01*
X4230Y3930D01*
X4221Y3937D01*
X4211Y3941D01*
X4200Y3943D01*
X4189Y3941D01*
X4184Y3939D01*
X4163Y3960D01*
X4158Y3964D01*
X4152Y3965D01*
X3832D01*
X3830Y3970D01*
X3830Y3970D01*
X3837Y3979D01*
X3841Y3989D01*
X3843Y4000D01*
X3841Y4011D01*
X3837Y4021D01*
X3830Y4030D01*
X3831Y4032D01*
X4145D01*
X4161Y4016D01*
X4159Y4011D01*
X4157Y4000D01*
X4159Y3989D01*
X4163Y3979D01*
X4170Y3970D01*
X4179Y3963D01*
X4189Y3959D01*
X4200Y3957D01*
X4211Y3959D01*
X4221Y3963D01*
X4230Y3970D01*
X4237Y3979D01*
X4241Y3989D01*
X4243Y4000D01*
X4241Y4011D01*
X4237Y4021D01*
X4230Y4030D01*
X4221Y4037D01*
X4211Y4041D01*
X4200Y4043D01*
X4189Y4041D01*
X4184Y4039D01*
X4163Y4060D01*
X4158Y4064D01*
X4152Y4065D01*
X3832D01*
X3830Y4070D01*
X3830Y4070D01*
X3837Y4079D01*
X3841Y4089D01*
X3843Y4100D01*
X3841Y4111D01*
X3837Y4121D01*
X3830Y4130D01*
X3831Y4132D01*
X4145D01*
X4161Y4116D01*
X4159Y4111D01*
X4157Y4100D01*
X4159Y4089D01*
X4163Y4079D01*
X4170Y4070D01*
X4179Y4063D01*
X4189Y4059D01*
X4200Y4057D01*
X4211Y4059D01*
X4221Y4063D01*
X4230Y4070D01*
X4237Y4079D01*
X4241Y4089D01*
X4243Y4100D01*
X4241Y4111D01*
X4237Y4121D01*
X4230Y4130D01*
X4221Y4137D01*
X4211Y4141D01*
X4200Y4143D01*
X4189Y4141D01*
X4184Y4139D01*
X4163Y4160D01*
X4158Y4164D01*
X4152Y4165D01*
X3832D01*
X3830Y4170D01*
X3830Y4170D01*
X3837Y4179D01*
X3841Y4189D01*
X3843Y4200D01*
X3841Y4211D01*
X3837Y4221D01*
X3830Y4230D01*
X3831Y4232D01*
X4145D01*
X4161Y4216D01*
X4159Y4211D01*
X4157Y4200D01*
X4159Y4189D01*
X4163Y4179D01*
X4170Y4170D01*
X4179Y4163D01*
X4189Y4159D01*
X4200Y4157D01*
X4211Y4159D01*
X4221Y4163D01*
X4230Y4170D01*
X4237Y4179D01*
X4241Y4189D01*
X4243Y4200D01*
X4241Y4211D01*
X4237Y4221D01*
X4230Y4230D01*
X4221Y4237D01*
X4211Y4241D01*
X4200Y4243D01*
X4189Y4241D01*
X4184Y4239D01*
X4163Y4260D01*
X4158Y4264D01*
X4152Y4265D01*
X3832D01*
X3830Y4270D01*
X3830Y4270D01*
X3837Y4279D01*
X3841Y4289D01*
X3843Y4300D01*
X3841Y4311D01*
X3837Y4321D01*
X3830Y4330D01*
X3831Y4332D01*
X4145D01*
X4161Y4316D01*
X4159Y4311D01*
X4157Y4300D01*
X4159Y4289D01*
X4163Y4279D01*
X4170Y4270D01*
X4179Y4263D01*
X4189Y4259D01*
X4200Y4257D01*
X4211Y4259D01*
X4221Y4263D01*
X4230Y4270D01*
X4237Y4279D01*
X4241Y4289D01*
X4243Y4300D01*
X4241Y4311D01*
X4237Y4321D01*
X4230Y4330D01*
X4221Y4337D01*
X4211Y4341D01*
X4200Y4343D01*
X4189Y4341D01*
X4184Y4339D01*
X4163Y4360D01*
X4158Y4364D01*
X4152Y4365D01*
X3832D01*
X3830Y4370D01*
X3830Y4370D01*
X3837Y4379D01*
X3841Y4389D01*
X3843Y4400D01*
X3841Y4411D01*
X3837Y4421D01*
X3830Y4430D01*
X3831Y4432D01*
X4145D01*
X4161Y4416D01*
X4159Y4411D01*
X4157Y4400D01*
X4159Y4389D01*
X4163Y4379D01*
X4170Y4370D01*
X4179Y4363D01*
X4189Y4359D01*
X4200Y4357D01*
X4211Y4359D01*
X4221Y4363D01*
X4230Y4370D01*
X4237Y4379D01*
X4241Y4389D01*
X4243Y4400D01*
X4241Y4411D01*
X4237Y4421D01*
X4230Y4430D01*
X4221Y4437D01*
X4211Y4441D01*
X4200Y4443D01*
X4189Y4441D01*
X4184Y4439D01*
X4163Y4460D01*
X4158Y4464D01*
X4152Y4465D01*
X3832D01*
X3830Y4470D01*
X3830Y4470D01*
X3837Y4479D01*
X3841Y4489D01*
X3843Y4500D01*
X3841Y4511D01*
X3837Y4521D01*
X3830Y4530D01*
X3831Y4532D01*
X4145D01*
X4161Y4516D01*
X4159Y4511D01*
X4157Y4500D01*
X4159Y4489D01*
X4163Y4479D01*
X4170Y4470D01*
X4179Y4463D01*
X4189Y4459D01*
X4200Y4457D01*
X4211Y4459D01*
X4221Y4463D01*
X4230Y4470D01*
X4237Y4479D01*
X4241Y4489D01*
X4243Y4500D01*
X4241Y4511D01*
X4237Y4521D01*
X4230Y4530D01*
X4221Y4537D01*
X4211Y4541D01*
X4200Y4543D01*
X4189Y4541D01*
X4184Y4539D01*
X4163Y4560D01*
X4158Y4564D01*
X4152Y4565D01*
X3832D01*
X3830Y4570D01*
X3830Y4570D01*
X3837Y4579D01*
X3841Y4589D01*
X3843Y4600D01*
X3841Y4611D01*
X3837Y4621D01*
X3830Y4630D01*
X3831Y4632D01*
X4145D01*
X4161Y4616D01*
X4159Y4611D01*
X4157Y4600D01*
X4159Y4589D01*
X4163Y4579D01*
X4170Y4570D01*
X4179Y4563D01*
X4189Y4559D01*
X4200Y4557D01*
X4211Y4559D01*
X4221Y4563D01*
X4230Y4570D01*
X4237Y4579D01*
X4241Y4589D01*
X4243Y4600D01*
X4241Y4611D01*
X4237Y4621D01*
X4230Y4630D01*
X4221Y4637D01*
X4211Y4641D01*
X4200Y4643D01*
X4189Y4641D01*
X4184Y4639D01*
X4163Y4660D01*
X4158Y4664D01*
X4152Y4665D01*
X3832D01*
X3830Y4670D01*
X3830Y4670D01*
X3837Y4679D01*
X3841Y4689D01*
X3843Y4700D01*
X3841Y4711D01*
X3837Y4721D01*
X3830Y4730D01*
X3831Y4732D01*
X4145D01*
X4161Y4716D01*
X4159Y4711D01*
X4157Y4700D01*
X4159Y4689D01*
X4163Y4679D01*
X4170Y4670D01*
X4179Y4663D01*
X4189Y4659D01*
X4200Y4657D01*
X4211Y4659D01*
X4221Y4663D01*
X4230Y4670D01*
X4237Y4679D01*
X4241Y4689D01*
X4243Y4700D01*
X4241Y4711D01*
X4237Y4721D01*
X4230Y4730D01*
X4221Y4737D01*
X4211Y4741D01*
X4200Y4743D01*
X4189Y4741D01*
X4184Y4739D01*
X4163Y4760D01*
X4158Y4764D01*
X4152Y4765D01*
X3832D01*
X3830Y4770D01*
X3830Y4770D01*
X3837Y4779D01*
X3841Y4789D01*
X3843Y4800D01*
X3841Y4811D01*
X3837Y4821D01*
X3830Y4830D01*
X3831Y4832D01*
X4145D01*
X4161Y4816D01*
X4159Y4811D01*
X4157Y4800D01*
X4159Y4789D01*
X4163Y4779D01*
X4170Y4770D01*
X4179Y4763D01*
X4189Y4759D01*
X4200Y4757D01*
X4211Y4759D01*
X4221Y4763D01*
X4230Y4770D01*
X4237Y4779D01*
X4241Y4789D01*
X4243Y4800D01*
X4241Y4811D01*
X4237Y4821D01*
X4230Y4830D01*
X4221Y4837D01*
X4211Y4841D01*
X4200Y4843D01*
X4189Y4841D01*
X4184Y4839D01*
X4163Y4860D01*
X4158Y4864D01*
X4152Y4865D01*
X3832D01*
X3830Y4870D01*
X3830Y4870D01*
X3837Y4879D01*
X3841Y4889D01*
X3843Y4900D01*
X3841Y4911D01*
X3837Y4921D01*
X3830Y4930D01*
X3831Y4932D01*
X4145D01*
X4161Y4916D01*
X4159Y4911D01*
X4157Y4900D01*
X4159Y4889D01*
X4163Y4879D01*
X4170Y4870D01*
X4179Y4863D01*
X4189Y4859D01*
X4200Y4857D01*
X4211Y4859D01*
X4221Y4863D01*
X4230Y4870D01*
X4237Y4879D01*
X4241Y4889D01*
X4243Y4900D01*
X4241Y4911D01*
X4237Y4921D01*
X4230Y4930D01*
X4221Y4937D01*
X4211Y4941D01*
X4200Y4943D01*
X4189Y4941D01*
X4184Y4939D01*
X4163Y4960D01*
X4158Y4964D01*
X4152Y4965D01*
X3832D01*
X3830Y4970D01*
X3830Y4970D01*
X3837Y4979D01*
X3841Y4989D01*
X3843Y5000D01*
X3841Y5011D01*
X3837Y5021D01*
X3830Y5030D01*
X3831Y5032D01*
X4145D01*
X4161Y5016D01*
X4159Y5011D01*
X4157Y5000D01*
X4159Y4989D01*
X4163Y4979D01*
X4170Y4970D01*
X4179Y4963D01*
X4189Y4959D01*
X4200Y4957D01*
X4211Y4959D01*
X4221Y4963D01*
X4230Y4970D01*
X4237Y4979D01*
X4241Y4989D01*
X4243Y5000D01*
X4241Y5011D01*
X4237Y5021D01*
X4230Y5030D01*
X4221Y5037D01*
X4211Y5041D01*
X4200Y5043D01*
X4189Y5041D01*
X4184Y5039D01*
X4163Y5060D01*
X4158Y5064D01*
X4152Y5065D01*
X3832D01*
X3830Y5070D01*
X3830Y5070D01*
X3837Y5079D01*
X3841Y5089D01*
X3843Y5100D01*
X3841Y5111D01*
X3837Y5121D01*
X3830Y5130D01*
X3831Y5132D01*
X3955D01*
X3957Y5130D01*
X3958Y5119D01*
X3962Y5108D01*
X3969Y5099D01*
X3978Y5092D01*
X3989Y5088D01*
X4000Y5087D01*
X4011Y5088D01*
X4022Y5092D01*
X4031Y5099D01*
X4038Y5108D01*
X4042Y5119D01*
X4043Y5130D01*
X4045Y5132D01*
X4139D01*
X4159Y5112D01*
X4159Y5111D01*
X4157Y5100D01*
X4159Y5089D01*
X4163Y5079D01*
X4170Y5070D01*
X4179Y5063D01*
X4189Y5059D01*
X4200Y5057D01*
X4211Y5059D01*
X4221Y5063D01*
X4230Y5070D01*
X4237Y5079D01*
X4241Y5089D01*
X4243Y5100D01*
X4241Y5111D01*
X4237Y5121D01*
X4230Y5130D01*
X4221Y5137D01*
X4211Y5141D01*
X4200Y5143D01*
X4189Y5141D01*
X4180Y5138D01*
X4164Y5153D01*
X4166Y5157D01*
X4195D01*
Y5195D01*
D02*
G37*
G36*
X2195Y5242D02*
X2158D01*
Y5205D01*
X2195D01*
Y5242D01*
D02*
G37*
G36*
X4300Y4743D02*
X4289Y4741D01*
X4279Y4737D01*
X4270Y4730D01*
X4263Y4721D01*
X4259Y4711D01*
X4257Y4700D01*
X4259Y4689D01*
X4263Y4679D01*
X4270Y4670D01*
X4279Y4663D01*
X4289Y4659D01*
X4300Y4657D01*
X4311Y4659D01*
X4321Y4663D01*
X4330Y4670D01*
X4337Y4679D01*
X4341Y4689D01*
X4343Y4700D01*
X4341Y4711D01*
X4337Y4721D01*
X4330Y4730D01*
X4321Y4737D01*
X4311Y4741D01*
X4300Y4743D01*
D02*
G37*
G36*
Y3743D02*
X4289Y3741D01*
X4279Y3737D01*
X4270Y3730D01*
X4263Y3721D01*
X4259Y3711D01*
X4257Y3700D01*
X4259Y3689D01*
X4263Y3679D01*
X4270Y3670D01*
X4279Y3663D01*
X4289Y3659D01*
X4300Y3657D01*
X4311Y3659D01*
X4321Y3663D01*
X4330Y3670D01*
X4337Y3679D01*
X4341Y3689D01*
X4343Y3700D01*
X4341Y3711D01*
X4337Y3721D01*
X4330Y3730D01*
X4321Y3737D01*
X4311Y3741D01*
X4300Y3743D01*
D02*
G37*
G36*
Y3843D02*
X4289Y3841D01*
X4279Y3837D01*
X4270Y3830D01*
X4263Y3821D01*
X4259Y3811D01*
X4257Y3800D01*
X4259Y3789D01*
X4263Y3779D01*
X4270Y3770D01*
X4279Y3763D01*
X4289Y3759D01*
X4300Y3757D01*
X4311Y3759D01*
X4321Y3763D01*
X4330Y3770D01*
X4337Y3779D01*
X4341Y3789D01*
X4343Y3800D01*
X4341Y3811D01*
X4337Y3821D01*
X4330Y3830D01*
X4321Y3837D01*
X4311Y3841D01*
X4300Y3843D01*
D02*
G37*
G36*
Y3943D02*
X4289Y3941D01*
X4279Y3937D01*
X4270Y3930D01*
X4263Y3921D01*
X4259Y3911D01*
X4257Y3900D01*
X4259Y3889D01*
X4263Y3879D01*
X4270Y3870D01*
X4279Y3863D01*
X4289Y3859D01*
X4300Y3857D01*
X4311Y3859D01*
X4321Y3863D01*
X4330Y3870D01*
X4337Y3879D01*
X4341Y3889D01*
X4343Y3900D01*
X4341Y3911D01*
X4337Y3921D01*
X4330Y3930D01*
X4321Y3937D01*
X4311Y3941D01*
X4300Y3943D01*
D02*
G37*
G36*
Y3643D02*
X4289Y3641D01*
X4279Y3637D01*
X4270Y3630D01*
X4263Y3621D01*
X4259Y3611D01*
X4257Y3600D01*
X4259Y3589D01*
X4263Y3579D01*
X4270Y3570D01*
X4279Y3563D01*
X4289Y3559D01*
X4300Y3557D01*
X4311Y3559D01*
X4321Y3563D01*
X4330Y3570D01*
X4337Y3579D01*
X4341Y3589D01*
X4343Y3600D01*
X4341Y3611D01*
X4337Y3621D01*
X4330Y3630D01*
X4321Y3637D01*
X4311Y3641D01*
X4300Y3643D01*
D02*
G37*
G36*
Y3343D02*
X4289Y3341D01*
X4279Y3337D01*
X4270Y3330D01*
X4263Y3321D01*
X4259Y3311D01*
X4257Y3300D01*
X4259Y3289D01*
X4263Y3279D01*
X4270Y3270D01*
X4279Y3263D01*
X4289Y3259D01*
X4300Y3257D01*
X4311Y3259D01*
X4321Y3263D01*
X4330Y3270D01*
X4337Y3279D01*
X4341Y3289D01*
X4343Y3300D01*
X4341Y3311D01*
X4337Y3321D01*
X4330Y3330D01*
X4321Y3337D01*
X4311Y3341D01*
X4300Y3343D01*
D02*
G37*
G36*
Y3443D02*
X4289Y3441D01*
X4279Y3437D01*
X4270Y3430D01*
X4263Y3421D01*
X4259Y3411D01*
X4257Y3400D01*
X4259Y3389D01*
X4263Y3379D01*
X4270Y3370D01*
X4279Y3363D01*
X4289Y3359D01*
X4300Y3357D01*
X4311Y3359D01*
X4321Y3363D01*
X4330Y3370D01*
X4337Y3379D01*
X4341Y3389D01*
X4343Y3400D01*
X4341Y3411D01*
X4337Y3421D01*
X4330Y3430D01*
X4321Y3437D01*
X4311Y3441D01*
X4300Y3443D01*
D02*
G37*
G36*
Y3543D02*
X4289Y3541D01*
X4279Y3537D01*
X4270Y3530D01*
X4263Y3521D01*
X4259Y3511D01*
X4257Y3500D01*
X4259Y3489D01*
X4263Y3479D01*
X4270Y3470D01*
X4279Y3463D01*
X4289Y3459D01*
X4300Y3457D01*
X4311Y3459D01*
X4321Y3463D01*
X4330Y3470D01*
X4337Y3479D01*
X4341Y3489D01*
X4343Y3500D01*
X4341Y3511D01*
X4337Y3521D01*
X4330Y3530D01*
X4321Y3537D01*
X4311Y3541D01*
X4300Y3543D01*
D02*
G37*
G36*
Y4443D02*
X4289Y4441D01*
X4279Y4437D01*
X4270Y4430D01*
X4263Y4421D01*
X4259Y4411D01*
X4257Y4400D01*
X4259Y4389D01*
X4263Y4379D01*
X4270Y4370D01*
X4279Y4363D01*
X4289Y4359D01*
X4300Y4357D01*
X4311Y4359D01*
X4321Y4363D01*
X4330Y4370D01*
X4337Y4379D01*
X4341Y4389D01*
X4343Y4400D01*
X4341Y4411D01*
X4337Y4421D01*
X4330Y4430D01*
X4321Y4437D01*
X4311Y4441D01*
X4300Y4443D01*
D02*
G37*
G36*
Y4543D02*
X4289Y4541D01*
X4279Y4537D01*
X4270Y4530D01*
X4263Y4521D01*
X4259Y4511D01*
X4257Y4500D01*
X4259Y4489D01*
X4263Y4479D01*
X4270Y4470D01*
X4279Y4463D01*
X4289Y4459D01*
X4300Y4457D01*
X4311Y4459D01*
X4321Y4463D01*
X4330Y4470D01*
X4337Y4479D01*
X4341Y4489D01*
X4343Y4500D01*
X4341Y4511D01*
X4337Y4521D01*
X4330Y4530D01*
X4321Y4537D01*
X4311Y4541D01*
X4300Y4543D01*
D02*
G37*
G36*
Y4643D02*
X4289Y4641D01*
X4279Y4637D01*
X4270Y4630D01*
X4263Y4621D01*
X4259Y4611D01*
X4257Y4600D01*
X4259Y4589D01*
X4263Y4579D01*
X4270Y4570D01*
X4279Y4563D01*
X4289Y4559D01*
X4300Y4557D01*
X4311Y4559D01*
X4321Y4563D01*
X4330Y4570D01*
X4337Y4579D01*
X4341Y4589D01*
X4343Y4600D01*
X4341Y4611D01*
X4337Y4621D01*
X4330Y4630D01*
X4321Y4637D01*
X4311Y4641D01*
X4300Y4643D01*
D02*
G37*
G36*
Y4343D02*
X4289Y4341D01*
X4279Y4337D01*
X4270Y4330D01*
X4263Y4321D01*
X4259Y4311D01*
X4257Y4300D01*
X4259Y4289D01*
X4263Y4279D01*
X4270Y4270D01*
X4279Y4263D01*
X4289Y4259D01*
X4300Y4257D01*
X4311Y4259D01*
X4321Y4263D01*
X4330Y4270D01*
X4337Y4279D01*
X4341Y4289D01*
X4343Y4300D01*
X4341Y4311D01*
X4337Y4321D01*
X4330Y4330D01*
X4321Y4337D01*
X4311Y4341D01*
X4300Y4343D01*
D02*
G37*
G36*
Y4043D02*
X4289Y4041D01*
X4279Y4037D01*
X4270Y4030D01*
X4263Y4021D01*
X4259Y4011D01*
X4257Y4000D01*
X4259Y3989D01*
X4263Y3979D01*
X4270Y3970D01*
X4279Y3963D01*
X4289Y3959D01*
X4300Y3957D01*
X4311Y3959D01*
X4321Y3963D01*
X4330Y3970D01*
X4337Y3979D01*
X4341Y3989D01*
X4343Y4000D01*
X4341Y4011D01*
X4337Y4021D01*
X4330Y4030D01*
X4321Y4037D01*
X4311Y4041D01*
X4300Y4043D01*
D02*
G37*
G36*
Y4143D02*
X4289Y4141D01*
X4279Y4137D01*
X4270Y4130D01*
X4263Y4121D01*
X4259Y4111D01*
X4257Y4100D01*
X4259Y4089D01*
X4263Y4079D01*
X4270Y4070D01*
X4279Y4063D01*
X4289Y4059D01*
X4300Y4057D01*
X4311Y4059D01*
X4321Y4063D01*
X4330Y4070D01*
X4337Y4079D01*
X4341Y4089D01*
X4343Y4100D01*
X4341Y4111D01*
X4337Y4121D01*
X4330Y4130D01*
X4321Y4137D01*
X4311Y4141D01*
X4300Y4143D01*
D02*
G37*
G36*
Y4243D02*
X4289Y4241D01*
X4279Y4237D01*
X4270Y4230D01*
X4263Y4221D01*
X4259Y4211D01*
X4257Y4200D01*
X4259Y4189D01*
X4263Y4179D01*
X4270Y4170D01*
X4279Y4163D01*
X4289Y4159D01*
X4300Y4157D01*
X4311Y4159D01*
X4321Y4163D01*
X4330Y4170D01*
X4337Y4179D01*
X4341Y4189D01*
X4343Y4200D01*
X4341Y4211D01*
X4337Y4221D01*
X4330Y4230D01*
X4321Y4237D01*
X4311Y4241D01*
X4300Y4243D01*
D02*
G37*
G36*
X2743Y5242D02*
X2705D01*
Y5205D01*
X2743D01*
Y5242D01*
D02*
G37*
G36*
X3543Y5325D02*
X3505D01*
Y5287D01*
X3511Y5288D01*
X3522Y5292D01*
X3531Y5299D01*
X3538Y5308D01*
X3542Y5319D01*
X3543Y5325D01*
D02*
G37*
G36*
X3995D02*
X3957D01*
X3958Y5319D01*
X3962Y5308D01*
X3969Y5299D01*
X3978Y5292D01*
X3989Y5288D01*
X3995Y5287D01*
Y5325D01*
D02*
G37*
G36*
X4043D02*
X4005D01*
Y5287D01*
X4011Y5288D01*
X4022Y5292D01*
X4031Y5299D01*
X4038Y5308D01*
X4042Y5319D01*
X4043Y5325D01*
D02*
G37*
G36*
X3495D02*
X3457D01*
X3458Y5319D01*
X3462Y5308D01*
X3469Y5299D01*
X3478Y5292D01*
X3489Y5288D01*
X3495Y5287D01*
Y5325D01*
D02*
G37*
G36*
X2543D02*
X2505D01*
Y5287D01*
X2511Y5288D01*
X2522Y5292D01*
X2531Y5299D01*
X2538Y5308D01*
X2542Y5319D01*
X2543Y5325D01*
D02*
G37*
G36*
X2995D02*
X2957D01*
X2958Y5319D01*
X2962Y5308D01*
X2969Y5299D01*
X2978Y5292D01*
X2989Y5288D01*
X2995Y5287D01*
Y5325D01*
D02*
G37*
G36*
X3043D02*
X3005D01*
Y5287D01*
X3011Y5288D01*
X3022Y5292D01*
X3031Y5299D01*
X3038Y5308D01*
X3042Y5319D01*
X3043Y5325D01*
D02*
G37*
G36*
X2495Y5373D02*
X2489Y5372D01*
X2478Y5368D01*
X2469Y5361D01*
X2462Y5352D01*
X2458Y5341D01*
X2457Y5335D01*
X2495D01*
Y5373D01*
D02*
G37*
G36*
X3505D02*
Y5335D01*
X3543D01*
X3542Y5341D01*
X3538Y5352D01*
X3531Y5361D01*
X3522Y5368D01*
X3511Y5372D01*
X3505Y5373D01*
D02*
G37*
G36*
X3995D02*
X3989Y5372D01*
X3978Y5368D01*
X3969Y5361D01*
X3962Y5352D01*
X3958Y5341D01*
X3957Y5335D01*
X3995D01*
Y5373D01*
D02*
G37*
G36*
X4005D02*
Y5335D01*
X4043D01*
X4042Y5341D01*
X4038Y5352D01*
X4031Y5361D01*
X4022Y5368D01*
X4011Y5372D01*
X4005Y5373D01*
D02*
G37*
G36*
X3495D02*
X3489Y5372D01*
X3478Y5368D01*
X3469Y5361D01*
X3462Y5352D01*
X3458Y5341D01*
X3457Y5335D01*
X3495D01*
Y5373D01*
D02*
G37*
G36*
X2505D02*
Y5335D01*
X2543D01*
X2542Y5341D01*
X2538Y5352D01*
X2531Y5361D01*
X2522Y5368D01*
X2511Y5372D01*
X2505Y5373D01*
D02*
G37*
G36*
X2995D02*
X2989Y5372D01*
X2978Y5368D01*
X2969Y5361D01*
X2962Y5352D01*
X2958Y5341D01*
X2957Y5335D01*
X2995D01*
Y5373D01*
D02*
G37*
G36*
X3005D02*
Y5335D01*
X3043D01*
X3042Y5341D01*
X3038Y5352D01*
X3031Y5361D01*
X3022Y5368D01*
X3011Y5372D01*
X3005Y5373D01*
D02*
G37*
G36*
X3295Y5242D02*
X3289Y5241D01*
X3279Y5237D01*
X3270Y5230D01*
X3263Y5221D01*
X3259Y5211D01*
X3258Y5205D01*
X3295D01*
Y5242D01*
D02*
G37*
G36*
X3305D02*
Y5205D01*
X3342D01*
X3341Y5211D01*
X3337Y5221D01*
X3330Y5230D01*
X3321Y5237D01*
X3311Y5241D01*
X3305Y5242D01*
D02*
G37*
G36*
X3695Y5242D02*
X3658D01*
Y5205D01*
X3695D01*
Y5242D01*
D02*
G37*
G36*
X3243D02*
X3205D01*
Y5205D01*
X3243D01*
Y5242D01*
D02*
G37*
G36*
X2795Y5242D02*
X2789Y5241D01*
X2779Y5237D01*
X2770Y5230D01*
X2763Y5221D01*
X2759Y5211D01*
X2758Y5205D01*
X2795D01*
Y5242D01*
D02*
G37*
G36*
X2805D02*
Y5205D01*
X2842D01*
X2841Y5211D01*
X2837Y5221D01*
X2830Y5230D01*
X2821Y5237D01*
X2811Y5241D01*
X2805Y5242D01*
D02*
G37*
G36*
X3195Y5242D02*
X3158D01*
Y5205D01*
X3195D01*
Y5242D01*
D02*
G37*
G36*
X3743D02*
X3705D01*
Y5205D01*
X3743D01*
Y5242D01*
D02*
G37*
G36*
X4295Y5242D02*
X4289Y5241D01*
X4279Y5237D01*
X4270Y5230D01*
X4263Y5221D01*
X4259Y5211D01*
X4258Y5205D01*
X4295D01*
Y5242D01*
D02*
G37*
G36*
X4305D02*
Y5205D01*
X4342D01*
X4341Y5211D01*
X4337Y5221D01*
X4330Y5230D01*
X4321Y5237D01*
X4311Y5241D01*
X4305Y5242D01*
D02*
G37*
G36*
X2495Y5325D02*
X2457D01*
X2458Y5319D01*
X2462Y5308D01*
X2469Y5299D01*
X2478Y5292D01*
X2489Y5288D01*
X2495Y5287D01*
Y5325D01*
D02*
G37*
G36*
X4242Y5242D02*
X4205D01*
Y5205D01*
X4242D01*
Y5242D01*
D02*
G37*
G36*
X3795Y5242D02*
X3789Y5241D01*
X3779Y5237D01*
X3770Y5230D01*
X3763Y5221D01*
X3759Y5211D01*
X3758Y5205D01*
X3795D01*
Y5242D01*
D02*
G37*
G36*
X3805D02*
Y5205D01*
X3842D01*
X3841Y5211D01*
X3837Y5221D01*
X3830Y5230D01*
X3821Y5237D01*
X3811Y5241D01*
X3805Y5242D01*
D02*
G37*
G36*
X4195Y5242D02*
X4157D01*
Y5205D01*
X4195D01*
Y5242D01*
D02*
G37*
%LPD*%
D10*
X2100Y3200D02*
Y5300D01*
Y3200D02*
X2400D01*
Y3000D02*
Y3200D01*
Y3000D02*
X4100D01*
Y3200D01*
X4380D01*
Y5300D01*
X4100D02*
X4380D01*
X4100D02*
Y5500D01*
X2400D02*
X4100D01*
X2400Y5300D02*
Y5500D01*
X2100Y5300D02*
X2400D01*
D11*
X2749Y4748D02*
X3151D01*
X3200Y4700D01*
X3249Y4748D01*
X3651D01*
X3749Y5148D02*
X4146D01*
X4203Y5091D01*
X2749Y5148D02*
X3151D01*
X3700Y5100D02*
X3749Y5148D01*
X3651D02*
X3700Y5100D01*
X3249Y5148D02*
X3651D01*
X3200Y5100D02*
X3249Y5148D01*
X3151D02*
X3200Y5100D01*
X2700D02*
X2749Y5148D01*
X2651D02*
X2700Y5100D01*
X2249Y5148D02*
X2651D01*
X2200Y5100D02*
X2249Y5148D01*
X2200Y5000D02*
X2249Y5049D01*
X2651D01*
X2700Y5000D01*
X2749Y5049D01*
X3151D01*
X3200Y5000D01*
X3249Y5049D01*
X3651D01*
X3700Y5000D01*
X3749Y5049D01*
X4152D01*
X4200Y5000D01*
X4152Y4949D02*
X4200Y4900D01*
X3749Y4949D02*
X4152D01*
X3700Y4900D02*
X3749Y4949D01*
X3651D02*
X3700Y4900D01*
X3249Y4949D02*
X3651D01*
X3200Y4900D02*
X3249Y4949D01*
X3151D02*
X3200Y4900D01*
X2749Y4949D02*
X3151D01*
X2700Y4900D02*
X2749Y4949D01*
X2651D02*
X2700Y4900D01*
X2249Y4949D02*
X2651D01*
X2200Y4900D02*
X2249Y4949D01*
X2200Y4800D02*
X2249Y4848D01*
X2651D01*
X2700Y4800D01*
X2749Y4848D01*
X3151D01*
X3200Y4800D01*
X3249Y4848D01*
X3651D01*
X3700Y4800D01*
X3749Y4848D01*
X4152D01*
X4200Y4800D01*
X4152Y4748D02*
X4200Y4700D01*
X3749Y4748D02*
X4152D01*
X3700Y4700D02*
X3749Y4748D01*
X3651D02*
X3700Y4700D01*
X2700D02*
X2749Y4748D01*
X2651D02*
X2700Y4700D01*
X2249Y4748D02*
X2651D01*
X2200Y4700D02*
X2249Y4748D01*
X2200Y4600D02*
X2249Y4648D01*
X2651D01*
X2700Y4600D01*
X2749Y4648D01*
X3151D01*
X3200Y4600D01*
X3249Y4648D01*
X3651D01*
X3700Y4600D01*
X3749Y4648D01*
X4152D01*
X4200Y4600D01*
X4152Y4549D02*
X4200Y4500D01*
X3749Y4549D02*
X4152D01*
X3700Y4500D02*
X3749Y4549D01*
X3651D02*
X3700Y4500D01*
X3249Y4549D02*
X3651D01*
X3200Y4500D02*
X3249Y4549D01*
X3151D02*
X3200Y4500D01*
X2749Y4549D02*
X3151D01*
X2700Y4500D02*
X2749Y4549D01*
X2651D02*
X2700Y4500D01*
X2249Y4549D02*
X2651D01*
X2200Y4500D02*
X2249Y4549D01*
X2200Y4400D02*
X2249Y4449D01*
X2651D01*
X2700Y4400D01*
X2749Y4449D01*
X3151D01*
X3200Y4400D01*
X3249Y4449D01*
X3651D01*
X3700Y4400D01*
X3749Y4449D01*
X4152D01*
X4200Y4400D01*
X4152Y4348D02*
X4200Y4300D01*
X3749Y4348D02*
X4152D01*
X3700Y4300D02*
X3749Y4348D01*
X3651D02*
X3700Y4300D01*
X3249Y4348D02*
X3651D01*
X3200Y4300D02*
X3249Y4348D01*
X3151D02*
X3200Y4300D01*
X2749Y4348D02*
X3151D01*
X2700Y4300D02*
X2749Y4348D01*
X2651D02*
X2700Y4300D01*
X2249Y4348D02*
X2651D01*
X2200Y4300D02*
X2249Y4348D01*
X2200Y4200D02*
X2249Y4248D01*
X2651D01*
X2700Y4200D01*
X2749Y4248D01*
X3151D01*
X3200Y4200D01*
X3249Y4248D01*
X3651D01*
X3700Y4200D01*
X3749Y4248D01*
X4152D01*
X4200Y4200D01*
X4152Y4148D02*
X4200Y4100D01*
X3749Y4148D02*
X4152D01*
X3700Y4100D02*
X3749Y4148D01*
X3651D02*
X3700Y4100D01*
X3249Y4148D02*
X3651D01*
X3200Y4100D02*
X3249Y4148D01*
X3151D02*
X3200Y4100D01*
X2750Y4148D02*
X3151D01*
X2702Y4100D02*
X2750Y4148D01*
X2700Y4100D02*
X2702D01*
X2651Y4148D02*
X2700Y4100D01*
X2249Y4148D02*
X2651D01*
X2200Y4100D02*
X2249Y4148D01*
X2200Y4000D02*
X2249Y4049D01*
X2651D01*
X2700Y4000D01*
X2749Y4049D01*
X3151D01*
X3200Y4000D01*
X3249Y4049D01*
X3651D01*
X3700Y4000D01*
X3749Y4049D01*
X4152D01*
X4200Y4000D01*
X4152Y3948D02*
X4200Y3900D01*
X3749Y3948D02*
X4152D01*
X3700Y3900D02*
X3749Y3948D01*
X3651D02*
X3700Y3900D01*
X3249Y3948D02*
X3651D01*
X3200Y3900D02*
X3249Y3948D01*
X3151D02*
X3200Y3900D01*
X2749Y3948D02*
X3151D01*
X2700Y3900D02*
X2749Y3948D01*
X2651D02*
X2700Y3900D01*
X2249Y3948D02*
X2651D01*
X2200Y3900D02*
X2249Y3948D01*
X2200Y3800D02*
X2249Y3849D01*
X2651D01*
X2700Y3800D01*
X2749Y3849D01*
X3151D01*
X3200Y3800D01*
X3249Y3849D01*
X3651D01*
X3700Y3800D01*
X3749Y3849D01*
X4152D01*
X4200Y3800D01*
X4152Y3749D02*
X4200Y3700D01*
X3749Y3749D02*
X4152D01*
X3700Y3700D02*
X3749Y3749D01*
X3651D02*
X3700Y3700D01*
X3249Y3749D02*
X3651D01*
X3200Y3700D02*
X3249Y3749D01*
X3151D02*
X3200Y3700D01*
X2749Y3749D02*
X3151D01*
X2700Y3700D02*
X2749Y3749D01*
X2651D02*
X2700Y3700D01*
X2249Y3749D02*
X2651D01*
X2200Y3700D02*
X2249Y3749D01*
X2200Y3600D02*
X2249Y3648D01*
X2651D01*
X2700Y3600D01*
X2749Y3648D01*
X3151D01*
X3200Y3600D01*
X3249Y3648D01*
X3651D01*
X3700Y3600D01*
X3749Y3648D01*
X4152D01*
X4200Y3600D01*
X4152Y3549D02*
X4200Y3500D01*
X3749Y3549D02*
X4152D01*
X3700Y3500D02*
X3749Y3549D01*
X3651D02*
X3700Y3500D01*
X3249Y3549D02*
X3651D01*
X3200Y3500D02*
X3249Y3549D01*
X3151D02*
X3200Y3500D01*
X2749Y3549D02*
X3151D01*
X2700Y3500D02*
X2749Y3549D01*
X2651D02*
X2700Y3500D01*
X2249Y3549D02*
X2651D01*
X2200Y3500D02*
X2249Y3549D01*
X2200Y3400D02*
X2249Y3448D01*
X2651D01*
X2700Y3400D01*
X2724Y3424D02*
X2749Y3448D01*
X3151D01*
X3200Y3400D01*
X3249Y3448D01*
X3651D01*
X3700Y3400D01*
X3749Y3448D01*
X4152D01*
X4200Y3400D01*
X3659Y3349D02*
X3700Y3308D01*
X4200Y3300D02*
Y3303D01*
X4155Y3349D02*
X4200Y3303D01*
X3740Y3349D02*
X4155D01*
X3700Y3308D02*
X3740Y3349D01*
X3249D02*
X3659D01*
X3200Y3300D02*
X3249Y3349D01*
X3151D02*
X3200Y3300D01*
X2749Y3349D02*
X3151D01*
X2700Y3300D02*
X2749Y3349D01*
X2651D02*
X2700Y3300D01*
X2249Y3349D02*
X2651D01*
X2200Y3300D02*
X2249Y3349D01*
D12*
X2300Y3300D02*
D03*
Y3400D02*
D03*
Y3500D02*
D03*
Y3600D02*
D03*
Y3700D02*
D03*
Y3800D02*
D03*
Y3900D02*
D03*
Y4000D02*
D03*
Y4100D02*
D03*
Y4200D02*
D03*
Y4300D02*
D03*
Y4400D02*
D03*
Y4500D02*
D03*
Y4600D02*
D03*
Y4700D02*
D03*
Y4800D02*
D03*
Y4900D02*
D03*
Y5000D02*
D03*
Y5100D02*
D03*
Y5200D02*
D03*
X2200Y3300D02*
D03*
Y3400D02*
D03*
Y3500D02*
D03*
Y3600D02*
D03*
Y3700D02*
D03*
Y3800D02*
D03*
Y3900D02*
D03*
Y4000D02*
D03*
Y4100D02*
D03*
Y4200D02*
D03*
Y4300D02*
D03*
Y4400D02*
D03*
Y4500D02*
D03*
Y4600D02*
D03*
Y4700D02*
D03*
Y4800D02*
D03*
Y4900D02*
D03*
Y5000D02*
D03*
Y5100D02*
D03*
X4300Y3300D02*
D03*
Y3400D02*
D03*
Y3500D02*
D03*
Y3600D02*
D03*
Y3700D02*
D03*
Y3800D02*
D03*
Y3900D02*
D03*
Y4000D02*
D03*
Y4100D02*
D03*
Y4200D02*
D03*
Y4300D02*
D03*
Y4400D02*
D03*
Y4500D02*
D03*
Y4600D02*
D03*
Y4700D02*
D03*
Y4800D02*
D03*
Y4900D02*
D03*
Y5000D02*
D03*
Y5100D02*
D03*
Y5200D02*
D03*
X4200Y3300D02*
D03*
Y3400D02*
D03*
Y3500D02*
D03*
Y3600D02*
D03*
Y3700D02*
D03*
Y3800D02*
D03*
Y3900D02*
D03*
Y4000D02*
D03*
Y4100D02*
D03*
Y4200D02*
D03*
Y4300D02*
D03*
Y4400D02*
D03*
Y4500D02*
D03*
Y4600D02*
D03*
Y4700D02*
D03*
Y4800D02*
D03*
Y4900D02*
D03*
Y5000D02*
D03*
Y5100D02*
D03*
X2800Y3300D02*
D03*
Y3400D02*
D03*
Y3500D02*
D03*
Y3600D02*
D03*
Y3700D02*
D03*
Y3800D02*
D03*
Y3900D02*
D03*
Y4000D02*
D03*
Y4100D02*
D03*
Y4200D02*
D03*
Y4300D02*
D03*
Y4400D02*
D03*
Y4500D02*
D03*
Y4600D02*
D03*
Y4700D02*
D03*
Y4800D02*
D03*
Y4900D02*
D03*
Y5000D02*
D03*
Y5100D02*
D03*
Y5200D02*
D03*
X2700Y3300D02*
D03*
Y3400D02*
D03*
Y3500D02*
D03*
Y3600D02*
D03*
Y3700D02*
D03*
Y3800D02*
D03*
Y3900D02*
D03*
Y4000D02*
D03*
Y4100D02*
D03*
Y4200D02*
D03*
Y4300D02*
D03*
Y4400D02*
D03*
Y4500D02*
D03*
Y4600D02*
D03*
Y4700D02*
D03*
Y4800D02*
D03*
Y4900D02*
D03*
Y5000D02*
D03*
Y5100D02*
D03*
X3800Y3300D02*
D03*
Y3400D02*
D03*
Y3500D02*
D03*
Y3600D02*
D03*
Y3700D02*
D03*
Y3800D02*
D03*
Y3900D02*
D03*
Y4000D02*
D03*
Y4100D02*
D03*
Y4200D02*
D03*
Y4300D02*
D03*
Y4400D02*
D03*
Y4500D02*
D03*
Y4600D02*
D03*
Y4700D02*
D03*
Y4800D02*
D03*
Y4900D02*
D03*
Y5000D02*
D03*
Y5100D02*
D03*
Y5200D02*
D03*
X3700Y3300D02*
D03*
Y3400D02*
D03*
Y3500D02*
D03*
Y3600D02*
D03*
Y3700D02*
D03*
Y3800D02*
D03*
Y3900D02*
D03*
Y4000D02*
D03*
Y4100D02*
D03*
Y4200D02*
D03*
Y4300D02*
D03*
Y4400D02*
D03*
Y4500D02*
D03*
Y4600D02*
D03*
Y4700D02*
D03*
Y4800D02*
D03*
Y4900D02*
D03*
Y5000D02*
D03*
Y5100D02*
D03*
X3300Y3300D02*
D03*
Y3400D02*
D03*
Y3500D02*
D03*
Y3600D02*
D03*
Y3700D02*
D03*
Y3800D02*
D03*
Y3900D02*
D03*
Y4000D02*
D03*
Y4100D02*
D03*
Y4200D02*
D03*
Y4300D02*
D03*
Y4400D02*
D03*
Y4500D02*
D03*
Y4600D02*
D03*
Y4700D02*
D03*
Y4800D02*
D03*
Y4900D02*
D03*
Y5000D02*
D03*
Y5100D02*
D03*
Y5200D02*
D03*
X3200Y3300D02*
D03*
Y3400D02*
D03*
Y3500D02*
D03*
Y3600D02*
D03*
Y3700D02*
D03*
Y3800D02*
D03*
Y3900D02*
D03*
Y4000D02*
D03*
Y4100D02*
D03*
Y4200D02*
D03*
Y4300D02*
D03*
Y4400D02*
D03*
Y4500D02*
D03*
Y4600D02*
D03*
Y4700D02*
D03*
Y4800D02*
D03*
Y4900D02*
D03*
Y5000D02*
D03*
Y5100D02*
D03*
D13*
X2200Y5200D02*
D03*
X4200D02*
D03*
X2700D02*
D03*
X3700D02*
D03*
X3200D02*
D03*
D14*
X4000Y5330D02*
D03*
Y5130D02*
D03*
X3500D02*
D03*
Y5330D02*
D03*
X3000D02*
D03*
Y5130D02*
D03*
X2500D02*
D03*
Y5330D02*
D03*
M02*
