%FSLAX23Y23*%
%MOIN*%
G70*
G01*
G75*
G04 Layer_Color=65535*
%ADD10C,0.010*%
%ADD11C,0.012*%
%ADD12C,0.065*%
%ADD13R,0.065X0.065*%
%ADD14C,0.066*%
%ADD15C,0.008*%
G36*
X3123Y3151D02*
Y3130D01*
X3134Y3120D01*
Y3067D01*
X3128Y3062D01*
X3108D01*
X3102Y3067D01*
Y3151D01*
X3108Y3157D01*
X3118D01*
X3123Y3151D01*
D02*
G37*
G36*
X3910Y3125D02*
X3879D01*
Y3109D01*
X3889Y3099D01*
Y3067D01*
X3884Y3062D01*
X3863D01*
X3858Y3067D01*
Y3131D01*
X3863Y3136D01*
X3910D01*
Y3125D01*
D02*
G37*
G36*
X2864D02*
X2833D01*
Y3109D01*
X2843Y3099D01*
Y3067D01*
X2837Y3062D01*
X2817D01*
X2811Y3067D01*
Y3131D01*
X2817Y3136D01*
X2864D01*
Y3125D01*
D02*
G37*
G36*
X2935Y3131D02*
Y3067D01*
X2929Y3062D01*
X2877D01*
X2871Y3067D01*
Y3131D01*
X2877Y3136D01*
X2929D01*
X2935Y3131D01*
D02*
G37*
G36*
X3847Y3131D02*
Y3099D01*
X3842Y3094D01*
X3815D01*
Y3073D01*
X3836D01*
Y3083D01*
X3847D01*
Y3067D01*
X3841Y3062D01*
X3789D01*
X3784Y3067D01*
Y3131D01*
X3789Y3136D01*
X3842D01*
X3847Y3131D01*
D02*
G37*
G36*
X3613D02*
Y3109D01*
X3623Y3099D01*
Y3067D01*
X3618Y3062D01*
X3565D01*
X3560Y3067D01*
Y3099D01*
X3565Y3104D01*
X3602D01*
Y3125D01*
X3571D01*
Y3115D01*
X3560D01*
Y3131D01*
X3565Y3136D01*
X3608D01*
X3613Y3131D01*
D02*
G37*
G36*
X3397Y3146D02*
X3355D01*
Y3125D01*
X3397D01*
Y3115D01*
X3366D01*
Y3073D01*
X3397D01*
Y3062D01*
X3339D01*
X3334Y3067D01*
Y3151D01*
X3339Y3157D01*
X3397D01*
Y3146D01*
D02*
G37*
G36*
X3770Y3152D02*
Y3067D01*
X3765Y3062D01*
X3712D01*
X3707Y3067D01*
Y3131D01*
X3712Y3136D01*
X3749D01*
Y3151D01*
X3754Y3157D01*
X3765D01*
X3770Y3152D01*
D02*
G37*
G36*
X3697Y3131D02*
Y3062D01*
X3686D01*
Y3125D01*
X3655D01*
Y3109D01*
X3665Y3099D01*
Y3067D01*
X3659Y3062D01*
X3639D01*
X3633Y3067D01*
Y3131D01*
X3639Y3136D01*
X3691D01*
X3697Y3131D01*
D02*
G37*
G36*
X2719Y3154D02*
Y3146D01*
X2717Y3144D01*
X2706D01*
X2705Y3146D01*
Y3154D01*
X2707Y3156D01*
X2717D01*
X2719Y3154D01*
D02*
G37*
G36*
X3075Y3130D02*
X3086Y3120D01*
Y3062D01*
X3075D01*
Y3115D01*
X3044D01*
Y3067D01*
X3038Y3062D01*
X3017D01*
X3012Y3067D01*
Y3151D01*
X3017Y3157D01*
X3028D01*
X3033Y3151D01*
Y3125D01*
X3065D01*
Y3157D01*
X3075D01*
Y3130D01*
D02*
G37*
G36*
X3250Y3151D02*
Y3067D01*
X3244Y3062D01*
X3234D01*
X3229Y3067D01*
Y3146D01*
X3207D01*
Y3062D01*
X3197D01*
Y3146D01*
X3166D01*
Y3130D01*
X3176Y3120D01*
Y3067D01*
X3170Y3062D01*
X3149D01*
X3144Y3067D01*
Y3151D01*
X3149Y3157D01*
X3197D01*
X3202Y3152D01*
X3207Y3157D01*
X3244D01*
X3250Y3151D01*
D02*
G37*
G36*
X2685D02*
Y3067D01*
X2680Y3062D01*
X2670D01*
X2665Y3067D01*
Y3146D01*
X2643D01*
Y3062D01*
X2633D01*
Y3146D01*
X2601D01*
Y3130D01*
X2611Y3120D01*
Y3067D01*
X2606Y3062D01*
X2585D01*
X2580Y3067D01*
Y3151D01*
X2585Y3157D01*
X2633D01*
X2638Y3152D01*
X2643Y3157D01*
X2680D01*
X2685Y3151D01*
D02*
G37*
G36*
X2801Y3131D02*
Y3115D01*
X2791D01*
Y3125D01*
X2759D01*
Y3109D01*
X2769Y3099D01*
Y3073D01*
X2791D01*
Y3083D01*
X2801D01*
Y3067D01*
X2796Y3062D01*
X2743D01*
X2738Y3067D01*
Y3131D01*
X2743Y3136D01*
X2796D01*
X2801Y3131D01*
D02*
G37*
G36*
X2996Y3104D02*
X2948D01*
Y3115D01*
X2996D01*
Y3104D01*
D02*
G37*
G36*
X2717Y3109D02*
X2727Y3099D01*
Y3067D01*
X2722Y3062D01*
X2712D01*
X2707Y3067D01*
Y3136D01*
X2717D01*
Y3109D01*
D02*
G37*
G36*
X3550Y3131D02*
Y3068D01*
X3545Y3062D01*
X3498D01*
Y3031D01*
X3487D01*
Y3131D01*
X3492Y3136D01*
X3545D01*
X3550Y3131D01*
D02*
G37*
G36*
X3474Y3104D02*
X3469Y3099D01*
X3474Y3094D01*
Y3062D01*
X3464D01*
Y3094D01*
X3442D01*
Y3067D01*
X3437Y3062D01*
X3416D01*
X3411Y3067D01*
Y3094D01*
X3416Y3099D01*
X3411Y3104D01*
Y3130D01*
X3416Y3136D01*
X3426D01*
X3432Y3131D01*
Y3104D01*
X3464D01*
Y3136D01*
X3474D01*
Y3104D01*
D02*
G37*
%LPC*%
G36*
X3749Y3125D02*
X3717D01*
Y3073D01*
X3739D01*
Y3099D01*
X3749Y3109D01*
Y3125D01*
D02*
G37*
G36*
X3836Y3125D02*
X3805D01*
Y3104D01*
X3836D01*
Y3125D01*
D02*
G37*
G36*
X3602Y3094D02*
X3581D01*
Y3073D01*
X3602D01*
Y3094D01*
D02*
G37*
G36*
X2924Y3125D02*
X2893D01*
Y3109D01*
X2903Y3099D01*
Y3073D01*
X2924D01*
Y3125D01*
D02*
G37*
G36*
X3540D02*
X3508D01*
Y3109D01*
X3519Y3099D01*
Y3073D01*
X3540D01*
Y3125D01*
D02*
G37*
%LPD*%
D10*
X2120Y3240D02*
X2360D01*
Y5260D01*
X2120Y3240D02*
Y5260D01*
X2360D01*
X4120Y3240D02*
X4360D01*
Y5260D01*
X4120Y3240D02*
Y5260D01*
X4360D01*
X2620Y3240D02*
X2860D01*
Y5260D01*
X2620Y3240D02*
Y5260D01*
X2860D01*
X3620Y3240D02*
X3860D01*
Y5260D01*
X3620Y3240D02*
Y5260D01*
X3860D01*
X3120Y3240D02*
X3360D01*
Y5260D01*
X3120Y3240D02*
Y5260D01*
X3360D01*
X4070Y5180D02*
X4090D01*
X4080D01*
Y5240D01*
X4070Y5230D01*
X2570Y5180D02*
X2590D01*
X2580D01*
Y5240D01*
X2570Y5230D01*
X3070Y5180D02*
X3090D01*
X3080D01*
Y5240D01*
X3070Y5230D01*
X3570Y5180D02*
X3590D01*
X3580D01*
Y5240D01*
X3570Y5230D01*
D15*
X4050Y5080D02*
Y5380D01*
X3950Y5080D02*
X4050D01*
X3950D02*
Y5380D01*
X4050D01*
X3450D02*
X3550D01*
X3450Y5080D02*
Y5380D01*
Y5080D02*
X3550D01*
Y5380D01*
X3050Y5080D02*
Y5380D01*
X2950Y5080D02*
X3050D01*
X2950D02*
Y5380D01*
X3050D01*
X2450D02*
X2550D01*
X2450Y5080D02*
Y5380D01*
Y5080D02*
X2550D01*
Y5380D01*
X3770Y5470D02*
Y5428D01*
X3778Y5420D01*
X3795D01*
X3803Y5428D01*
Y5470D01*
X3853Y5462D02*
X3845Y5470D01*
X3828D01*
X3820Y5462D01*
Y5453D01*
X3828Y5445D01*
X3845D01*
X3853Y5437D01*
Y5428D01*
X3845Y5420D01*
X3828D01*
X3820Y5428D01*
X3870Y5420D02*
Y5453D01*
X3887Y5470D01*
X3903Y5453D01*
Y5420D01*
Y5445D01*
X3870D01*
X2580Y5453D02*
Y5428D01*
X2588Y5420D01*
X2597Y5428D01*
X2605Y5420D01*
X2613Y5428D01*
Y5453D01*
X2630D02*
Y5428D01*
X2638Y5420D01*
X2647Y5428D01*
X2655Y5420D01*
X2663Y5428D01*
Y5453D01*
X2680D02*
Y5428D01*
X2688Y5420D01*
X2697Y5428D01*
X2705Y5420D01*
X2713Y5428D01*
Y5453D01*
X2730Y5420D02*
Y5428D01*
X2738D01*
Y5420D01*
X2730D01*
X2772Y5470D02*
Y5420D01*
X2797D01*
X2805Y5428D01*
Y5437D01*
Y5445D01*
X2797Y5453D01*
X2772D01*
X2822D02*
Y5420D01*
Y5437D01*
X2830Y5445D01*
X2838Y5453D01*
X2847D01*
X2872Y5420D02*
X2888D01*
X2880D01*
Y5453D01*
X2872D01*
X2938Y5420D02*
X2922D01*
X2913Y5428D01*
Y5445D01*
X2922Y5453D01*
X2938D01*
X2947Y5445D01*
Y5437D01*
X2913D01*
X2963Y5420D02*
X2980D01*
X2972D01*
Y5470D01*
X2963D01*
X3038Y5453D02*
X3013D01*
X3005Y5445D01*
Y5428D01*
X3013Y5420D01*
X3038D01*
X3063D02*
X3080D01*
X3088Y5428D01*
Y5445D01*
X3080Y5453D01*
X3063D01*
X3055Y5445D01*
Y5428D01*
X3063Y5420D01*
X3105D02*
Y5453D01*
X3113D01*
X3121Y5445D01*
Y5420D01*
Y5445D01*
X3130Y5453D01*
X3138Y5445D01*
Y5420D01*
X3155Y5403D02*
Y5453D01*
X3180D01*
X3188Y5445D01*
Y5428D01*
X3180Y5420D01*
X3155D01*
X3205Y5453D02*
Y5428D01*
X3213Y5420D01*
X3238D01*
Y5453D01*
X3263Y5462D02*
Y5453D01*
X3255D01*
X3271D01*
X3263D01*
Y5428D01*
X3271Y5420D01*
X3321D02*
X3305D01*
X3296Y5428D01*
Y5445D01*
X3305Y5453D01*
X3321D01*
X3330Y5445D01*
Y5437D01*
X3296D01*
X3346Y5453D02*
Y5420D01*
Y5437D01*
X3355Y5445D01*
X3363Y5453D01*
X3371D01*
X3396Y5420D02*
X3421D01*
X3430Y5428D01*
X3421Y5437D01*
X3405D01*
X3396Y5445D01*
X3405Y5453D01*
X3430D01*
X3446Y5420D02*
Y5428D01*
X3455D01*
Y5420D01*
X3446D01*
X3521Y5453D02*
X3496D01*
X3488Y5445D01*
Y5428D01*
X3496Y5420D01*
X3521D01*
X3546D02*
X3563D01*
X3571Y5428D01*
Y5445D01*
X3563Y5453D01*
X3546D01*
X3538Y5445D01*
Y5428D01*
X3546Y5420D01*
X3588D02*
Y5453D01*
X3596D01*
X3605Y5445D01*
Y5420D01*
Y5445D01*
X3613Y5453D01*
X3621Y5445D01*
Y5420D01*
X3989Y5044D02*
X3981Y5052D01*
X3964D01*
X3956Y5044D01*
Y5010D01*
X3964Y5002D01*
X3981D01*
X3989Y5010D01*
X4031Y5002D02*
Y5052D01*
X4006Y5027D01*
X4039D01*
X3486Y5044D02*
X3478Y5052D01*
X3461D01*
X3453Y5044D01*
Y5010D01*
X3461Y5002D01*
X3478D01*
X3486Y5010D01*
X3503Y5044D02*
X3511Y5052D01*
X3528D01*
X3536Y5044D01*
Y5035D01*
X3528Y5027D01*
X3520D01*
X3528D01*
X3536Y5019D01*
Y5010D01*
X3528Y5002D01*
X3511D01*
X3503Y5010D01*
X2985Y5042D02*
X2977Y5050D01*
X2960D01*
X2952Y5042D01*
Y5008D01*
X2960Y5000D01*
X2977D01*
X2985Y5008D01*
X3035Y5000D02*
X3002D01*
X3035Y5033D01*
Y5042D01*
X3027Y5050D01*
X3010D01*
X3002Y5042D01*
X2495Y5045D02*
X2487Y5053D01*
X2470D01*
X2462Y5045D01*
Y5011D01*
X2470Y5003D01*
X2487D01*
X2495Y5011D01*
X2512Y5003D02*
X2529D01*
X2520D01*
Y5053D01*
X2512Y5045D01*
M02*
