M48
;Layer_Color=9474304
;FILE_FORMAT=2:3
INCH,TZ
;TYPE=PLATED
T1F00S00C0.015
T2F00S00C0.016
T3F00S00C0.028
T4F00S00C0.029
T5F00S00C0.033
T6F00S00C0.035
%
T01
X3802Y3028
X3500Y3474
X3465Y3494
X3479Y3728
X3353Y3921
X3358Y4047
X3634Y4013
X3669Y4100
X3700Y4261
X3834Y4178
X3902Y4167
X3804Y4023
X3823Y3902
X4522Y3355
T02
X3145Y3926
Y4051
T03
X3700Y3650
X3900
T04
X2100Y3800
X2200
X2300
X2400
X2500
X2600
X2700
X2800
X2900
X3000
X3100
Y3650
X3000
X2900
Y3350
X3000
X3100
Y4400
X3000
X2900
X2800
X2700
X2600
X2500
X2400
X2300
X2200
X2100
X3200
X3300
X3400
X3500
X3600
X3700
X3800
X3900
X4000
Y3800
X3900
X3800
X3700
X3600
X3500
X3400
X3300
X3200
Y3650
X3300
X3400
X3500
Y3350
X3400
X3300
X3200
T05
X3700Y3350
X3900
T06
X4695Y3090
X4795
X4895
X4400Y3100
X4300
X4000
X3900
X3800
X3700
X3600
X3500
X3400
X3300
X3200
X3100
X3000
X2900
X2800
X2700
X2600
X2500
X2400
X2300
X2200
X2100
Y3200
X2200
X2300
X2400
X2500
X2600
X2700
X2800
X2900
X3000
X3100
X3200
X3300
X3400
X3500
X3600
X3700
X3800
X3900
X4000
X4300
Y3300
Y3400
Y3500
Y3600
Y3700
Y3800
Y3900
Y4000
X4400
Y3900
Y3800
Y3700
Y3600
Y3500
Y3400
Y3300
Y3200
X4695Y3190
X4795
X4895
Y3290
X4795
X4695
Y3390
X4795
X4895
Y3490
X4795
X4695
Y3590
X4795
X4895
Y3690
X4795
X4695
Y3790
X4795
X4895
Y3890
X4795
X4695
Y3990
Y4090
Y4190
Y4290
Y4390
X4795
Y4290
Y4190
Y4090
Y3990
X4895
Y4090
Y4190
Y4290
Y4390
M30
