%FSLAX23Y23*%
%MOIN*%
G70*
G01*
G75*
G04 Layer_Physical_Order=2*
G04 Layer_Color=16711680*
%ADD10C,0.008*%
%ADD11C,0.020*%
%ADD12O,0.050X0.100*%
%ADD13R,0.050X0.100*%
%ADD14C,0.065*%
%ADD15R,0.065X0.065*%
%ADD16R,0.065X0.065*%
%ADD17C,0.066*%
%ADD18C,0.032*%
G36*
X3967Y4405D02*
X4033D01*
Y4442D01*
X4036Y4443D01*
X4040Y4441D01*
Y3607D01*
X4040Y3607D01*
X4040D01*
X4041Y3602D01*
X4044Y3598D01*
X4195Y3446D01*
X4195Y3446D01*
X4195D01*
X4195Y3446D01*
X4195D01*
X4195Y3446D01*
Y3446D01*
Y3446D01*
D01*
D01*
X4195D01*
Y3446D01*
X4199Y3444D01*
X4204Y3443D01*
X4285D01*
X4286Y3438D01*
X4280Y3435D01*
X4271Y3429D01*
X4265Y3420D01*
X4261Y3411D01*
X4259Y3400D01*
X4261Y3389D01*
X4265Y3380D01*
X4271Y3371D01*
X4280Y3365D01*
X4289Y3361D01*
X4300Y3359D01*
X4311Y3361D01*
X4319Y3364D01*
X4336Y3346D01*
X4336Y3346D01*
X4336D01*
X4336Y3346D01*
X4336D01*
X4336Y3346D01*
Y3346D01*
Y3346D01*
D01*
D01*
X4336D01*
Y3346D01*
X4340Y3344D01*
X4345Y3343D01*
X4385D01*
X4386Y3338D01*
X4380Y3335D01*
X4371Y3329D01*
X4365Y3320D01*
X4361Y3311D01*
X4359Y3300D01*
X4361Y3289D01*
X4365Y3280D01*
X4371Y3271D01*
X4371Y3271D01*
X4370Y3266D01*
X4330D01*
X4329Y3271D01*
X4329Y3271D01*
X4335Y3280D01*
X4339Y3289D01*
X4341Y3300D01*
X4339Y3311D01*
X4335Y3320D01*
X4329Y3329D01*
X4320Y3335D01*
X4311Y3339D01*
X4300Y3341D01*
X4289Y3339D01*
X4280Y3335D01*
X4271Y3329D01*
X4265Y3320D01*
X4261Y3311D01*
X4259Y3300D01*
X4261Y3289D01*
X4265Y3280D01*
X4271Y3271D01*
X4271Y3271D01*
X4270Y3266D01*
X4068D01*
X4012Y3322D01*
Y3744D01*
X4017Y3746D01*
X4024Y3751D01*
X4029Y3758D01*
X4032Y3766D01*
X4033Y3775D01*
Y3825D01*
X4032Y3834D01*
X4029Y3842D01*
X4024Y3849D01*
X4017Y3854D01*
X4009Y3857D01*
X4000Y3858D01*
X3991Y3857D01*
X3983Y3854D01*
X3976Y3849D01*
X3971Y3842D01*
X3968Y3834D01*
X3967Y3825D01*
Y3775D01*
X3968Y3766D01*
X3971Y3758D01*
X3976Y3751D01*
X3983Y3746D01*
X3988Y3744D01*
Y3317D01*
X3988Y3317D01*
X3988D01*
X3989Y3312D01*
X3991Y3308D01*
X4054Y3245D01*
X4057Y3244D01*
X4058Y3243D01*
X4063Y3242D01*
X4282D01*
X4283Y3237D01*
X4280Y3235D01*
X4271Y3229D01*
X4265Y3220D01*
X4261Y3211D01*
X4259Y3200D01*
X4261Y3189D01*
X4265Y3180D01*
X4271Y3171D01*
X4280Y3165D01*
X4289Y3161D01*
X4300Y3159D01*
X4311Y3161D01*
X4320Y3165D01*
X4329Y3171D01*
X4335Y3180D01*
X4339Y3189D01*
X4341Y3200D01*
X4339Y3211D01*
X4335Y3220D01*
X4329Y3229D01*
X4320Y3235D01*
X4317Y3237D01*
X4318Y3242D01*
X4382D01*
X4383Y3237D01*
X4380Y3235D01*
X4371Y3229D01*
X4365Y3220D01*
X4361Y3211D01*
X4359Y3200D01*
X4361Y3189D01*
X4365Y3180D01*
X4371Y3171D01*
X4380Y3165D01*
X4389Y3161D01*
X4400Y3159D01*
X4411Y3161D01*
X4420Y3165D01*
X4428Y3171D01*
X4433Y3168D01*
Y3132D01*
X4428Y3129D01*
X4420Y3135D01*
X4411Y3139D01*
X4405Y3140D01*
Y3100D01*
Y3060D01*
X4411Y3061D01*
X4420Y3065D01*
X4428Y3071D01*
X4433Y3068D01*
Y3060D01*
X4414Y3041D01*
X3822D01*
X3819Y3045D01*
X3811Y3051D01*
X3802Y3052D01*
X3800Y3054D01*
Y3059D01*
X3811Y3061D01*
X3820Y3065D01*
X3829Y3071D01*
X3835Y3080D01*
X3839Y3089D01*
X3841Y3100D01*
X3839Y3111D01*
X3835Y3120D01*
X3829Y3129D01*
X3820Y3135D01*
X3821Y3138D01*
X3875D01*
X3877Y3133D01*
X3871Y3129D01*
X3865Y3120D01*
X3861Y3111D01*
X3859Y3100D01*
X3861Y3089D01*
X3865Y3080D01*
X3871Y3071D01*
X3880Y3065D01*
X3889Y3061D01*
X3900Y3059D01*
X3911Y3061D01*
X3920Y3065D01*
X3929Y3071D01*
X3935Y3080D01*
X3939Y3089D01*
X3941Y3100D01*
X3939Y3111D01*
X3935Y3120D01*
X3929Y3129D01*
X3920Y3135D01*
X3921Y3138D01*
X3927D01*
X3932Y3139D01*
X3936Y3141D01*
X3954Y3159D01*
X3956Y3163D01*
X3957Y3168D01*
Y3185D01*
X3962Y3186D01*
X3965Y3180D01*
X3971Y3171D01*
X3980Y3165D01*
X3989Y3161D01*
X3995Y3160D01*
Y3200D01*
Y3240D01*
X3989Y3239D01*
X3980Y3235D01*
X3971Y3229D01*
X3965Y3220D01*
X3962Y3214D01*
X3957Y3215D01*
Y3227D01*
X3956Y3232D01*
X3954Y3236D01*
X3881Y3308D01*
X3884Y3312D01*
X3889Y3310D01*
X3895Y3309D01*
Y3350D01*
Y3391D01*
X3889Y3390D01*
X3879Y3386D01*
X3871Y3379D01*
X3870Y3378D01*
X3865Y3380D01*
Y3407D01*
X3864Y3412D01*
X3862Y3416D01*
X3800Y3477D01*
Y3742D01*
X3809Y3743D01*
X3817Y3746D01*
X3824Y3751D01*
X3829Y3758D01*
X3832Y3766D01*
X3833Y3775D01*
Y3825D01*
X3832Y3834D01*
X3829Y3842D01*
X3824Y3849D01*
X3817Y3854D01*
X3812Y3856D01*
X3811Y3859D01*
X3809Y3863D01*
X3803Y3869D01*
X3803Y3870D01*
X3808Y3871D01*
X3812Y3873D01*
X3817Y3879D01*
X3823Y3878D01*
X3832Y3879D01*
X3840Y3885D01*
X3846Y3893D01*
X3847Y3902D01*
X3846Y3911D01*
X3840Y3919D01*
X3832Y3925D01*
X3830Y3925D01*
X3828Y3930D01*
X3987Y4088D01*
X3989Y4092D01*
X3990Y4097D01*
Y4222D01*
X3989Y4227D01*
X3987Y4231D01*
X3833Y4384D01*
Y4425D01*
X3832Y4434D01*
X3829Y4442D01*
X3824Y4449D01*
X3824Y4450D01*
X3872D01*
X3874Y4445D01*
X3871Y4442D01*
X3868Y4434D01*
X3867Y4425D01*
Y4375D01*
X3868Y4366D01*
X3871Y4358D01*
X3876Y4351D01*
X3883Y4346D01*
X3891Y4343D01*
X3900Y4342D01*
X3909Y4343D01*
X3917Y4346D01*
X3924Y4351D01*
X3929Y4358D01*
X3932Y4366D01*
X3933Y4375D01*
Y4425D01*
X3932Y4434D01*
X3929Y4442D01*
X3924Y4449D01*
X3924Y4450D01*
X3967D01*
Y4405D01*
D02*
G37*
%LPC*%
G36*
X4041Y3141D02*
X4005D01*
Y3105D01*
X4041D01*
Y3141D01*
D02*
G37*
G36*
X3995D02*
X3960D01*
Y3105D01*
X3995D01*
Y3141D01*
D02*
G37*
G36*
X4295Y3140D02*
X4289Y3139D01*
X4280Y3135D01*
X4271Y3129D01*
X4265Y3120D01*
X4261Y3111D01*
X4260Y3105D01*
X4295D01*
Y3140D01*
D02*
G37*
G36*
X4305D02*
Y3105D01*
X4340D01*
X4339Y3111D01*
X4335Y3120D01*
X4329Y3129D01*
X4320Y3135D01*
X4311Y3139D01*
X4305Y3140D01*
D02*
G37*
G36*
X4395D02*
X4389Y3139D01*
X4380Y3135D01*
X4371Y3129D01*
X4365Y3120D01*
X4361Y3111D01*
X4360Y3105D01*
X4395D01*
Y3140D01*
D02*
G37*
G36*
X4041Y3095D02*
X4005D01*
Y3059D01*
X4041D01*
Y3095D01*
D02*
G37*
G36*
X3995D02*
X3960D01*
Y3059D01*
X3995D01*
Y3095D01*
D02*
G37*
G36*
X4295D02*
X4260D01*
X4261Y3089D01*
X4265Y3080D01*
X4271Y3071D01*
X4280Y3065D01*
X4289Y3061D01*
X4295Y3060D01*
Y3095D01*
D02*
G37*
G36*
X4395D02*
X4360D01*
X4361Y3089D01*
X4365Y3080D01*
X4371Y3071D01*
X4380Y3065D01*
X4389Y3061D01*
X4395Y3060D01*
Y3095D01*
D02*
G37*
G36*
X4340D02*
X4305D01*
Y3060D01*
X4311Y3061D01*
X4320Y3065D01*
X4329Y3071D01*
X4335Y3080D01*
X4339Y3089D01*
X4340Y3095D01*
D02*
G37*
G36*
X4040Y3195D02*
X4005D01*
Y3160D01*
X4011Y3161D01*
X4020Y3165D01*
X4029Y3171D01*
X4035Y3180D01*
X4039Y3189D01*
X4040Y3195D01*
D02*
G37*
G36*
X3905Y3690D02*
Y3655D01*
X3940D01*
X3939Y3661D01*
X3935Y3670D01*
X3929Y3679D01*
X3920Y3685D01*
X3911Y3689D01*
X3905Y3690D01*
D02*
G37*
G36*
X3895D02*
X3889Y3689D01*
X3880Y3685D01*
X3871Y3679D01*
X3865Y3670D01*
X3861Y3661D01*
X3860Y3655D01*
X3895D01*
Y3690D01*
D02*
G37*
G36*
X3900Y3858D02*
X3891Y3857D01*
X3883Y3854D01*
X3876Y3849D01*
X3871Y3842D01*
X3868Y3834D01*
X3867Y3825D01*
Y3775D01*
X3868Y3766D01*
X3871Y3758D01*
X3876Y3751D01*
X3883Y3746D01*
X3891Y3743D01*
X3900Y3742D01*
X3909Y3743D01*
X3917Y3746D01*
X3924Y3751D01*
X3929Y3758D01*
X3932Y3766D01*
X3933Y3775D01*
Y3825D01*
X3932Y3834D01*
X3929Y3842D01*
X3924Y3849D01*
X3917Y3854D01*
X3909Y3857D01*
X3900Y3858D01*
D02*
G37*
G36*
X4033Y4395D02*
X4005D01*
Y4342D01*
X4033D01*
Y4395D01*
D02*
G37*
G36*
X3995D02*
X3967D01*
Y4342D01*
X3995D01*
Y4395D01*
D02*
G37*
G36*
X3941Y3345D02*
X3905D01*
Y3309D01*
X3911Y3310D01*
X3921Y3314D01*
X3929Y3321D01*
X3936Y3329D01*
X3940Y3339D01*
X3941Y3345D01*
D02*
G37*
G36*
X4005Y3240D02*
Y3205D01*
X4040D01*
X4039Y3211D01*
X4035Y3220D01*
X4029Y3229D01*
X4020Y3235D01*
X4011Y3239D01*
X4005Y3240D01*
D02*
G37*
G36*
X3905Y3391D02*
Y3355D01*
X3941D01*
X3940Y3361D01*
X3936Y3371D01*
X3929Y3379D01*
X3921Y3386D01*
X3911Y3390D01*
X3905Y3391D01*
D02*
G37*
G36*
X3940Y3645D02*
X3905D01*
Y3610D01*
X3911Y3611D01*
X3920Y3615D01*
X3929Y3621D01*
X3935Y3630D01*
X3939Y3639D01*
X3940Y3645D01*
D02*
G37*
G36*
X3895D02*
X3860D01*
X3861Y3639D01*
X3865Y3630D01*
X3871Y3621D01*
X3880Y3615D01*
X3889Y3611D01*
X3895Y3610D01*
Y3645D01*
D02*
G37*
%LPD*%
D10*
X3552Y3148D02*
X3600Y3100D01*
X3802Y3029D02*
X4419D01*
X2100Y3200D02*
X2500Y3600D01*
Y3800D01*
X2600Y3100D02*
X2650Y3150D01*
Y3750D01*
X2700Y3800D01*
Y3100D02*
X2750Y3150D01*
Y3261D01*
X2844Y3355D01*
Y3744D01*
X2900Y3800D01*
X3145Y3595D02*
Y3926D01*
Y3595D02*
X3212Y3528D01*
X3143Y4053D02*
X3169Y4079D01*
X3612Y3288D02*
X3700Y3200D01*
X3212Y3528D02*
X3549D01*
X3612Y3465D01*
Y3288D02*
Y3465D01*
X3680Y3305D02*
X3695D01*
X3648Y3337D02*
X3680Y3305D01*
X2700Y3200D02*
Y3477D01*
X2800Y3577D01*
Y3800D01*
X2600Y3200D02*
Y3800D01*
X2453Y3759D02*
Y3934D01*
X2419Y3725D02*
X2453Y3759D01*
Y3935D02*
X2489Y3971D01*
X2100Y3789D02*
X2164Y3725D01*
X3642Y4079D02*
X3660Y4061D01*
X3169Y4079D02*
X3642D01*
X3660Y4061D02*
X3681D01*
X2281Y4019D02*
X3628D01*
X3811Y4305D02*
X3931Y4185D01*
X3694Y3985D02*
X3834Y4125D01*
X3704Y3969D02*
X3902Y4167D01*
X3769Y3921D02*
X3962Y4114D01*
X3805Y4023D02*
X3816D01*
X3758Y3937D02*
X3931Y4110D01*
X3800Y4400D02*
X3978Y4222D01*
Y4097D02*
Y4222D01*
X3784Y3903D02*
X3978Y4097D01*
X3424Y3903D02*
X3784D01*
X3363Y3842D02*
X3424Y3903D01*
X3363Y3757D02*
Y3842D01*
Y3757D02*
X3400Y3720D01*
Y3650D02*
Y3720D01*
X2200Y3800D02*
Y3938D01*
X2281Y4019D01*
X3628D02*
X3634Y4013D01*
X2300Y3800D02*
Y3944D01*
X2359Y4003D01*
X3588D01*
X3606Y3985D01*
X3694D01*
X3834Y4125D02*
Y4178D01*
X3400Y3743D02*
Y3800D01*
Y3743D02*
X3449Y3694D01*
Y3598D02*
Y3694D01*
Y3598D02*
X3467Y3580D01*
X3639D01*
X3830Y3389D01*
Y3270D02*
Y3389D01*
Y3270D02*
X3900Y3200D01*
X3803Y3882D02*
X3823Y3902D01*
X3488Y3882D02*
X3803D01*
X3463Y3857D02*
X3488Y3882D01*
X3463Y3744D02*
Y3857D01*
Y3744D02*
X3479Y3728D01*
X3081Y3494D02*
X3465D01*
X3043Y3456D02*
X3081Y3494D01*
X3043Y3243D02*
Y3456D01*
X3000Y3200D02*
X3043Y3243D01*
X2200Y3100D02*
X2245Y3055D01*
X2421D01*
X2423Y3057D01*
X2477D01*
X2479Y3055D01*
X3733D01*
X3750Y3072D01*
Y3124D01*
X3776Y3150D01*
X3927D01*
X3945Y3168D01*
Y3227D01*
X3853Y3319D02*
X3945Y3227D01*
X3853Y3319D02*
Y3407D01*
X3655Y3605D02*
X3853Y3407D01*
X3655Y3605D02*
Y3854D01*
X3663Y3862D01*
X3792D01*
X3800Y3854D01*
Y3800D02*
Y3854D01*
X3400Y4345D02*
Y4400D01*
Y4345D02*
X3456Y4289D01*
X3712D01*
X3740Y4261D01*
Y4064D02*
Y4261D01*
X3717Y4041D02*
X3740Y4064D01*
X3364Y4041D02*
X3717D01*
X3358Y4047D02*
X3364Y4041D01*
X3695Y3305D02*
X3800Y3200D01*
X3648Y3337D02*
Y3485D01*
X3574Y3559D02*
X3648Y3485D01*
X3396Y3559D02*
X3574D01*
X3338Y3617D02*
X3396Y3559D01*
X3338Y3617D02*
Y3867D01*
X3314Y3891D02*
X3338Y3867D01*
X3314Y3891D02*
Y3937D01*
X3332Y3955D01*
X3540D01*
X3558Y3937D01*
X3758D01*
X3931Y4110D02*
Y4185D01*
X3506Y4305D02*
X3811D01*
X3500Y4311D02*
X3506Y4305D01*
X3500Y4311D02*
Y4400D01*
X3353Y3921D02*
X3769D01*
X3962Y4114D02*
Y4188D01*
X3825Y4325D02*
X3962Y4188D01*
X3620Y4325D02*
X3825D01*
X3600Y4345D02*
X3620Y4325D01*
X3600Y4345D02*
Y4400D01*
X2100Y3789D02*
Y3800D01*
X2164Y3725D02*
X2419D01*
X2489Y3971D02*
X3556D01*
X3574Y3953D01*
X3735D01*
X3805Y4023D01*
X4355Y3455D02*
X4400Y3500D01*
X4204Y3455D02*
X4355D01*
X4052Y3607D02*
X4204Y3455D01*
X4052Y3607D02*
Y4447D01*
X4037Y4462D02*
X4052Y4447D01*
X2976Y4462D02*
X4037D01*
X2954Y4440D02*
X2976Y4462D01*
X2954Y4364D02*
Y4440D01*
X2920Y4330D02*
X2954Y4364D01*
X2312Y4330D02*
X2920D01*
X2300Y4342D02*
X2312Y4330D01*
X2300Y4342D02*
Y4400D01*
X2200Y4140D02*
Y4400D01*
Y4140D02*
X2240Y4100D01*
X3669D01*
X3681Y4061D02*
X3700Y4080D01*
Y4261D01*
X3590Y3969D02*
X3704D01*
X3572Y3987D02*
X3590Y3969D01*
X2445Y3987D02*
X3572D01*
X2400Y3942D02*
X2445Y3987D01*
X2400Y3800D02*
Y3942D01*
X4109Y3691D02*
X4300Y3500D01*
X4109Y3691D02*
Y4429D01*
X4060Y4478D02*
X4109Y4429D01*
X2811Y4478D02*
X4060D01*
X2800Y4467D02*
X2811Y4478D01*
X2800Y4400D02*
Y4467D01*
X3500Y3474D02*
X3552Y3422D01*
Y3148D02*
Y3422D01*
X4000Y3317D02*
Y3800D01*
Y3317D02*
X4063Y3254D01*
X4423D01*
X4445Y3232D01*
Y3055D02*
Y3232D01*
X4419Y3029D02*
X4445Y3055D01*
X4345Y3355D02*
X4522D01*
X4300Y3400D02*
X4345Y3355D01*
D11*
X3857Y3693D02*
Y3921D01*
X3825Y3725D02*
X3857Y3693D01*
X3900Y3650D01*
X4000Y4064D02*
Y4400D01*
X3857Y3921D02*
X4000Y4064D01*
X3857Y3693D02*
X3900Y3650D01*
Y3350D02*
Y3650D01*
X3700Y3744D02*
Y3800D01*
Y3744D02*
X3719Y3725D01*
X3825D01*
X4300Y3100D02*
X4400D01*
X4000D02*
X4300D01*
X4000D02*
Y3200D01*
Y3250D01*
X3900Y3350D02*
X4000Y3250D01*
D12*
X3700Y3800D02*
D03*
X3800D02*
D03*
X3900Y4400D02*
D03*
X3800D02*
D03*
X3700D02*
D03*
X3600D02*
D03*
X3500D02*
D03*
X3400D02*
D03*
X2100D02*
D03*
X4000Y3800D02*
D03*
X3900D02*
D03*
X3600D02*
D03*
X3500D02*
D03*
X3400D02*
D03*
X3300D02*
D03*
X3200D02*
D03*
X3100D02*
D03*
X3000D02*
D03*
X2900D02*
D03*
X2800D02*
D03*
X2700D02*
D03*
X2600D02*
D03*
X2500D02*
D03*
X3300Y4400D02*
D03*
X3200D02*
D03*
X3100D02*
D03*
X3000D02*
D03*
X2900D02*
D03*
X2800D02*
D03*
X2700D02*
D03*
X2600D02*
D03*
X2400Y3800D02*
D03*
X2300D02*
D03*
X2200D02*
D03*
X2100D02*
D03*
X2200Y4400D02*
D03*
X2300D02*
D03*
X2400D02*
D03*
X2500D02*
D03*
X3400Y3650D02*
D03*
X3300D02*
D03*
X3200D02*
D03*
X3100D02*
D03*
X3000D02*
D03*
X2900D02*
D03*
X3500Y3350D02*
D03*
X3400D02*
D03*
X3300D02*
D03*
X3200D02*
D03*
X3100D02*
D03*
X3000D02*
D03*
X2900D02*
D03*
D13*
X4000Y4400D02*
D03*
X3500Y3650D02*
D03*
D14*
X2100Y3100D02*
D03*
X2200D02*
D03*
X2300D02*
D03*
X2400D02*
D03*
X2500D02*
D03*
X2600D02*
D03*
X2700D02*
D03*
X2800D02*
D03*
X2900D02*
D03*
X3000D02*
D03*
X3100D02*
D03*
X3200D02*
D03*
X3300D02*
D03*
X3400D02*
D03*
X3500D02*
D03*
X3600D02*
D03*
X3700D02*
D03*
X3800D02*
D03*
X3900D02*
D03*
X2100Y3200D02*
D03*
X2200D02*
D03*
X2300D02*
D03*
X2400D02*
D03*
X2500D02*
D03*
X2600D02*
D03*
X2700D02*
D03*
X2800D02*
D03*
X2900D02*
D03*
X3000D02*
D03*
X3100D02*
D03*
X3200D02*
D03*
X3300D02*
D03*
X3400D02*
D03*
X3500D02*
D03*
X3600D02*
D03*
X3700D02*
D03*
X3800D02*
D03*
X3900D02*
D03*
X4000D02*
D03*
X4300Y3900D02*
D03*
Y3800D02*
D03*
Y3700D02*
D03*
Y3600D02*
D03*
Y3500D02*
D03*
Y3400D02*
D03*
Y3300D02*
D03*
Y3100D02*
D03*
X4400Y4000D02*
D03*
Y3900D02*
D03*
Y3800D02*
D03*
Y3700D02*
D03*
Y3600D02*
D03*
Y3500D02*
D03*
Y3400D02*
D03*
Y3300D02*
D03*
Y3200D02*
D03*
Y3100D02*
D03*
X3700Y3650D02*
D03*
X3900D02*
D03*
X4695Y3090D02*
D03*
X4795D02*
D03*
X4895D02*
D03*
X4695Y3190D02*
D03*
X4795D02*
D03*
X4895D02*
D03*
X4695Y3290D02*
D03*
X4795D02*
D03*
X4895D02*
D03*
X4695Y3390D02*
D03*
X4795D02*
D03*
X4895D02*
D03*
X4695Y3490D02*
D03*
X4795D02*
D03*
X4895D02*
D03*
X4695Y3590D02*
D03*
X4795D02*
D03*
X4895D02*
D03*
X4695Y3690D02*
D03*
X4795D02*
D03*
X4895D02*
D03*
X4695Y3790D02*
D03*
X4795D02*
D03*
X4895D02*
D03*
X4695Y3890D02*
D03*
X4795D02*
D03*
X4895D02*
D03*
X4695Y3990D02*
D03*
Y4090D02*
D03*
Y4190D02*
D03*
Y4290D02*
D03*
Y4390D02*
D03*
X4795D02*
D03*
Y4290D02*
D03*
Y4190D02*
D03*
Y4090D02*
D03*
Y3990D02*
D03*
X4895D02*
D03*
Y4090D02*
D03*
Y4190D02*
D03*
Y4290D02*
D03*
Y4390D02*
D03*
X4300Y3200D02*
D03*
D15*
X4000Y3100D02*
D03*
D16*
X4300Y4000D02*
D03*
D17*
X3900Y3350D02*
D03*
X3700D02*
D03*
D18*
X3145Y3926D02*
D03*
Y4051D02*
D03*
X3634Y4013D02*
D03*
X3834Y4178D02*
D03*
X3823Y3902D02*
D03*
X3479Y3728D02*
D03*
X3465Y3494D02*
D03*
X3358Y4047D02*
D03*
X3353Y3921D02*
D03*
X3804Y4023D02*
D03*
X3669Y4100D02*
D03*
X3700Y4261D02*
D03*
X3902Y4167D02*
D03*
X3500Y3474D02*
D03*
X3802Y3028D02*
D03*
X4522Y3355D02*
D03*
M02*
