%FSLAX23Y23*%
%MOIN*%
G70*
G01*
G75*
G04 Layer_Color=65535*
%ADD10C,0.008*%
%ADD11C,0.020*%
%ADD12O,0.050X0.100*%
%ADD13R,0.050X0.100*%
%ADD14C,0.065*%
%ADD15R,0.065X0.065*%
%ADD16R,0.065X0.065*%
%ADD17C,0.066*%
%ADD18C,0.032*%
%ADD19C,0.010*%
G36*
X2166Y3329D02*
X2148D01*
Y3380D01*
X2166D01*
Y3329D01*
D02*
G37*
G36*
X2257D02*
X2238D01*
Y3400D01*
X2257D01*
Y3329D01*
D02*
G37*
G36*
X2825Y3368D02*
X2810Y3368D01*
X2804D01*
X2804Y3368D01*
X2803D01*
X2803Y3368D01*
X2802Y3368D01*
X2802Y3367D01*
X2802Y3367D01*
X2801Y3367D01*
X2801Y3367D01*
Y3366D01*
Y3366D01*
X2801Y3365D01*
X2802Y3365D01*
X2802Y3365D01*
X2802Y3365D01*
X2803Y3365D01*
X2803Y3364D01*
X2804D01*
X2804Y3364D01*
X2804D01*
X2805Y3364D01*
X2806D01*
X2807Y3364D01*
X2809D01*
X2810Y3364D01*
X2813D01*
X2814Y3364D01*
X2814Y3364D01*
X2815Y3364D01*
X2816Y3363D01*
X2818Y3363D01*
X2819Y3362D01*
X2820Y3361D01*
X2822Y3360D01*
X2822Y3360D01*
X2822Y3360D01*
X2822Y3359D01*
X2823Y3358D01*
X2824Y3357D01*
X2824Y3356D01*
X2825Y3354D01*
X2825Y3353D01*
Y3353D01*
X2825Y3352D01*
X2825Y3352D01*
X2825Y3351D01*
X2825Y3350D01*
X2826Y3349D01*
X2826Y3348D01*
Y3347D01*
Y3347D01*
Y3347D01*
Y3347D01*
X2826Y3346D01*
X2825Y3344D01*
Y3344D01*
X2825Y3344D01*
X2825Y3343D01*
X2825Y3342D01*
X2825Y3341D01*
X2825Y3340D01*
X2824Y3339D01*
X2824Y3337D01*
Y3337D01*
X2824Y3337D01*
X2824Y3336D01*
X2823Y3336D01*
X2823Y3335D01*
X2822Y3334D01*
X2821Y3333D01*
X2820Y3332D01*
X2820Y3332D01*
X2820Y3332D01*
X2819Y3331D01*
X2818Y3331D01*
X2817Y3330D01*
X2816Y3330D01*
X2815Y3330D01*
X2814Y3329D01*
X2813Y3329D01*
X2812Y3329D01*
X2811Y3329D01*
X2787D01*
Y3345D01*
X2809D01*
X2810Y3345D01*
X2811Y3346D01*
X2811Y3346D01*
X2811Y3346D01*
X2811Y3346D01*
Y3346D01*
Y3346D01*
Y3347D01*
X2811Y3348D01*
X2811Y3348D01*
X2811Y3348D01*
X2811Y3349D01*
X2810Y3349D01*
X2810Y3349D01*
X2809Y3349D01*
X2808Y3349D01*
X2804D01*
X2803Y3349D01*
X2802D01*
X2800Y3349D01*
X2797Y3350D01*
X2795Y3350D01*
X2794Y3350D01*
X2793Y3351D01*
X2792Y3351D01*
X2792Y3351D01*
X2792Y3352D01*
X2791Y3352D01*
X2791Y3353D01*
X2790Y3353D01*
X2790Y3354D01*
X2789Y3355D01*
X2788Y3356D01*
X2788Y3357D01*
Y3357D01*
X2788Y3358D01*
X2788Y3358D01*
X2787Y3359D01*
X2787Y3360D01*
X2787Y3362D01*
X2787Y3363D01*
X2787Y3365D01*
Y3365D01*
Y3365D01*
X2787Y3365D01*
Y3366D01*
Y3366D01*
Y3367D01*
X2787Y3368D01*
Y3369D01*
X2787Y3370D01*
X2787Y3373D01*
Y3373D01*
X2787Y3373D01*
X2788Y3374D01*
X2788Y3375D01*
X2788Y3376D01*
X2788Y3377D01*
X2789Y3378D01*
X2790Y3379D01*
X2790Y3379D01*
X2790Y3379D01*
X2790Y3380D01*
X2791Y3380D01*
X2791Y3381D01*
X2792Y3381D01*
X2793Y3382D01*
X2794Y3383D01*
X2794Y3383D01*
X2794Y3383D01*
X2795Y3383D01*
X2796Y3383D01*
X2797Y3384D01*
X2799Y3384D01*
X2800Y3384D01*
X2801Y3384D01*
X2802Y3384D01*
X2804Y3385D01*
X2825D01*
Y3368D01*
D02*
G37*
G36*
X2145Y3368D02*
X2137D01*
X2136Y3368D01*
X2135Y3368D01*
X2134Y3367D01*
X2133Y3367D01*
X2132Y3366D01*
X2131Y3365D01*
X2131Y3365D01*
X2131Y3365D01*
X2130Y3364D01*
X2130Y3364D01*
X2129Y3363D01*
X2129Y3362D01*
X2129Y3360D01*
X2128Y3359D01*
Y3329D01*
X2110D01*
Y3364D01*
Y3364D01*
Y3364D01*
Y3364D01*
X2110Y3365D01*
X2110Y3366D01*
X2110Y3367D01*
X2110Y3368D01*
X2110Y3369D01*
X2111Y3371D01*
X2112Y3372D01*
X2112Y3373D01*
X2113Y3375D01*
X2113Y3376D01*
X2114Y3377D01*
X2115Y3378D01*
X2115Y3378D01*
X2116Y3378D01*
X2116Y3379D01*
X2116Y3379D01*
X2117Y3380D01*
X2117Y3380D01*
X2118Y3381D01*
X2119Y3381D01*
X2121Y3382D01*
X2123Y3383D01*
X2124Y3384D01*
X2126Y3384D01*
X2127Y3384D01*
X2128Y3384D01*
X2145D01*
Y3368D01*
D02*
G37*
G36*
X2658Y3384D02*
X2676D01*
Y3368D01*
X2658D01*
Y3351D01*
Y3351D01*
Y3351D01*
Y3350D01*
X2658Y3350D01*
X2658Y3349D01*
X2659Y3348D01*
X2659Y3347D01*
X2660Y3346D01*
X2661Y3346D01*
X2661Y3346D01*
X2662Y3345D01*
X2663Y3345D01*
X2664Y3345D01*
X2676D01*
Y3329D01*
X2657D01*
X2657Y3329D01*
X2656Y3329D01*
X2655Y3329D01*
X2654Y3330D01*
X2652Y3330D01*
X2650Y3331D01*
X2648Y3332D01*
X2647Y3332D01*
X2646Y3333D01*
X2645Y3334D01*
X2645Y3334D01*
X2645Y3334D01*
X2645Y3334D01*
X2644Y3335D01*
X2644Y3335D01*
X2643Y3336D01*
X2642Y3337D01*
X2641Y3339D01*
X2640Y3341D01*
X2640Y3342D01*
X2639Y3344D01*
X2639Y3345D01*
X2639Y3346D01*
Y3400D01*
X2658D01*
Y3384D01*
D02*
G37*
G36*
X2783Y3368D02*
X2775D01*
X2774Y3368D01*
X2773Y3368D01*
X2772Y3367D01*
X2771Y3367D01*
X2770Y3366D01*
X2769Y3365D01*
X2769Y3365D01*
X2769Y3365D01*
X2769Y3364D01*
X2768Y3364D01*
X2768Y3363D01*
X2767Y3362D01*
X2767Y3360D01*
X2767Y3359D01*
Y3329D01*
X2748D01*
Y3364D01*
Y3364D01*
Y3364D01*
Y3364D01*
X2748Y3365D01*
X2748Y3366D01*
X2748Y3367D01*
X2749Y3368D01*
X2749Y3369D01*
X2749Y3371D01*
X2750Y3372D01*
X2751Y3373D01*
X2751Y3375D01*
X2752Y3376D01*
X2753Y3377D01*
X2754Y3378D01*
X2754Y3378D01*
X2754Y3378D01*
X2754Y3379D01*
X2755Y3379D01*
X2755Y3380D01*
X2756Y3380D01*
X2757Y3381D01*
X2757Y3381D01*
X2759Y3382D01*
X2762Y3383D01*
X2763Y3384D01*
X2764Y3384D01*
X2765Y3384D01*
X2767Y3384D01*
X2783D01*
Y3368D01*
D02*
G37*
G36*
X2346Y3384D02*
X2325D01*
X2325Y3384D01*
X2324Y3384D01*
X2323Y3384D01*
X2322Y3384D01*
X2321Y3383D01*
X2319Y3383D01*
X2318Y3382D01*
X2317Y3382D01*
X2315Y3381D01*
X2314Y3380D01*
X2313Y3379D01*
X2312Y3378D01*
X2312Y3378D01*
X2312Y3378D01*
X2311Y3378D01*
X2311Y3377D01*
X2311Y3377D01*
X2310Y3376D01*
X2309Y3375D01*
X2309Y3375D01*
X2308Y3373D01*
X2307Y3370D01*
X2307Y3369D01*
X2306Y3368D01*
X2306Y3367D01*
X2306Y3365D01*
Y3365D01*
Y3365D01*
Y3364D01*
X2306Y3364D01*
X2306Y3363D01*
X2306Y3362D01*
X2306Y3361D01*
X2307Y3360D01*
X2307Y3358D01*
X2308Y3357D01*
X2308Y3356D01*
X2309Y3354D01*
X2310Y3353D01*
X2311Y3352D01*
X2312Y3351D01*
X2312Y3351D01*
X2312Y3351D01*
X2312Y3350D01*
X2313Y3350D01*
X2313Y3350D01*
X2314Y3349D01*
X2315Y3349D01*
X2316Y3348D01*
X2317Y3347D01*
X2318Y3347D01*
X2319Y3346D01*
X2320Y3346D01*
X2322Y3346D01*
X2323Y3345D01*
X2325Y3345D01*
X2326Y3345D01*
X2346D01*
Y3329D01*
X2320D01*
X2319Y3329D01*
X2318Y3329D01*
X2317Y3329D01*
X2315Y3330D01*
X2313Y3330D01*
X2312Y3330D01*
X2310Y3331D01*
X2308Y3332D01*
X2306Y3332D01*
X2303Y3333D01*
X2301Y3335D01*
X2299Y3336D01*
X2297Y3338D01*
X2295Y3339D01*
X2295Y3339D01*
X2295Y3340D01*
X2294Y3340D01*
X2294Y3341D01*
X2293Y3342D01*
X2292Y3343D01*
X2291Y3345D01*
X2290Y3347D01*
X2289Y3348D01*
X2289Y3350D01*
X2288Y3352D01*
X2287Y3355D01*
X2286Y3357D01*
X2286Y3360D01*
X2285Y3362D01*
X2285Y3365D01*
Y3365D01*
Y3366D01*
X2285Y3367D01*
X2286Y3368D01*
X2286Y3369D01*
X2286Y3370D01*
X2286Y3372D01*
X2287Y3374D01*
X2287Y3375D01*
X2288Y3377D01*
X2289Y3379D01*
X2290Y3382D01*
X2291Y3384D01*
X2292Y3386D01*
X2294Y3388D01*
X2296Y3390D01*
X2296Y3390D01*
X2296Y3390D01*
X2297Y3391D01*
X2298Y3391D01*
X2299Y3392D01*
X2300Y3393D01*
X2301Y3394D01*
X2303Y3395D01*
X2305Y3396D01*
X2307Y3397D01*
X2309Y3398D01*
X2311Y3399D01*
X2313Y3399D01*
X2315Y3400D01*
X2318Y3400D01*
X2321Y3400D01*
X2346D01*
Y3384D01*
D02*
G37*
G36*
X2549Y3384D02*
X2549D01*
X2550Y3384D01*
X2551Y3384D01*
X2553Y3384D01*
X2554Y3383D01*
X2555Y3383D01*
X2557Y3382D01*
X2558Y3382D01*
X2560Y3381D01*
X2562Y3380D01*
X2563Y3379D01*
X2565Y3377D01*
X2566Y3376D01*
X2566Y3376D01*
X2567Y3376D01*
X2567Y3375D01*
X2567Y3375D01*
X2568Y3374D01*
X2569Y3373D01*
X2569Y3372D01*
X2570Y3371D01*
X2571Y3369D01*
X2571Y3368D01*
X2572Y3366D01*
X2573Y3364D01*
X2573Y3362D01*
X2574Y3360D01*
X2574Y3358D01*
X2574Y3356D01*
Y3356D01*
Y3356D01*
X2574Y3355D01*
Y3354D01*
X2574Y3353D01*
X2574Y3352D01*
X2573Y3351D01*
X2573Y3349D01*
X2572Y3348D01*
X2572Y3346D01*
X2571Y3345D01*
X2571Y3343D01*
X2570Y3342D01*
X2569Y3340D01*
X2567Y3338D01*
X2566Y3337D01*
X2566Y3337D01*
X2566Y3337D01*
X2565Y3336D01*
X2565Y3336D01*
X2564Y3335D01*
X2563Y3334D01*
X2562Y3334D01*
X2561Y3333D01*
X2560Y3332D01*
X2558Y3331D01*
X2557Y3331D01*
X2555Y3330D01*
X2553Y3330D01*
X2551Y3329D01*
X2549Y3329D01*
X2547Y3329D01*
X2535D01*
Y3345D01*
X2541D01*
X2541Y3345D01*
X2543Y3345D01*
X2544Y3345D01*
X2545Y3346D01*
X2547Y3346D01*
X2548Y3347D01*
X2550Y3348D01*
X2550Y3348D01*
X2550Y3349D01*
X2551Y3349D01*
X2551Y3350D01*
X2552Y3351D01*
X2553Y3353D01*
X2553Y3354D01*
X2553Y3356D01*
Y3356D01*
Y3356D01*
X2553Y3357D01*
X2553Y3358D01*
X2553Y3359D01*
X2552Y3360D01*
X2552Y3361D01*
X2551Y3363D01*
X2550Y3364D01*
X2550Y3364D01*
X2549Y3365D01*
X2548Y3365D01*
X2547Y3366D01*
X2546Y3367D01*
X2544Y3367D01*
X2543Y3368D01*
X2541Y3368D01*
X2531D01*
Y3313D01*
X2512D01*
Y3384D01*
X2548D01*
X2549Y3384D01*
D02*
G37*
G36*
X2384Y3386D02*
X2384D01*
X2386Y3386D01*
X2387Y3386D01*
X2388Y3385D01*
X2390Y3385D01*
X2392Y3385D01*
X2394Y3384D01*
X2395Y3383D01*
X2397Y3383D01*
X2399Y3382D01*
X2401Y3381D01*
X2403Y3379D01*
X2405Y3378D01*
X2405Y3378D01*
X2406Y3378D01*
X2406Y3377D01*
X2407Y3376D01*
X2407Y3376D01*
X2408Y3375D01*
X2409Y3373D01*
X2410Y3372D01*
X2411Y3371D01*
X2412Y3369D01*
X2413Y3367D01*
X2414Y3365D01*
X2414Y3363D01*
X2415Y3361D01*
X2415Y3359D01*
X2415Y3357D01*
Y3356D01*
Y3356D01*
X2415Y3355D01*
X2415Y3354D01*
X2415Y3353D01*
X2415Y3352D01*
X2415Y3351D01*
X2414Y3349D01*
X2414Y3347D01*
X2413Y3346D01*
X2412Y3344D01*
X2411Y3342D01*
X2410Y3340D01*
X2409Y3339D01*
X2407Y3337D01*
X2405Y3335D01*
X2405Y3335D01*
X2405Y3335D01*
X2404Y3334D01*
X2404Y3334D01*
X2403Y3333D01*
X2401Y3333D01*
X2400Y3332D01*
X2399Y3331D01*
X2397Y3330D01*
X2395Y3330D01*
X2393Y3329D01*
X2391Y3328D01*
X2389Y3328D01*
X2387Y3328D01*
X2385Y3327D01*
X2382Y3327D01*
X2382D01*
X2381Y3327D01*
X2380D01*
X2379Y3327D01*
X2377Y3328D01*
X2376Y3328D01*
X2374Y3328D01*
X2373Y3329D01*
X2371Y3329D01*
X2369Y3330D01*
X2367Y3331D01*
X2365Y3331D01*
X2363Y3333D01*
X2361Y3334D01*
X2359Y3335D01*
X2359Y3335D01*
X2359Y3335D01*
X2358Y3336D01*
X2358Y3337D01*
X2357Y3337D01*
X2356Y3339D01*
X2355Y3340D01*
X2354Y3341D01*
X2353Y3342D01*
X2352Y3344D01*
X2351Y3346D01*
X2351Y3348D01*
X2350Y3350D01*
X2350Y3352D01*
X2349Y3354D01*
X2349Y3357D01*
Y3357D01*
Y3357D01*
X2349Y3358D01*
X2349Y3359D01*
X2349Y3360D01*
X2350Y3361D01*
X2350Y3362D01*
X2350Y3364D01*
X2351Y3366D01*
X2352Y3367D01*
X2352Y3369D01*
X2353Y3371D01*
X2355Y3373D01*
X2356Y3375D01*
X2358Y3376D01*
X2359Y3378D01*
X2360Y3378D01*
X2360Y3378D01*
X2360Y3379D01*
X2361Y3379D01*
X2362Y3380D01*
X2363Y3381D01*
X2364Y3381D01*
X2366Y3382D01*
X2368Y3383D01*
X2369Y3383D01*
X2371Y3384D01*
X2373Y3385D01*
X2375Y3385D01*
X2378Y3386D01*
X2380Y3386D01*
X2382Y3386D01*
X2383D01*
X2384Y3386D01*
D02*
G37*
G36*
X2662Y3534D02*
Y3467D01*
X2657Y3463D01*
X2607D01*
X2603Y3467D01*
Y3534D01*
X2607Y3539D01*
X2657D01*
X2662Y3534D01*
D02*
G37*
G36*
X2314Y3530D02*
X2272D01*
Y3513D01*
X2310D01*
X2314Y3509D01*
Y3467D01*
X2310Y3463D01*
X2259D01*
X2255Y3467D01*
Y3488D01*
X2263D01*
Y3471D01*
X2288D01*
Y3505D01*
X2259D01*
X2255Y3509D01*
Y3534D01*
X2259Y3539D01*
X2314D01*
Y3530D01*
D02*
G37*
G36*
X2453Y3534D02*
Y3492D01*
X2449Y3488D01*
X2419D01*
Y3471D01*
X2445D01*
Y3480D01*
X2453D01*
Y3467D01*
X2449Y3463D01*
X2398D01*
X2394Y3467D01*
Y3492D01*
X2398Y3496D01*
X2436D01*
Y3530D01*
X2402D01*
Y3513D01*
X2394D01*
Y3534D01*
X2398Y3539D01*
X2448D01*
X2453Y3534D01*
D02*
G37*
G36*
X2533D02*
Y3517D01*
X2542Y3509D01*
Y3467D01*
X2537Y3463D01*
X2521D01*
X2517Y3467D01*
Y3534D01*
X2521Y3539D01*
X2529D01*
X2533Y3534D01*
D02*
G37*
G36*
X2244D02*
Y3522D01*
X2227D01*
Y3530D01*
X2193D01*
Y3513D01*
X2240D01*
X2244Y3509D01*
Y3467D01*
X2240Y3463D01*
X2189D01*
X2185Y3467D01*
Y3534D01*
X2189Y3539D01*
X2240D01*
X2244Y3534D01*
D02*
G37*
G36*
X2082Y3400D02*
X2083Y3400D01*
X2083Y3400D01*
X2085Y3400D01*
X2086Y3400D01*
X2088Y3399D01*
X2089Y3398D01*
X2091Y3398D01*
X2092Y3397D01*
X2093Y3396D01*
X2095Y3395D01*
X2096Y3394D01*
X2096Y3394D01*
X2096Y3394D01*
X2097Y3393D01*
X2097Y3393D01*
X2098Y3392D01*
X2098Y3391D01*
X2099Y3391D01*
X2099Y3390D01*
X2100Y3388D01*
X2101Y3387D01*
X2102Y3385D01*
X2102Y3383D01*
X2102Y3382D01*
X2103Y3380D01*
X2103Y3379D01*
Y3378D01*
Y3378D01*
Y3378D01*
Y3378D01*
X2103Y3377D01*
X2102Y3375D01*
X2102Y3374D01*
X2102Y3372D01*
X2101Y3370D01*
X2100Y3369D01*
Y3369D01*
X2100Y3369D01*
X2100Y3368D01*
X2099Y3367D01*
X2098Y3366D01*
X2097Y3365D01*
X2096Y3364D01*
X2094Y3362D01*
X2092Y3361D01*
X2092D01*
X2092Y3361D01*
X2093Y3361D01*
X2093Y3361D01*
X2094Y3361D01*
X2095Y3360D01*
X2096Y3359D01*
X2098Y3358D01*
X2100Y3357D01*
X2101Y3355D01*
X2103Y3353D01*
Y3353D01*
X2103Y3352D01*
X2103Y3352D01*
X2104Y3352D01*
X2104Y3351D01*
X2104Y3350D01*
X2105Y3349D01*
X2105Y3347D01*
X2106Y3345D01*
X2106Y3343D01*
X2106Y3340D01*
Y3340D01*
Y3339D01*
X2106Y3339D01*
Y3338D01*
X2106Y3337D01*
X2106Y3336D01*
X2106Y3335D01*
X2105Y3334D01*
X2105Y3332D01*
X2104Y3331D01*
X2104Y3329D01*
X2103Y3328D01*
X2102Y3326D01*
X2100Y3324D01*
X2099Y3323D01*
X2097Y3321D01*
X2097Y3321D01*
X2097Y3321D01*
X2096Y3321D01*
X2096Y3320D01*
X2095Y3319D01*
X2094Y3319D01*
X2093Y3318D01*
X2091Y3317D01*
X2090Y3316D01*
X2088Y3316D01*
X2087Y3315D01*
X2085Y3314D01*
X2083Y3314D01*
X2081Y3313D01*
X2079Y3313D01*
X2077Y3313D01*
X2055D01*
Y3329D01*
X2035D01*
Y3400D01*
X2081D01*
X2082Y3400D01*
D02*
G37*
G36*
X2375Y3534D02*
Y3517D01*
X2383Y3509D01*
Y3467D01*
X2379Y3463D01*
X2328D01*
X2324Y3467D01*
Y3488D01*
X2332D01*
Y3471D01*
X2358D01*
Y3505D01*
X2332D01*
Y3513D01*
X2358D01*
Y3530D01*
X2332D01*
Y3522D01*
X2324D01*
Y3534D01*
X2328Y3539D01*
X2370D01*
X2375Y3534D01*
D02*
G37*
G36*
X2589Y3496D02*
X2551D01*
Y3505D01*
X2589D01*
Y3496D01*
D02*
G37*
G36*
X2497Y3646D02*
X2460D01*
Y3655D01*
X2497D01*
Y3646D01*
D02*
G37*
G36*
X2342Y3667D02*
Y3655D01*
X2334D01*
Y3663D01*
X2308D01*
Y3651D01*
X2317Y3642D01*
Y3621D01*
X2334D01*
Y3630D01*
X2342D01*
Y3617D01*
X2338Y3613D01*
X2296D01*
X2291Y3617D01*
Y3667D01*
X2296Y3672D01*
X2338D01*
X2342Y3667D01*
D02*
G37*
G36*
X2449D02*
Y3617D01*
X2444Y3613D01*
X2402D01*
X2398Y3617D01*
Y3667D01*
X2402Y3672D01*
X2444D01*
X2449Y3667D01*
D02*
G37*
G36*
X2600Y3684D02*
Y3667D01*
X2608Y3659D01*
Y3617D01*
X2603Y3613D01*
X2587D01*
X2583Y3617D01*
Y3684D01*
X2587Y3689D01*
X2595D01*
X2600Y3684D01*
D02*
G37*
G36*
X2249D02*
Y3617D01*
X2245Y3613D01*
X2237D01*
X2233Y3617D01*
Y3680D01*
X2216D01*
Y3613D01*
X2207D01*
Y3680D01*
X2182D01*
Y3667D01*
X2190Y3659D01*
Y3617D01*
X2186Y3613D01*
X2169D01*
X2165Y3617D01*
Y3684D01*
X2169Y3689D01*
X2207D01*
X2211Y3684D01*
X2216Y3689D01*
X2245D01*
X2249Y3684D01*
D02*
G37*
G36*
X2701D02*
Y3617D01*
X2697Y3613D01*
X2688D01*
X2684Y3617D01*
Y3680D01*
X2667D01*
Y3613D01*
X2659D01*
Y3680D01*
X2633D01*
Y3667D01*
X2642Y3659D01*
Y3617D01*
X2637Y3613D01*
X2621D01*
X2616Y3617D01*
Y3684D01*
X2621Y3689D01*
X2659D01*
X2663Y3684D01*
X2667Y3689D01*
X2696D01*
X2701Y3684D01*
D02*
G37*
G36*
X2561Y3667D02*
X2570Y3659D01*
Y3613D01*
X2561D01*
Y3655D01*
X2536D01*
Y3617D01*
X2531Y3613D01*
X2515D01*
X2511Y3617D01*
Y3684D01*
X2515Y3689D01*
X2523D01*
X2527Y3684D01*
Y3663D01*
X2553D01*
Y3689D01*
X2561D01*
Y3667D01*
D02*
G37*
G36*
X2276Y3686D02*
Y3680D01*
X2275Y3679D01*
X2266D01*
X2265Y3680D01*
Y3686D01*
X2266Y3687D01*
X2275D01*
X2276Y3686D01*
D02*
G37*
G36*
X2392Y3663D02*
X2367D01*
Y3651D01*
X2375Y3642D01*
Y3617D01*
X2371Y3613D01*
X2354D01*
X2350Y3617D01*
Y3667D01*
X2354Y3672D01*
X2392D01*
Y3663D01*
D02*
G37*
G36*
X2743Y3368D02*
X2730Y3350D01*
X2709D01*
X2722Y3368D01*
X2711D01*
X2710Y3368D01*
X2709Y3368D01*
X2708Y3367D01*
X2706Y3367D01*
X2705Y3366D01*
X2704Y3365D01*
X2703Y3365D01*
X2703Y3364D01*
X2703Y3364D01*
X2702Y3363D01*
X2701Y3362D01*
X2701Y3360D01*
X2700Y3359D01*
X2700Y3357D01*
Y3357D01*
Y3357D01*
Y3357D01*
X2700Y3356D01*
X2701Y3355D01*
X2701Y3354D01*
X2701Y3353D01*
X2702Y3351D01*
X2703Y3350D01*
X2704Y3348D01*
X2704Y3348D01*
X2704Y3348D01*
X2705Y3347D01*
X2706Y3347D01*
X2707Y3346D01*
X2709Y3346D01*
X2710Y3345D01*
X2712Y3345D01*
X2743D01*
Y3329D01*
X2710D01*
X2710Y3329D01*
X2709D01*
X2708Y3329D01*
X2706Y3329D01*
X2705Y3330D01*
X2703Y3330D01*
X2702Y3330D01*
X2700Y3331D01*
X2698Y3331D01*
X2696Y3332D01*
X2695Y3333D01*
X2693Y3334D01*
X2691Y3335D01*
X2689Y3336D01*
X2689Y3336D01*
X2689Y3337D01*
X2688Y3337D01*
X2688Y3338D01*
X2687Y3339D01*
X2686Y3339D01*
X2685Y3341D01*
X2684Y3342D01*
X2684Y3343D01*
X2683Y3345D01*
X2682Y3346D01*
X2681Y3348D01*
X2681Y3350D01*
X2680Y3352D01*
X2680Y3355D01*
X2680Y3357D01*
Y3357D01*
Y3357D01*
X2680Y3358D01*
X2680Y3359D01*
X2680Y3360D01*
X2680Y3361D01*
X2680Y3362D01*
X2681Y3363D01*
X2681Y3365D01*
X2682Y3366D01*
X2683Y3368D01*
X2684Y3369D01*
X2685Y3371D01*
X2686Y3373D01*
X2687Y3374D01*
X2689Y3376D01*
X2689Y3376D01*
X2690Y3376D01*
X2690Y3377D01*
X2691Y3377D01*
X2692Y3378D01*
X2693Y3379D01*
X2694Y3379D01*
X2695Y3380D01*
X2697Y3381D01*
X2698Y3382D01*
X2700Y3382D01*
X2702Y3383D01*
X2704Y3383D01*
X2706Y3384D01*
X2709Y3384D01*
X2711Y3384D01*
X2743D01*
Y3368D01*
D02*
G37*
G36*
X2490Y3384D02*
X2491Y3384D01*
X2491Y3384D01*
X2493Y3383D01*
X2495Y3383D01*
X2496Y3382D01*
X2497Y3382D01*
X2498Y3381D01*
X2499Y3380D01*
X2501Y3379D01*
X2502Y3378D01*
X2502Y3378D01*
X2502Y3378D01*
X2502Y3378D01*
X2503Y3377D01*
X2503Y3377D01*
X2504Y3376D01*
X2504Y3375D01*
X2505Y3374D01*
X2506Y3372D01*
X2507Y3370D01*
X2507Y3369D01*
X2507Y3367D01*
X2508Y3366D01*
X2508Y3365D01*
Y3329D01*
X2489D01*
Y3362D01*
Y3362D01*
Y3362D01*
X2489Y3363D01*
X2489Y3364D01*
X2488Y3365D01*
X2488Y3365D01*
X2488Y3366D01*
X2487Y3367D01*
X2487Y3367D01*
X2487Y3367D01*
X2486Y3367D01*
X2486Y3367D01*
X2485Y3368D01*
X2484Y3368D01*
X2483Y3368D01*
X2482Y3368D01*
X2473D01*
Y3329D01*
X2454D01*
X2454Y3362D01*
Y3362D01*
Y3362D01*
Y3362D01*
X2454Y3363D01*
X2453Y3364D01*
X2453Y3365D01*
X2453Y3366D01*
X2452Y3366D01*
X2451Y3367D01*
X2451Y3367D01*
X2450Y3367D01*
X2449Y3368D01*
X2448Y3368D01*
X2447Y3368D01*
X2438D01*
Y3329D01*
X2419D01*
Y3384D01*
X2454D01*
X2455Y3384D01*
X2456D01*
X2456Y3384D01*
X2458Y3384D01*
X2460Y3383D01*
X2462Y3383D01*
X2464Y3382D01*
X2466Y3381D01*
X2466D01*
X2466Y3380D01*
X2466Y3380D01*
X2467Y3379D01*
X2468Y3378D01*
X2469Y3376D01*
X2471Y3375D01*
X2472Y3373D01*
X2473Y3370D01*
Y3384D01*
X2489D01*
X2490Y3384D01*
D02*
G37*
G36*
X2633Y3329D02*
X2599D01*
X2598Y3329D01*
X2597Y3329D01*
X2597Y3329D01*
X2596Y3329D01*
X2594Y3330D01*
X2592Y3331D01*
X2591Y3331D01*
X2589Y3332D01*
X2588Y3332D01*
X2587Y3333D01*
X2585Y3334D01*
X2584Y3335D01*
X2584Y3335D01*
X2584Y3335D01*
X2584Y3336D01*
X2583Y3336D01*
X2583Y3337D01*
X2582Y3337D01*
X2582Y3338D01*
X2581Y3339D01*
X2580Y3340D01*
X2580Y3341D01*
X2579Y3343D01*
X2579Y3344D01*
X2578Y3345D01*
X2578Y3347D01*
X2578Y3349D01*
X2578Y3350D01*
Y3384D01*
X2596D01*
Y3354D01*
Y3354D01*
Y3353D01*
X2596Y3352D01*
X2597Y3352D01*
X2597Y3351D01*
X2597Y3350D01*
X2597Y3349D01*
X2598Y3348D01*
X2598Y3348D01*
X2598Y3347D01*
X2599Y3347D01*
X2599Y3347D01*
X2600Y3346D01*
X2601Y3346D01*
X2603Y3345D01*
X2604Y3345D01*
X2614D01*
Y3384D01*
X2633D01*
Y3329D01*
D02*
G37*
G36*
X2233Y3368D02*
X2220Y3350D01*
X2199D01*
X2212Y3368D01*
X2202D01*
X2201Y3368D01*
X2200Y3368D01*
X2198Y3367D01*
X2197Y3367D01*
X2195Y3366D01*
X2194Y3365D01*
X2194Y3365D01*
X2193Y3364D01*
X2193Y3364D01*
X2192Y3363D01*
X2192Y3362D01*
X2191Y3360D01*
X2191Y3359D01*
X2191Y3357D01*
Y3357D01*
Y3357D01*
Y3357D01*
X2191Y3356D01*
X2191Y3355D01*
X2191Y3354D01*
X2192Y3353D01*
X2192Y3351D01*
X2193Y3350D01*
X2194Y3348D01*
X2194Y3348D01*
X2195Y3348D01*
X2195Y3347D01*
X2196Y3347D01*
X2198Y3346D01*
X2199Y3346D01*
X2201Y3345D01*
X2203Y3345D01*
X2233D01*
Y3329D01*
X2201D01*
X2200Y3329D01*
X2199D01*
X2198Y3329D01*
X2197Y3329D01*
X2195Y3330D01*
X2194Y3330D01*
X2192Y3330D01*
X2190Y3331D01*
X2188Y3331D01*
X2187Y3332D01*
X2185Y3333D01*
X2183Y3334D01*
X2181Y3335D01*
X2180Y3336D01*
X2179Y3336D01*
X2179Y3337D01*
X2179Y3337D01*
X2178Y3338D01*
X2177Y3339D01*
X2176Y3339D01*
X2176Y3341D01*
X2175Y3342D01*
X2174Y3343D01*
X2173Y3345D01*
X2172Y3346D01*
X2172Y3348D01*
X2171Y3350D01*
X2170Y3352D01*
X2170Y3355D01*
X2170Y3357D01*
Y3357D01*
Y3357D01*
X2170Y3358D01*
X2170Y3359D01*
X2170Y3360D01*
X2170Y3361D01*
X2171Y3362D01*
X2171Y3363D01*
X2172Y3365D01*
X2172Y3366D01*
X2173Y3368D01*
X2174Y3369D01*
X2175Y3371D01*
X2176Y3373D01*
X2178Y3374D01*
X2179Y3376D01*
X2179Y3376D01*
X2180Y3376D01*
X2180Y3377D01*
X2181Y3377D01*
X2182Y3378D01*
X2183Y3379D01*
X2184Y3379D01*
X2186Y3380D01*
X2187Y3381D01*
X2189Y3382D01*
X2191Y3382D01*
X2192Y3383D01*
X2195Y3383D01*
X2197Y3384D01*
X2199Y3384D01*
X2201Y3384D01*
X2233D01*
Y3368D01*
D02*
G37*
G36*
X2275Y3651D02*
X2283Y3642D01*
Y3617D01*
X2279Y3613D01*
X2270D01*
X2266Y3617D01*
Y3672D01*
X2275D01*
Y3651D01*
D02*
G37*
G36*
X2166Y3384D02*
X2148D01*
Y3400D01*
X2166D01*
Y3384D01*
D02*
G37*
%LPC*%
G36*
X2382Y3370D02*
X2382D01*
X2382Y3370D01*
X2380Y3370D01*
X2379Y3369D01*
X2378Y3369D01*
X2376Y3368D01*
X2375Y3367D01*
X2373Y3366D01*
X2373Y3366D01*
X2373Y3365D01*
X2372Y3365D01*
X2372Y3363D01*
X2371Y3362D01*
X2370Y3361D01*
X2370Y3359D01*
X2370Y3357D01*
Y3356D01*
Y3356D01*
Y3356D01*
X2370Y3356D01*
X2370Y3355D01*
X2370Y3353D01*
X2370Y3352D01*
X2371Y3350D01*
X2372Y3348D01*
X2373Y3347D01*
X2373Y3347D01*
X2374Y3346D01*
X2375Y3346D01*
X2376Y3345D01*
X2377Y3344D01*
X2379Y3344D01*
X2380Y3343D01*
X2382Y3343D01*
X2383D01*
X2383Y3343D01*
X2384Y3343D01*
X2386Y3344D01*
X2387Y3344D01*
X2388Y3345D01*
X2390Y3346D01*
X2391Y3347D01*
X2392Y3347D01*
X2392Y3348D01*
X2392Y3348D01*
X2393Y3349D01*
X2394Y3351D01*
X2394Y3353D01*
X2395Y3354D01*
X2395Y3357D01*
Y3357D01*
Y3357D01*
Y3357D01*
X2395Y3357D01*
X2395Y3359D01*
X2394Y3360D01*
X2394Y3361D01*
X2393Y3363D01*
X2392Y3365D01*
X2391Y3366D01*
X2391Y3366D01*
X2391Y3367D01*
X2390Y3367D01*
X2389Y3368D01*
X2388Y3369D01*
X2386Y3369D01*
X2384Y3370D01*
X2382Y3370D01*
D02*
G37*
G36*
X2074Y3384D02*
X2055D01*
Y3329D01*
X2074D01*
X2075Y3329D01*
X2076Y3329D01*
X2077Y3329D01*
X2078Y3330D01*
X2080Y3330D01*
X2081Y3331D01*
X2083Y3332D01*
X2083Y3332D01*
X2083Y3333D01*
X2084Y3333D01*
X2084Y3334D01*
X2085Y3335D01*
X2085Y3337D01*
X2086Y3338D01*
X2086Y3340D01*
Y3340D01*
Y3340D01*
Y3341D01*
X2086Y3341D01*
X2086Y3342D01*
X2086Y3343D01*
X2085Y3345D01*
X2085Y3346D01*
X2084Y3347D01*
X2083Y3349D01*
X2082Y3349D01*
X2082Y3349D01*
X2081Y3350D01*
X2080Y3350D01*
X2079Y3351D01*
X2077Y3351D01*
X2076Y3352D01*
X2074Y3352D01*
X2059D01*
Y3368D01*
X2075D01*
X2075Y3368D01*
X2076Y3368D01*
X2077Y3369D01*
X2078Y3369D01*
X2079Y3369D01*
X2080Y3370D01*
X2080Y3370D01*
X2080Y3371D01*
X2081Y3371D01*
X2081Y3372D01*
X2081Y3373D01*
X2082Y3374D01*
X2082Y3375D01*
X2082Y3376D01*
Y3376D01*
Y3377D01*
X2082Y3377D01*
X2082Y3378D01*
X2082Y3379D01*
X2081Y3380D01*
X2081Y3381D01*
X2080Y3382D01*
X2080Y3382D01*
X2080Y3382D01*
X2079Y3383D01*
X2079Y3383D01*
X2078Y3383D01*
X2077Y3384D01*
X2076Y3384D01*
X2074Y3384D01*
D02*
G37*
G36*
X2637Y3530D02*
X2611D01*
Y3471D01*
X2645D01*
Y3509D01*
X2637Y3518D01*
Y3530D01*
D02*
G37*
G36*
X2440Y3663D02*
X2415D01*
Y3650D01*
X2423Y3642D01*
Y3621D01*
X2440D01*
Y3663D01*
D02*
G37*
G36*
X2219Y3505D02*
X2193D01*
Y3471D01*
X2219D01*
Y3505D01*
D02*
G37*
%LPD*%
D10*
X3650Y3300D02*
X3950D01*
X3650D02*
Y3400D01*
X3950D01*
Y3300D02*
Y3400D01*
X2647Y4202D02*
X2631Y4194D01*
X2614Y4177D01*
Y4160D01*
X2622Y4152D01*
X2639D01*
X2647Y4160D01*
Y4169D01*
X2639Y4177D01*
X2614D01*
X2697Y4202D02*
X2664D01*
Y4177D01*
X2681Y4185D01*
X2689D01*
X2697Y4177D01*
Y4160D01*
X2689Y4152D01*
X2672D01*
X2664Y4160D01*
X2714Y4194D02*
X2722Y4202D01*
X2739D01*
X2747Y4194D01*
Y4185D01*
X2739Y4177D01*
X2731D01*
X2739D01*
X2747Y4169D01*
Y4160D01*
X2739Y4152D01*
X2722D01*
X2714Y4160D01*
X2797Y4152D02*
X2764D01*
X2797Y4185D01*
Y4194D01*
X2789Y4202D01*
X2772D01*
X2764Y4194D01*
X4070Y3820D02*
Y3778D01*
X4078Y3770D01*
X4095D01*
X4103Y3778D01*
Y3820D01*
X4120Y3770D02*
X4137D01*
X4128D01*
Y3820D01*
X4120Y3812D01*
X3593Y3672D02*
X3585Y3680D01*
X3568D01*
X3560Y3672D01*
Y3638D01*
X3568Y3630D01*
X3585D01*
X3593Y3638D01*
X3610Y3630D02*
X3627D01*
X3618D01*
Y3680D01*
X3610Y3672D01*
X3587Y3364D02*
X3579Y3372D01*
X3562D01*
X3554Y3364D01*
Y3330D01*
X3562Y3322D01*
X3579D01*
X3587Y3330D01*
X3637Y3322D02*
X3604D01*
X3637Y3355D01*
Y3364D01*
X3629Y3372D01*
X3612D01*
X3604Y3364D01*
X2893Y3525D02*
X2926D01*
Y3517D01*
X2893Y3483D01*
Y3475D01*
X2968D02*
Y3525D01*
X2943Y3500D01*
X2976D01*
X2993Y3525D02*
Y3475D01*
X3026D01*
X3076Y3517D02*
X3068Y3525D01*
X3051D01*
X3043Y3517D01*
Y3508D01*
X3051Y3500D01*
X3068D01*
X3076Y3492D01*
Y3483D01*
X3068Y3475D01*
X3051D01*
X3043Y3483D01*
X3093Y3517D02*
X3101Y3525D01*
X3118D01*
X3126Y3517D01*
Y3483D01*
X3118Y3475D01*
X3101D01*
X3093Y3483D01*
Y3517D01*
X3168Y3475D02*
Y3525D01*
X3143Y3500D01*
X3176D01*
X4343Y4360D02*
Y4410D01*
X4368D01*
X4376Y4402D01*
Y4385D01*
X4368Y4377D01*
X4343D01*
X4360D02*
X4376Y4360D01*
X4426Y4410D02*
X4393D01*
Y4360D01*
X4426D01*
X4393Y4385D02*
X4410D01*
X4443Y4410D02*
Y4377D01*
X4460Y4360D01*
X4476Y4377D01*
Y4410D01*
X4543Y4360D02*
X4560D01*
X4551D01*
Y4410D01*
X4543Y4402D01*
X4090Y3980D02*
Y4030D01*
X4115D01*
X4123Y4022D01*
Y4005D01*
X4115Y3997D01*
X4090D01*
X4140Y3980D02*
Y4013D01*
X4157Y4030D01*
X4173Y4013D01*
Y3980D01*
Y4005D01*
X4140D01*
X4190Y4022D02*
X4198Y4030D01*
X4215D01*
X4223Y4022D01*
Y3988D01*
X4215Y3980D01*
X4198D01*
X4190Y3988D01*
Y4022D01*
X4090Y3880D02*
Y3930D01*
X4115D01*
X4123Y3922D01*
Y3905D01*
X4115Y3897D01*
X4090D01*
X4140Y3880D02*
Y3913D01*
X4157Y3930D01*
X4173Y3913D01*
Y3880D01*
Y3905D01*
X4140D01*
X4190Y3880D02*
X4207D01*
X4198D01*
Y3930D01*
X4190Y3922D01*
X4090Y3780D02*
Y3830D01*
X4115D01*
X4123Y3822D01*
Y3805D01*
X4115Y3797D01*
X4090D01*
X4140Y3780D02*
Y3813D01*
X4157Y3830D01*
X4173Y3813D01*
Y3780D01*
Y3805D01*
X4140D01*
X4223Y3780D02*
X4190D01*
X4223Y3813D01*
Y3822D01*
X4215Y3830D01*
X4198D01*
X4190Y3822D01*
X4090Y3670D02*
Y3720D01*
X4115D01*
X4123Y3712D01*
Y3695D01*
X4115Y3687D01*
X4090D01*
X4140Y3670D02*
Y3703D01*
X4157Y3720D01*
X4173Y3703D01*
Y3670D01*
Y3695D01*
X4140D01*
X4190Y3712D02*
X4198Y3720D01*
X4215D01*
X4223Y3712D01*
Y3703D01*
X4215Y3695D01*
X4207D01*
X4215D01*
X4223Y3687D01*
Y3678D01*
X4215Y3670D01*
X4198D01*
X4190Y3678D01*
X4090Y3570D02*
Y3620D01*
X4115D01*
X4123Y3612D01*
Y3595D01*
X4115Y3587D01*
X4090D01*
X4140Y3570D02*
Y3603D01*
X4157Y3620D01*
X4173Y3603D01*
Y3570D01*
Y3595D01*
X4140D01*
X4215Y3570D02*
Y3620D01*
X4190Y3595D01*
X4223D01*
X4090Y3470D02*
Y3520D01*
X4115D01*
X4123Y3512D01*
Y3495D01*
X4115Y3487D01*
X4090D01*
X4140Y3470D02*
Y3503D01*
X4157Y3520D01*
X4173Y3503D01*
Y3470D01*
Y3495D01*
X4140D01*
X4223Y3520D02*
X4190D01*
Y3495D01*
X4207Y3503D01*
X4215D01*
X4223Y3495D01*
Y3478D01*
X4215Y3470D01*
X4198D01*
X4190Y3478D01*
X4090Y3370D02*
Y3420D01*
X4115D01*
X4123Y3412D01*
Y3395D01*
X4115Y3387D01*
X4090D01*
X4140Y3370D02*
Y3403D01*
X4157Y3420D01*
X4173Y3403D01*
Y3370D01*
Y3395D01*
X4140D01*
X4223Y3420D02*
X4207Y3412D01*
X4190Y3395D01*
Y3378D01*
X4198Y3370D01*
X4215D01*
X4223Y3378D01*
Y3387D01*
X4215Y3395D01*
X4190D01*
X4090Y3270D02*
Y3320D01*
X4115D01*
X4123Y3312D01*
Y3295D01*
X4115Y3287D01*
X4090D01*
X4140Y3270D02*
Y3303D01*
X4157Y3320D01*
X4173Y3303D01*
Y3270D01*
Y3295D01*
X4140D01*
X4190Y3320D02*
X4223D01*
Y3312D01*
X4190Y3278D01*
Y3270D01*
X4090Y3220D02*
Y3187D01*
X4107Y3170D01*
X4123Y3187D01*
Y3220D01*
X4173Y3212D02*
X4165Y3220D01*
X4148D01*
X4140Y3212D01*
Y3178D01*
X4148Y3170D01*
X4165D01*
X4173Y3178D01*
X4223Y3212D02*
X4215Y3220D01*
X4198D01*
X4190Y3212D01*
Y3178D01*
X4198Y3170D01*
X4215D01*
X4223Y3178D01*
X4123Y3112D02*
X4115Y3120D01*
X4098D01*
X4090Y3112D01*
Y3078D01*
X4098Y3070D01*
X4115D01*
X4123Y3078D01*
Y3095D01*
X4107D01*
X4140Y3070D02*
Y3120D01*
X4173Y3070D01*
Y3120D01*
X4190D02*
Y3070D01*
X4215D01*
X4223Y3078D01*
Y3112D01*
X4215Y3120D01*
X4190D01*
X4480Y3980D02*
Y4030D01*
X4505D01*
X4513Y4022D01*
Y4005D01*
X4505Y3997D01*
X4480D01*
X4530Y4030D02*
Y3980D01*
X4555D01*
X4563Y3988D01*
Y3997D01*
X4555Y4005D01*
X4530D01*
X4555D01*
X4563Y4013D01*
Y4022D01*
X4555Y4030D01*
X4530D01*
X4580Y4022D02*
X4588Y4030D01*
X4605D01*
X4613Y4022D01*
Y3988D01*
X4605Y3980D01*
X4588D01*
X4580Y3988D01*
Y4022D01*
X4480Y3880D02*
Y3930D01*
X4505D01*
X4513Y3922D01*
Y3905D01*
X4505Y3897D01*
X4480D01*
X4530Y3930D02*
Y3880D01*
X4555D01*
X4563Y3888D01*
Y3897D01*
X4555Y3905D01*
X4530D01*
X4555D01*
X4563Y3913D01*
Y3922D01*
X4555Y3930D01*
X4530D01*
X4580Y3880D02*
X4597D01*
X4588D01*
Y3930D01*
X4580Y3922D01*
X4480Y3780D02*
Y3830D01*
X4505D01*
X4513Y3822D01*
Y3805D01*
X4505Y3797D01*
X4480D01*
X4530Y3830D02*
Y3780D01*
X4555D01*
X4563Y3788D01*
Y3797D01*
X4555Y3805D01*
X4530D01*
X4555D01*
X4563Y3813D01*
Y3822D01*
X4555Y3830D01*
X4530D01*
X4613Y3780D02*
X4580D01*
X4613Y3813D01*
Y3822D01*
X4605Y3830D01*
X4588D01*
X4580Y3822D01*
X4480Y3670D02*
Y3720D01*
X4505D01*
X4513Y3712D01*
Y3695D01*
X4505Y3687D01*
X4480D01*
X4530Y3720D02*
Y3670D01*
X4555D01*
X4563Y3678D01*
Y3687D01*
X4555Y3695D01*
X4530D01*
X4555D01*
X4563Y3703D01*
Y3712D01*
X4555Y3720D01*
X4530D01*
X4580Y3712D02*
X4588Y3720D01*
X4605D01*
X4613Y3712D01*
Y3703D01*
X4605Y3695D01*
X4597D01*
X4605D01*
X4613Y3687D01*
Y3678D01*
X4605Y3670D01*
X4588D01*
X4580Y3678D01*
X4480Y3570D02*
Y3620D01*
X4505D01*
X4513Y3612D01*
Y3595D01*
X4505Y3587D01*
X4480D01*
X4530Y3620D02*
Y3570D01*
X4555D01*
X4563Y3578D01*
Y3587D01*
X4555Y3595D01*
X4530D01*
X4555D01*
X4563Y3603D01*
Y3612D01*
X4555Y3620D01*
X4530D01*
X4605Y3570D02*
Y3620D01*
X4580Y3595D01*
X4613D01*
X4480Y3470D02*
Y3520D01*
X4505D01*
X4513Y3512D01*
Y3495D01*
X4505Y3487D01*
X4480D01*
X4530Y3520D02*
Y3470D01*
X4555D01*
X4563Y3478D01*
Y3487D01*
X4555Y3495D01*
X4530D01*
X4555D01*
X4563Y3503D01*
Y3512D01*
X4555Y3520D01*
X4530D01*
X4613D02*
X4580D01*
Y3495D01*
X4597Y3503D01*
X4605D01*
X4613Y3495D01*
Y3478D01*
X4605Y3470D01*
X4588D01*
X4580Y3478D01*
X4480Y3370D02*
Y3420D01*
X4505D01*
X4513Y3412D01*
Y3395D01*
X4505Y3387D01*
X4480D01*
X4530Y3420D02*
Y3370D01*
X4555D01*
X4563Y3378D01*
Y3387D01*
X4555Y3395D01*
X4530D01*
X4555D01*
X4563Y3403D01*
Y3412D01*
X4555Y3420D01*
X4530D01*
X4613D02*
X4597Y3412D01*
X4580Y3395D01*
Y3378D01*
X4588Y3370D01*
X4605D01*
X4613Y3378D01*
Y3387D01*
X4605Y3395D01*
X4580D01*
X4480Y3270D02*
Y3320D01*
X4505D01*
X4513Y3312D01*
Y3295D01*
X4505Y3287D01*
X4480D01*
X4530Y3320D02*
Y3270D01*
X4555D01*
X4563Y3278D01*
Y3287D01*
X4555Y3295D01*
X4530D01*
X4555D01*
X4563Y3303D01*
Y3312D01*
X4555Y3320D01*
X4530D01*
X4580D02*
X4613D01*
Y3312D01*
X4580Y3278D01*
Y3270D01*
X4480Y3220D02*
Y3187D01*
X4497Y3170D01*
X4513Y3187D01*
Y3220D01*
X4563Y3212D02*
X4555Y3220D01*
X4538D01*
X4530Y3212D01*
Y3178D01*
X4538Y3170D01*
X4555D01*
X4563Y3178D01*
X4613Y3212D02*
X4605Y3220D01*
X4588D01*
X4580Y3212D01*
Y3178D01*
X4588Y3170D01*
X4605D01*
X4613Y3178D01*
X4513Y3112D02*
X4505Y3120D01*
X4488D01*
X4480Y3112D01*
Y3078D01*
X4488Y3070D01*
X4505D01*
X4513Y3078D01*
Y3095D01*
X4497D01*
X4530Y3070D02*
Y3120D01*
X4563Y3070D01*
Y3120D01*
X4580D02*
Y3070D01*
X4605D01*
X4613Y3078D01*
Y3112D01*
X4605Y3120D01*
X4580D01*
X4076Y3011D02*
X4093D01*
X4084D01*
Y3061D01*
X4076Y3053D01*
D19*
X4050Y4125D02*
G03*
X4050Y4075I0J-25D01*
G01*
X3550Y3525D02*
G03*
X3550Y3475I0J-25D01*
G01*
X4050Y4125D02*
Y4315D01*
Y3885D02*
Y4075D01*
X2050Y3885D02*
X4050D01*
X2050D02*
Y4315D01*
X4050D01*
X2040Y3040D02*
Y3280D01*
Y3040D02*
X4060D01*
X2040Y3280D02*
X4060D01*
Y3040D02*
Y3280D01*
X4245Y4050D02*
X4455D01*
X4245Y3050D02*
Y4050D01*
Y3050D02*
X4455D01*
Y4050D01*
X3640Y3705D02*
X3900D01*
X3640Y3595D02*
X3900D01*
X3640Y3705D02*
X3660D01*
X3640Y3595D02*
Y3705D01*
X3900D02*
X3960D01*
Y3595D02*
Y3705D01*
X3900Y3595D02*
X3960D01*
X3550Y3525D02*
Y3565D01*
Y3435D02*
Y3475D01*
X2850Y3435D02*
X3550D01*
X2850D02*
Y3565D01*
X3550D01*
M02*
