%FSLAX23Y23*%
%MOIN*%
G70*
G01*
G75*
G04 Layer_Color=8388736*
%ADD10C,0.008*%
%ADD11C,0.020*%
%ADD12O,0.050X0.100*%
%ADD13R,0.050X0.100*%
%ADD14C,0.065*%
%ADD15R,0.065X0.065*%
%ADD16R,0.065X0.065*%
%ADD17C,0.066*%
%ADD18C,0.032*%
%ADD19C,0.010*%
%ADD20O,0.058X0.108*%
%ADD21R,0.058X0.108*%
%ADD22C,0.073*%
%ADD23R,0.073X0.073*%
%ADD24R,0.073X0.073*%
%ADD25C,0.074*%
%ADD26C,0.040*%
D20*
X3700Y3800D02*
D03*
X3800D02*
D03*
X3900Y4400D02*
D03*
X3800D02*
D03*
X3700D02*
D03*
X3600D02*
D03*
X3500D02*
D03*
X3400D02*
D03*
X2100D02*
D03*
X4000Y3800D02*
D03*
X3900D02*
D03*
X3600D02*
D03*
X3500D02*
D03*
X3400D02*
D03*
X3300D02*
D03*
X3200D02*
D03*
X3100D02*
D03*
X3000D02*
D03*
X2900D02*
D03*
X2800D02*
D03*
X2700D02*
D03*
X2600D02*
D03*
X2500D02*
D03*
X3300Y4400D02*
D03*
X3200D02*
D03*
X3100D02*
D03*
X3000D02*
D03*
X2900D02*
D03*
X2800D02*
D03*
X2700D02*
D03*
X2600D02*
D03*
X2400Y3800D02*
D03*
X2300D02*
D03*
X2200D02*
D03*
X2100D02*
D03*
X2200Y4400D02*
D03*
X2300D02*
D03*
X2400D02*
D03*
X2500D02*
D03*
X3400Y3650D02*
D03*
X3300D02*
D03*
X3200D02*
D03*
X3100D02*
D03*
X3000D02*
D03*
X2900D02*
D03*
X3500Y3350D02*
D03*
X3400D02*
D03*
X3300D02*
D03*
X3200D02*
D03*
X3100D02*
D03*
X3000D02*
D03*
X2900D02*
D03*
D21*
X4000Y4400D02*
D03*
X3500Y3650D02*
D03*
D22*
X2100Y3100D02*
D03*
X2200D02*
D03*
X2300D02*
D03*
X2400D02*
D03*
X2500D02*
D03*
X2600D02*
D03*
X2700D02*
D03*
X2800D02*
D03*
X2900D02*
D03*
X3000D02*
D03*
X3100D02*
D03*
X3200D02*
D03*
X3300D02*
D03*
X3400D02*
D03*
X3500D02*
D03*
X3600D02*
D03*
X3700D02*
D03*
X3800D02*
D03*
X3900D02*
D03*
X2100Y3200D02*
D03*
X2200D02*
D03*
X2300D02*
D03*
X2400D02*
D03*
X2500D02*
D03*
X2600D02*
D03*
X2700D02*
D03*
X2800D02*
D03*
X2900D02*
D03*
X3000D02*
D03*
X3100D02*
D03*
X3200D02*
D03*
X3300D02*
D03*
X3400D02*
D03*
X3500D02*
D03*
X3600D02*
D03*
X3700D02*
D03*
X3800D02*
D03*
X3900D02*
D03*
X4000D02*
D03*
X4300Y3900D02*
D03*
Y3800D02*
D03*
Y3700D02*
D03*
Y3600D02*
D03*
Y3500D02*
D03*
Y3400D02*
D03*
Y3300D02*
D03*
Y3100D02*
D03*
X4400Y4000D02*
D03*
Y3900D02*
D03*
Y3800D02*
D03*
Y3700D02*
D03*
Y3600D02*
D03*
Y3500D02*
D03*
Y3400D02*
D03*
Y3300D02*
D03*
Y3200D02*
D03*
Y3100D02*
D03*
X3700Y3650D02*
D03*
X3900D02*
D03*
X4695Y3090D02*
D03*
X4795D02*
D03*
X4895D02*
D03*
X4695Y3190D02*
D03*
X4795D02*
D03*
X4895D02*
D03*
X4695Y3290D02*
D03*
X4795D02*
D03*
X4895D02*
D03*
X4695Y3390D02*
D03*
X4795D02*
D03*
X4895D02*
D03*
X4695Y3490D02*
D03*
X4795D02*
D03*
X4895D02*
D03*
X4695Y3590D02*
D03*
X4795D02*
D03*
X4895D02*
D03*
X4695Y3690D02*
D03*
X4795D02*
D03*
X4895D02*
D03*
X4695Y3790D02*
D03*
X4795D02*
D03*
X4895D02*
D03*
X4695Y3890D02*
D03*
X4795D02*
D03*
X4895D02*
D03*
X4695Y3990D02*
D03*
Y4090D02*
D03*
Y4190D02*
D03*
Y4290D02*
D03*
Y4390D02*
D03*
X4795D02*
D03*
Y4290D02*
D03*
Y4190D02*
D03*
Y4090D02*
D03*
Y3990D02*
D03*
X4895D02*
D03*
Y4090D02*
D03*
Y4190D02*
D03*
Y4290D02*
D03*
Y4390D02*
D03*
X4300Y3200D02*
D03*
D23*
X4000Y3100D02*
D03*
D24*
X4300Y4000D02*
D03*
D25*
X3900Y3350D02*
D03*
X3700D02*
D03*
D26*
X3145Y3926D02*
D03*
Y4051D02*
D03*
X3634Y4013D02*
D03*
X3834Y4178D02*
D03*
X3823Y3902D02*
D03*
X3479Y3728D02*
D03*
X3465Y3494D02*
D03*
X3358Y4047D02*
D03*
X3353Y3921D02*
D03*
X3804Y4023D02*
D03*
X3669Y4100D02*
D03*
X3700Y4261D02*
D03*
X3902Y4167D02*
D03*
X3500Y3474D02*
D03*
X3802Y3028D02*
D03*
X4522Y3355D02*
D03*
M02*
