%FSLAX24Y24*%
%MOIN*%
G70*
G01*
G75*
G04 Layer_Physical_Order=2*
G04 Layer_Color=16711680*
%ADD10C,0.0080*%
%ADD11O,0.1000X0.0500*%
%ADD12R,0.1000X0.0500*%
%ADD13C,0.0551*%
%ADD14C,0.0650*%
%ADD15R,0.0500X0.1000*%
%ADD16O,0.0500X0.1000*%
%ADD17R,0.0650X0.0650*%
%ADD18C,0.0320*%
G36*
X44667Y30333D02*
X42481D01*
X42467Y30380D01*
X42487Y30393D01*
Y30393D01*
X42487D01*
D01*
D01*
D01*
D01*
D01*
D01*
X42487D01*
D01*
X42487D01*
Y30393D01*
D01*
D01*
D01*
D01*
Y30393D01*
D01*
D01*
D01*
D01*
D01*
D01*
Y30393D01*
D01*
D01*
X42487D01*
D01*
D01*
D01*
X42697Y30603D01*
X42723Y30643D01*
X42732Y30690D01*
D01*
D01*
D01*
D01*
D01*
X42732D01*
D01*
D01*
D01*
D01*
Y30690D01*
X42732D01*
D01*
Y30690D01*
D01*
D01*
D01*
D01*
D01*
D01*
D01*
D01*
D01*
D01*
D01*
D01*
Y30690D01*
D01*
X42732D01*
D01*
D01*
D01*
D01*
X42732Y30690D01*
Y37030D01*
X42723Y37077D01*
X42697Y37117D01*
X42697Y37117D01*
D01*
D01*
D01*
D01*
X42697Y37117D01*
D01*
D01*
X42697D01*
X42327Y37487D01*
X42287Y37513D01*
X42240Y37522D01*
X40291D01*
X40185Y37628D01*
X40207Y37673D01*
X40250Y37667D01*
X40750D01*
X40836Y37678D01*
X40916Y37712D01*
X40985Y37765D01*
X41038Y37834D01*
X41072Y37914D01*
X41083Y38000D01*
X41072Y38086D01*
X41038Y38166D01*
X40985Y38235D01*
X40916Y38288D01*
X40836Y38322D01*
X40750Y38333D01*
X40250D01*
X40164Y38322D01*
X40084Y38288D01*
X40047Y38260D01*
X40002Y38282D01*
Y38718D01*
X40047Y38740D01*
X40084Y38712D01*
X40164Y38678D01*
X40250Y38667D01*
X40750D01*
X40836Y38678D01*
X40916Y38712D01*
X40985Y38765D01*
X41038Y38834D01*
X41057Y38878D01*
X41640D01*
X41687Y38887D01*
X41727Y38913D01*
Y38913D01*
X41727D01*
D01*
D01*
D01*
D01*
D01*
D01*
X41727D01*
D01*
X41727D01*
Y38913D01*
D01*
D01*
D01*
D01*
Y38913D01*
D01*
D01*
D01*
D01*
D01*
D01*
Y38913D01*
D01*
D01*
X41727D01*
D01*
D01*
D01*
X42087Y39273D01*
X42113Y39313D01*
X42122Y39360D01*
D01*
D01*
D01*
D01*
D01*
X42122D01*
D01*
D01*
D01*
D01*
Y39360D01*
X42122D01*
D01*
Y39360D01*
D01*
D01*
D01*
D01*
D01*
D01*
D01*
D01*
D01*
D01*
D01*
D01*
Y39360D01*
D01*
X42122D01*
D01*
D01*
D01*
D01*
X42122Y39360D01*
Y41549D01*
X42551Y41978D01*
X43990D01*
X44037Y41987D01*
X44077Y42013D01*
Y42013D01*
X44077D01*
D01*
D01*
D01*
D01*
D01*
D01*
X44077D01*
D01*
X44077D01*
Y42013D01*
D01*
D01*
D01*
D01*
Y42013D01*
D01*
D01*
D01*
D01*
D01*
D01*
Y42013D01*
D01*
D01*
X44077D01*
D01*
D01*
D01*
X44537Y42473D01*
X44563Y42513D01*
X44572Y42560D01*
D01*
D01*
D01*
D01*
D01*
X44572D01*
D01*
D01*
D01*
D01*
Y42560D01*
X44572D01*
D01*
Y42560D01*
D01*
D01*
D01*
D01*
D01*
D01*
D01*
D01*
D01*
D01*
D01*
D01*
Y42560D01*
D01*
X44572D01*
D01*
D01*
D01*
D01*
X44572Y42560D01*
Y43570D01*
X44563Y43617D01*
X44552Y43633D01*
X44537Y43657D01*
X44347Y43847D01*
X44307Y43873D01*
X44260Y43882D01*
X22760D01*
X22713Y43873D01*
X22673Y43847D01*
X21913Y43087D01*
X21887Y43047D01*
X21878Y43000D01*
Y41557D01*
X21834Y41538D01*
X21765Y41485D01*
X21712Y41416D01*
X21678Y41336D01*
X21667Y41250D01*
Y40750D01*
X21678Y40664D01*
X21712Y40584D01*
X21765Y40515D01*
X21834Y40462D01*
X21914Y40428D01*
X22000Y40417D01*
X22086Y40428D01*
X22166Y40462D01*
X22235Y40515D01*
X22288Y40584D01*
X22322Y40664D01*
X22333Y40750D01*
Y41250D01*
X22322Y41336D01*
X22288Y41416D01*
X22235Y41485D01*
X22166Y41538D01*
X22122Y41557D01*
Y42949D01*
X22811Y43638D01*
X44209D01*
X44328Y43519D01*
Y43316D01*
X44283Y43293D01*
X44204Y43354D01*
X44106Y43395D01*
X44050Y43402D01*
Y43000D01*
Y42598D01*
X44106Y42605D01*
X44204Y42646D01*
X44283Y42707D01*
X44328Y42684D01*
Y42611D01*
X43939Y42222D01*
X42500D01*
X42453Y42213D01*
X42413Y42187D01*
X41913Y41687D01*
X41887Y41647D01*
X41878Y41600D01*
Y39411D01*
X41589Y39122D01*
X41057D01*
X41038Y39166D01*
X40985Y39235D01*
X40916Y39288D01*
X40836Y39322D01*
X40750Y39333D01*
X40250D01*
X40164Y39322D01*
X40084Y39288D01*
X40047Y39260D01*
X40002Y39282D01*
Y39718D01*
X40047Y39740D01*
X40084Y39712D01*
X40164Y39678D01*
X40250Y39667D01*
X40750D01*
X40836Y39678D01*
X40916Y39712D01*
X40985Y39765D01*
X41038Y39834D01*
X41072Y39914D01*
X41083Y40000D01*
X41072Y40086D01*
X41038Y40166D01*
X40985Y40235D01*
X40916Y40288D01*
X40836Y40322D01*
X40750Y40333D01*
X40250D01*
X40164Y40322D01*
X40084Y40288D01*
X40047Y40260D01*
X40002Y40282D01*
Y40670D01*
X41080D01*
Y41330D01*
X39920D01*
Y41122D01*
X39880D01*
X39833Y41113D01*
X39793Y41087D01*
X39767Y41047D01*
X39758Y41000D01*
Y37760D01*
X39767Y37713D01*
X39793Y37673D01*
X40119Y37348D01*
X40109Y37299D01*
X40084Y37288D01*
X40015Y37235D01*
X39962Y37166D01*
X39928Y37086D01*
X39917Y37000D01*
X39928Y36914D01*
X39962Y36834D01*
X40015Y36765D01*
X40084Y36712D01*
X40164Y36678D01*
X40250Y36667D01*
X40750D01*
X40836Y36678D01*
X40916Y36712D01*
X40985Y36765D01*
X41038Y36834D01*
X41072Y36914D01*
X41083Y37000D01*
X41072Y37086D01*
X41038Y37166D01*
X40985Y37235D01*
X41000Y37278D01*
X42189D01*
X42488Y36979D01*
Y30741D01*
X42451Y30704D01*
X42405Y30723D01*
Y30950D01*
X41595D01*
Y30602D01*
X41225D01*
X41209Y30650D01*
X41289Y30711D01*
X41354Y30796D01*
X41395Y30894D01*
X41409Y31000D01*
X41395Y31106D01*
X41354Y31204D01*
X41289Y31289D01*
X41204Y31354D01*
X41106Y31395D01*
X41000Y31408D01*
X40894Y31395D01*
X40796Y31354D01*
X40711Y31289D01*
X40646Y31204D01*
X40605Y31106D01*
X40592Y31000D01*
X40605Y30894D01*
X40646Y30796D01*
X40711Y30711D01*
X40791Y30650D01*
X40775Y30602D01*
X40225D01*
X40209Y30650D01*
X40289Y30711D01*
X40354Y30796D01*
X40395Y30894D01*
X40408Y31000D01*
X40395Y31106D01*
X40361Y31188D01*
X40537Y31363D01*
X40563Y31403D01*
X40572Y31450D01*
Y31846D01*
X40621Y31856D01*
X40646Y31796D01*
X40711Y31711D01*
X40796Y31646D01*
X40894Y31605D01*
X41000Y31592D01*
X41106Y31605D01*
X41204Y31646D01*
X41289Y31711D01*
X41354Y31796D01*
X41395Y31894D01*
X41409Y32000D01*
X41395Y32106D01*
X41354Y32204D01*
X41289Y32289D01*
X41204Y32354D01*
X41106Y32395D01*
X41000Y32408D01*
X40894Y32395D01*
X40796Y32354D01*
X40711Y32289D01*
X40646Y32204D01*
X40621Y32144D01*
X40572Y32154D01*
Y32640D01*
X40563Y32687D01*
X40537Y32727D01*
X40537Y32727D01*
D01*
D01*
D01*
D01*
X40537Y32727D01*
D01*
D01*
X40537D01*
X40197Y33067D01*
X40157Y33093D01*
X40110Y33102D01*
X38092D01*
X37477Y33717D01*
X37438Y33743D01*
X37391Y33752D01*
X36532D01*
X36510Y33797D01*
X36538Y33834D01*
X36572Y33914D01*
X36576Y33950D01*
X35424D01*
X35424Y33945D01*
X35388Y33911D01*
X35381Y33912D01*
X34011D01*
X33887Y34037D01*
X33847Y34063D01*
X33800Y34072D01*
X30571D01*
X30202Y34441D01*
X30205Y34491D01*
X30235Y34515D01*
X30288Y34584D01*
X30322Y34664D01*
X30333Y34750D01*
Y35250D01*
X30322Y35336D01*
X30288Y35416D01*
X30235Y35485D01*
X30166Y35538D01*
X30086Y35572D01*
X30000Y35583D01*
X29914Y35572D01*
X29834Y35538D01*
X29765Y35485D01*
X29712Y35416D01*
X29678Y35336D01*
X29667Y35250D01*
Y34751D01*
X29621Y34732D01*
X29492Y34861D01*
Y35530D01*
X29483Y35577D01*
X29457Y35617D01*
X29457D01*
D01*
D01*
Y35617D01*
D01*
D01*
D01*
D01*
D01*
D01*
Y35617D01*
X29457D01*
D01*
D01*
D01*
X29474Y35658D01*
X35219D01*
X35363Y35513D01*
X35357Y35492D01*
X35340D01*
X35293Y35483D01*
X35277Y35472D01*
X35253Y35457D01*
X34550Y34753D01*
X34490Y34765D01*
X34396Y34746D01*
X34377Y34733D01*
X34333Y34757D01*
Y34950D01*
X34050D01*
Y34424D01*
X34086Y34428D01*
X34166Y34462D01*
X34207Y34493D01*
X34254Y34476D01*
X34264Y34426D01*
X34317Y34347D01*
X34396Y34294D01*
X34490Y34275D01*
X34584Y34294D01*
X34663Y34347D01*
X34716Y34426D01*
X34735Y34520D01*
X34723Y34580D01*
X35391Y35248D01*
X35468D01*
X35490Y35203D01*
X35462Y35166D01*
X35428Y35086D01*
X35417Y35000D01*
X35428Y34914D01*
X35462Y34834D01*
X35482Y34807D01*
X35465Y34760D01*
X35446Y34756D01*
X35367Y34703D01*
X35314Y34624D01*
X35295Y34530D01*
X35314Y34436D01*
X35367Y34357D01*
X35446Y34304D01*
X35512Y34291D01*
X35523Y34242D01*
X35515Y34235D01*
X35462Y34166D01*
X35428Y34086D01*
X35424Y34050D01*
X35950D01*
Y34333D01*
X35750D01*
X35750Y34333D01*
D01*
X35741Y34399D01*
X35747Y34408D01*
X37149D01*
X37643Y33913D01*
X37683Y33887D01*
X37730Y33878D01*
X38443D01*
X38462Y33834D01*
X38515Y33765D01*
X38584Y33712D01*
X38664Y33678D01*
X38750Y33667D01*
X39250D01*
X39336Y33678D01*
X39416Y33712D01*
X39485Y33765D01*
X39538Y33834D01*
X39572Y33914D01*
X39583Y34000D01*
X39572Y34086D01*
X39538Y34166D01*
X39485Y34235D01*
X39416Y34288D01*
X39336Y34322D01*
X39250Y34333D01*
X38750D01*
X38664Y34322D01*
X38584Y34288D01*
X38515Y34235D01*
X38462Y34166D01*
X38443Y34122D01*
X37781D01*
X37287Y34617D01*
X37247Y34643D01*
X37200Y34652D01*
X36401D01*
X36391Y34701D01*
X36416Y34712D01*
X36485Y34765D01*
X36538Y34834D01*
X36572Y34914D01*
X36583Y35000D01*
X36572Y35086D01*
X36538Y35166D01*
X36485Y35235D01*
X36490Y35248D01*
X37120D01*
X37167Y35257D01*
X37207Y35283D01*
Y35283D01*
X37207D01*
D01*
D01*
D01*
D01*
D01*
D01*
X37207D01*
D01*
X37207D01*
Y35283D01*
D01*
D01*
D01*
D01*
Y35283D01*
D01*
D01*
D01*
D01*
D01*
D01*
Y35283D01*
D01*
D01*
X37207D01*
D01*
D01*
D01*
X37587Y35663D01*
X37613Y35703D01*
X37622Y35750D01*
D01*
D01*
D01*
D01*
D01*
X37622D01*
D01*
D01*
D01*
D01*
Y35750D01*
X37622D01*
D01*
Y35750D01*
D01*
D01*
D01*
D01*
D01*
D01*
D01*
D01*
D01*
D01*
D01*
D01*
Y35750D01*
D01*
X37622D01*
D01*
D01*
D01*
D01*
X37622Y35750D01*
Y37389D01*
X38111Y37878D01*
X38443D01*
X38462Y37834D01*
X38515Y37765D01*
X38584Y37712D01*
X38664Y37678D01*
X38750Y37667D01*
X39250D01*
X39336Y37678D01*
X39416Y37712D01*
X39485Y37765D01*
X39538Y37834D01*
X39572Y37914D01*
X39583Y38000D01*
X39572Y38086D01*
X39538Y38166D01*
X39485Y38235D01*
X39416Y38288D01*
X39336Y38322D01*
X39250Y38333D01*
X38750D01*
X38664Y38322D01*
X38584Y38288D01*
X38515Y38235D01*
X38462Y38166D01*
X38443Y38122D01*
X38060D01*
X38013Y38113D01*
X37997Y38102D01*
X37973Y38087D01*
X37413Y37527D01*
X37387Y37487D01*
X37378Y37440D01*
Y36029D01*
X37328Y36025D01*
X37326Y36034D01*
X37273Y36113D01*
X37194Y36166D01*
X37100Y36185D01*
X37006Y36166D01*
X36927Y36113D01*
X36874Y36034D01*
X36855Y35940D01*
X36867Y35880D01*
X36709Y35722D01*
X36509D01*
X36487Y35767D01*
X36538Y35834D01*
X36572Y35914D01*
X36583Y36000D01*
X36572Y36086D01*
X36538Y36166D01*
X36485Y36235D01*
X36416Y36288D01*
X36336Y36322D01*
X36250Y36333D01*
X35750D01*
X35664Y36322D01*
X35584Y36288D01*
X35515Y36235D01*
X35462Y36166D01*
X35428Y36086D01*
X35417Y36000D01*
X35428Y35914D01*
X35462Y35834D01*
X35467Y35826D01*
X35430Y35793D01*
X35357Y35867D01*
X35317Y35893D01*
X35270Y35902D01*
X28220D01*
X28173Y35893D01*
X28133Y35867D01*
X27913Y35647D01*
X27887Y35607D01*
X27878Y35560D01*
Y35557D01*
X27834Y35538D01*
X27765Y35485D01*
X27712Y35416D01*
X27678Y35336D01*
X27667Y35250D01*
Y34750D01*
X27678Y34664D01*
X27712Y34584D01*
X27765Y34515D01*
X27834Y34462D01*
X27834Y34461D01*
X27825Y34412D01*
X27251D01*
X27213Y34450D01*
X27216Y34500D01*
X27235Y34515D01*
X27288Y34584D01*
X27322Y34664D01*
X27333Y34750D01*
Y35250D01*
X27322Y35336D01*
X27288Y35416D01*
X27235Y35485D01*
X27166Y35538D01*
X27086Y35572D01*
X27000Y35583D01*
X26914Y35572D01*
X26834Y35538D01*
X26765Y35485D01*
X26712Y35416D01*
X26678Y35336D01*
X26672Y35289D01*
X26622Y35292D01*
Y36749D01*
X27321Y37448D01*
X36650D01*
X36697Y37457D01*
X36737Y37483D01*
Y37483D01*
X36737D01*
D01*
D01*
D01*
D01*
D01*
D01*
X36737D01*
D01*
X36737D01*
Y37483D01*
D01*
D01*
D01*
D01*
Y37483D01*
D01*
D01*
D01*
D01*
D01*
D01*
Y37483D01*
D01*
D01*
X36737D01*
D01*
D01*
D01*
X38131Y38878D01*
X38443D01*
X38462Y38834D01*
X38515Y38765D01*
X38584Y38712D01*
X38664Y38678D01*
X38750Y38667D01*
X39250D01*
X39336Y38678D01*
X39416Y38712D01*
X39485Y38765D01*
X39538Y38834D01*
X39572Y38914D01*
X39583Y39000D01*
X39572Y39086D01*
X39538Y39166D01*
X39485Y39235D01*
X39416Y39288D01*
X39336Y39322D01*
X39250Y39333D01*
X38750D01*
X38664Y39322D01*
X38584Y39288D01*
X38515Y39235D01*
X38462Y39166D01*
X38443Y39122D01*
X38080D01*
X38033Y39113D01*
X37993Y39087D01*
X36599Y37692D01*
X36469D01*
X36453Y37740D01*
X36485Y37765D01*
X36538Y37834D01*
X36572Y37914D01*
X36583Y38000D01*
X36572Y38086D01*
X36538Y38166D01*
X36485Y38235D01*
X36416Y38288D01*
X36336Y38322D01*
X36250Y38333D01*
X35750D01*
X35664Y38322D01*
X35584Y38288D01*
X35515Y38235D01*
X35462Y38166D01*
X35428Y38086D01*
X35417Y38000D01*
X35428Y37914D01*
X35462Y37834D01*
X35515Y37765D01*
X35547Y37740D01*
X35531Y37692D01*
X27270D01*
X27223Y37683D01*
X27183Y37657D01*
X26413Y36887D01*
X26387Y36847D01*
X26378Y36800D01*
Y35292D01*
X26328Y35289D01*
X26322Y35336D01*
X26288Y35416D01*
X26235Y35485D01*
X26166Y35538D01*
X26122Y35557D01*
Y35840D01*
X26113Y35887D01*
X26102Y35903D01*
X26087Y35927D01*
X25897Y36117D01*
X25857Y36143D01*
X25810Y36152D01*
X21100D01*
X21053Y36143D01*
X21013Y36117D01*
X20503Y35607D01*
X20477Y35567D01*
X20468Y35520D01*
Y30720D01*
X20468Y30720D01*
X20468D01*
X20477Y30673D01*
X20503Y30633D01*
X20758Y30379D01*
X20739Y30333D01*
X20333D01*
Y44667D01*
X44667D01*
Y30333D01*
D02*
G37*
%LPC*%
G36*
X34050Y35576D02*
Y35050D01*
X34333D01*
Y35250D01*
X34322Y35336D01*
X34288Y35416D01*
X34235Y35485D01*
X34166Y35538D01*
X34086Y35572D01*
X34050Y35576D01*
D02*
G37*
G36*
X40450Y35333D02*
X40250D01*
X40164Y35322D01*
X40084Y35288D01*
X40015Y35235D01*
X39962Y35166D01*
X39928Y35086D01*
X39924Y35050D01*
X40450D01*
Y35333D01*
D02*
G37*
G36*
X41076Y34950D02*
X40550D01*
Y34667D01*
X40750D01*
X40836Y34678D01*
X40916Y34712D01*
X40985Y34765D01*
X41038Y34834D01*
X41072Y34914D01*
X41076Y34950D01*
D02*
G37*
G36*
X43750Y35333D02*
X43250D01*
X43164Y35322D01*
X43084Y35288D01*
X43015Y35235D01*
X42962Y35166D01*
X42928Y35086D01*
X42917Y35000D01*
X42928Y34914D01*
X42962Y34834D01*
X43015Y34765D01*
X43084Y34712D01*
X43164Y34678D01*
X43250Y34667D01*
X43750D01*
X43836Y34678D01*
X43916Y34712D01*
X43985Y34765D01*
X44038Y34834D01*
X44072Y34914D01*
X44083Y35000D01*
X44072Y35086D01*
X44038Y35166D01*
X43985Y35235D01*
X43916Y35288D01*
X43836Y35322D01*
X43750Y35333D01*
D02*
G37*
G36*
X33950Y35576D02*
X33914Y35572D01*
X33834Y35538D01*
X33765Y35485D01*
X33712Y35416D01*
X33678Y35336D01*
X33667Y35250D01*
Y35050D01*
X33950D01*
Y35576D01*
D02*
G37*
G36*
X40750Y35333D02*
X40550D01*
Y35050D01*
X41076D01*
X41072Y35086D01*
X41038Y35166D01*
X40985Y35235D01*
X40916Y35288D01*
X40836Y35322D01*
X40750Y35333D01*
D02*
G37*
G36*
X36250Y37333D02*
X35750D01*
X35664Y37322D01*
X35584Y37288D01*
X35515Y37235D01*
X35462Y37166D01*
X35428Y37086D01*
X35417Y37000D01*
X35428Y36914D01*
X35462Y36834D01*
X35515Y36765D01*
X35584Y36712D01*
X35664Y36678D01*
X35750Y36667D01*
X36250D01*
X36336Y36678D01*
X36416Y36712D01*
X36485Y36765D01*
X36538Y36834D01*
X36572Y36914D01*
X36583Y37000D01*
X36572Y37086D01*
X36538Y37166D01*
X36485Y37235D01*
X36416Y37288D01*
X36336Y37322D01*
X36250Y37333D01*
D02*
G37*
G36*
X38950Y36950D02*
X38424D01*
X38428Y36914D01*
X38462Y36834D01*
X38515Y36765D01*
X38584Y36712D01*
X38664Y36678D01*
X38750Y36667D01*
X38950D01*
Y36950D01*
D02*
G37*
G36*
X39576D02*
X39050D01*
Y36667D01*
X39250D01*
X39336Y36678D01*
X39416Y36712D01*
X39485Y36765D01*
X39538Y36834D01*
X39572Y36914D01*
X39576Y36950D01*
D02*
G37*
G36*
X39250Y36333D02*
X38750D01*
X38664Y36322D01*
X38584Y36288D01*
X38515Y36235D01*
X38462Y36166D01*
X38428Y36086D01*
X38417Y36000D01*
X38428Y35914D01*
X38462Y35834D01*
X38515Y35765D01*
X38584Y35712D01*
X38664Y35678D01*
X38750Y35667D01*
X39250D01*
X39336Y35678D01*
X39416Y35712D01*
X39485Y35765D01*
X39538Y35834D01*
X39572Y35914D01*
X39583Y36000D01*
X39572Y36086D01*
X39538Y36166D01*
X39485Y36235D01*
X39416Y36288D01*
X39336Y36322D01*
X39250Y36333D01*
D02*
G37*
G36*
X40750D02*
X40250D01*
X40164Y36322D01*
X40084Y36288D01*
X40015Y36235D01*
X39962Y36166D01*
X39928Y36086D01*
X39917Y36000D01*
X39928Y35914D01*
X39962Y35834D01*
X40015Y35765D01*
X40084Y35712D01*
X40164Y35678D01*
X40250Y35667D01*
X40750D01*
X40836Y35678D01*
X40916Y35712D01*
X40985Y35765D01*
X41038Y35834D01*
X41072Y35914D01*
X41083Y36000D01*
X41072Y36086D01*
X41038Y36166D01*
X40985Y36235D01*
X40916Y36288D01*
X40836Y36322D01*
X40750Y36333D01*
D02*
G37*
G36*
X43750D02*
X43250D01*
X43164Y36322D01*
X43084Y36288D01*
X43015Y36235D01*
X42962Y36166D01*
X42928Y36086D01*
X42917Y36000D01*
X42928Y35914D01*
X42962Y35834D01*
X43015Y35765D01*
X43084Y35712D01*
X43164Y35678D01*
X43250Y35667D01*
X43750D01*
X43836Y35678D01*
X43916Y35712D01*
X43985Y35765D01*
X44038Y35834D01*
X44072Y35914D01*
X44083Y36000D01*
X44072Y36086D01*
X44038Y36166D01*
X43985Y36235D01*
X43916Y36288D01*
X43836Y36322D01*
X43750Y36333D01*
D02*
G37*
G36*
X42402Y31950D02*
X42050D01*
Y31598D01*
X42106Y31605D01*
X42204Y31646D01*
X42289Y31711D01*
X42354Y31796D01*
X42395Y31894D01*
X42402Y31950D01*
D02*
G37*
G36*
X41950Y32402D02*
X41894Y32395D01*
X41796Y32354D01*
X41711Y32289D01*
X41646Y32204D01*
X41605Y32106D01*
X41598Y32050D01*
X41950D01*
Y32402D01*
D02*
G37*
G36*
X42050D02*
Y32050D01*
X42402D01*
X42395Y32106D01*
X42354Y32204D01*
X42289Y32289D01*
X42204Y32354D01*
X42106Y32395D01*
X42050Y32402D01*
D02*
G37*
G36*
X41950Y31405D02*
X41595D01*
Y31050D01*
X41950D01*
Y31405D01*
D02*
G37*
G36*
X42405D02*
X42050D01*
Y31050D01*
X42405D01*
Y31405D01*
D02*
G37*
G36*
X41950Y31950D02*
X41598D01*
X41605Y31894D01*
X41646Y31796D01*
X41711Y31711D01*
X41796Y31646D01*
X41894Y31605D01*
X41950Y31598D01*
Y31950D01*
D02*
G37*
G36*
X36250Y34333D02*
X36050D01*
Y34050D01*
X36576D01*
X36572Y34086D01*
X36538Y34166D01*
X36485Y34235D01*
X36416Y34288D01*
X36336Y34322D01*
X36250Y34333D01*
D02*
G37*
G36*
X33950Y34950D02*
X33667D01*
Y34750D01*
X33678Y34664D01*
X33712Y34584D01*
X33765Y34515D01*
X33834Y34462D01*
X33914Y34428D01*
X33950Y34424D01*
Y34950D01*
D02*
G37*
G36*
X39250Y35333D02*
X38750D01*
X38664Y35322D01*
X38584Y35288D01*
X38515Y35235D01*
X38462Y35166D01*
X38428Y35086D01*
X38417Y35000D01*
X38428Y34914D01*
X38462Y34834D01*
X38515Y34765D01*
X38584Y34712D01*
X38664Y34678D01*
X38750Y34667D01*
X39250D01*
X39336Y34678D01*
X39416Y34712D01*
X39485Y34765D01*
X39538Y34834D01*
X39572Y34914D01*
X39583Y35000D01*
X39572Y35086D01*
X39538Y35166D01*
X39485Y35235D01*
X39416Y35288D01*
X39336Y35322D01*
X39250Y35333D01*
D02*
G37*
G36*
X40450Y34950D02*
X39924D01*
X39928Y34914D01*
X39962Y34834D01*
X40015Y34765D01*
X40084Y34712D01*
X40164Y34678D01*
X40250Y34667D01*
X40450D01*
Y34950D01*
D02*
G37*
G36*
X31000Y35583D02*
X30914Y35572D01*
X30834Y35538D01*
X30765Y35485D01*
X30712Y35416D01*
X30678Y35336D01*
X30667Y35250D01*
Y34750D01*
X30678Y34664D01*
X30712Y34584D01*
X30765Y34515D01*
X30834Y34462D01*
X30914Y34428D01*
X31000Y34417D01*
X31086Y34428D01*
X31166Y34462D01*
X31235Y34515D01*
X31288Y34584D01*
X31322Y34664D01*
X31333Y34750D01*
Y35250D01*
X31322Y35336D01*
X31288Y35416D01*
X31235Y35485D01*
X31166Y35538D01*
X31086Y35572D01*
X31000Y35583D01*
D02*
G37*
G36*
X32000D02*
X31914Y35572D01*
X31834Y35538D01*
X31765Y35485D01*
X31712Y35416D01*
X31678Y35336D01*
X31667Y35250D01*
Y34750D01*
X31678Y34664D01*
X31712Y34584D01*
X31765Y34515D01*
X31834Y34462D01*
X31914Y34428D01*
X32000Y34417D01*
X32086Y34428D01*
X32166Y34462D01*
X32235Y34515D01*
X32288Y34584D01*
X32322Y34664D01*
X32333Y34750D01*
Y35250D01*
X32322Y35336D01*
X32288Y35416D01*
X32235Y35485D01*
X32166Y35538D01*
X32086Y35572D01*
X32000Y35583D01*
D02*
G37*
G36*
X33000D02*
X32914Y35572D01*
X32834Y35538D01*
X32765Y35485D01*
X32712Y35416D01*
X32678Y35336D01*
X32667Y35250D01*
Y34750D01*
X32678Y34664D01*
X32712Y34584D01*
X32765Y34515D01*
X32834Y34462D01*
X32914Y34428D01*
X33000Y34417D01*
X33086Y34428D01*
X33166Y34462D01*
X33235Y34515D01*
X33288Y34584D01*
X33322Y34664D01*
X33333Y34750D01*
Y35250D01*
X33322Y35336D01*
X33288Y35416D01*
X33235Y35485D01*
X33166Y35538D01*
X33086Y35572D01*
X33000Y35583D01*
D02*
G37*
G36*
X43950Y42950D02*
X43598D01*
X43605Y42894D01*
X43646Y42796D01*
X43711Y42711D01*
X43796Y42646D01*
X43894Y42605D01*
X43950Y42598D01*
Y42950D01*
D02*
G37*
G36*
X25000Y43359D02*
X24907Y43346D01*
X24821Y43311D01*
X24746Y43254D01*
X24689Y43179D01*
X24666Y43122D01*
X24030D01*
X23983Y43113D01*
X23943Y43087D01*
X22543Y41687D01*
X22517Y41647D01*
X22508Y41600D01*
Y40460D01*
X22508Y40460D01*
X22508Y40460D01*
X22517Y40413D01*
X22543Y40373D01*
X22793Y40123D01*
X22793Y40123D01*
X22793D01*
X22793Y40123D01*
D01*
X22793D01*
D01*
D01*
Y40123D01*
Y40123D01*
X22793Y40123D01*
D01*
D01*
X22793D01*
Y40123D01*
X22833Y40097D01*
X22880Y40088D01*
X26730D01*
X26777Y40097D01*
X26817Y40123D01*
Y40123D01*
X26817D01*
D01*
D01*
D01*
D01*
D01*
D01*
X26817D01*
D01*
X26817D01*
Y40123D01*
D01*
D01*
D01*
D01*
Y40123D01*
D01*
D01*
D01*
Y40123D01*
D01*
D01*
X26817D01*
D01*
D01*
D01*
X27000Y40307D01*
X27013Y40293D01*
X27053Y40267D01*
X27100Y40258D01*
X28878D01*
Y38910D01*
X28878Y38910D01*
X28878D01*
X28887Y38863D01*
X28913Y38823D01*
X29353Y38383D01*
X29393Y38357D01*
X29440Y38348D01*
X33610D01*
X33657Y38357D01*
X33697Y38383D01*
Y38383D01*
X33697D01*
D01*
D01*
D01*
D01*
D01*
D01*
X33697D01*
D01*
X33697D01*
Y38383D01*
D01*
D01*
D01*
D01*
Y38383D01*
D01*
D01*
D01*
Y38383D01*
D01*
D01*
X33697D01*
D01*
D01*
D01*
X34191Y38878D01*
X35443D01*
X35462Y38834D01*
X35515Y38765D01*
X35584Y38712D01*
X35664Y38678D01*
X35750Y38667D01*
X36250D01*
X36336Y38678D01*
X36416Y38712D01*
X36485Y38765D01*
X36538Y38834D01*
X36572Y38914D01*
X36583Y39000D01*
X36572Y39086D01*
X36538Y39166D01*
X36485Y39235D01*
X36416Y39288D01*
X36336Y39322D01*
X36250Y39333D01*
X35750D01*
X35664Y39322D01*
X35584Y39288D01*
X35515Y39235D01*
X35462Y39166D01*
X35443Y39122D01*
X34140D01*
X34093Y39113D01*
X34053Y39087D01*
X33559Y38592D01*
X29491D01*
X29122Y38961D01*
Y40443D01*
X29166Y40462D01*
X29235Y40515D01*
X29288Y40584D01*
X29322Y40664D01*
X29333Y40750D01*
Y41250D01*
X29322Y41336D01*
X29288Y41416D01*
X29235Y41485D01*
X29240Y41498D01*
X29718D01*
X29740Y41453D01*
X29712Y41416D01*
X29678Y41336D01*
X29667Y41250D01*
Y40750D01*
X29678Y40664D01*
X29712Y40584D01*
X29765Y40515D01*
X29834Y40462D01*
X29914Y40428D01*
X30000Y40417D01*
X30086Y40428D01*
X30166Y40462D01*
X30235Y40515D01*
X30288Y40584D01*
X30322Y40664D01*
X30333Y40750D01*
Y41250D01*
X30322Y41336D01*
X30288Y41416D01*
X30235Y41485D01*
X30240Y41498D01*
X30718D01*
X30740Y41453D01*
X30712Y41416D01*
X30678Y41336D01*
X30667Y41250D01*
Y40750D01*
X30678Y40664D01*
X30712Y40584D01*
X30765Y40515D01*
X30834Y40462D01*
X30914Y40428D01*
X31000Y40417D01*
X31086Y40428D01*
X31166Y40462D01*
X31235Y40515D01*
X31288Y40584D01*
X31322Y40664D01*
X31333Y40750D01*
Y41250D01*
X31322Y41336D01*
X31288Y41416D01*
X31235Y41485D01*
X31240Y41498D01*
X31718D01*
X31740Y41453D01*
X31712Y41416D01*
X31678Y41336D01*
X31667Y41250D01*
Y40750D01*
X31678Y40664D01*
X31712Y40584D01*
X31765Y40515D01*
X31834Y40462D01*
X31914Y40428D01*
X32000Y40417D01*
X32086Y40428D01*
X32166Y40462D01*
X32235Y40515D01*
X32288Y40584D01*
X32322Y40664D01*
X32328Y40711D01*
X32378Y40708D01*
Y40640D01*
X32378Y40640D01*
X32378D01*
X32387Y40593D01*
X32413Y40553D01*
X32683Y40283D01*
X32723Y40257D01*
X32770Y40248D01*
X34259D01*
X34278Y40201D01*
X33400Y39323D01*
X33340Y39335D01*
X33246Y39316D01*
X33167Y39263D01*
X33114Y39184D01*
X33095Y39090D01*
X33114Y38996D01*
X33167Y38917D01*
X33246Y38864D01*
X33340Y38845D01*
X33434Y38864D01*
X33513Y38917D01*
X33566Y38996D01*
X33585Y39090D01*
X33573Y39150D01*
X34671Y40248D01*
X35468D01*
X35490Y40203D01*
X35462Y40166D01*
X35428Y40086D01*
X35417Y40000D01*
X35428Y39914D01*
X35462Y39834D01*
X35515Y39765D01*
X35584Y39712D01*
X35664Y39678D01*
X35750Y39667D01*
X36250D01*
X36336Y39678D01*
X36416Y39712D01*
X36485Y39765D01*
X36538Y39834D01*
X36572Y39914D01*
X36582Y39992D01*
X36629Y40008D01*
X36723Y39913D01*
X36723Y39913D01*
X36723D01*
X36723Y39913D01*
D01*
X36723D01*
D01*
D01*
Y39913D01*
Y39913D01*
X36723Y39913D01*
D01*
D01*
X36723D01*
Y39913D01*
X36763Y39887D01*
X36810Y39878D01*
X38443D01*
X38462Y39834D01*
X38515Y39765D01*
X38584Y39712D01*
X38664Y39678D01*
X38750Y39667D01*
X39250D01*
X39336Y39678D01*
X39416Y39712D01*
X39485Y39765D01*
X39538Y39834D01*
X39572Y39914D01*
X39583Y40000D01*
X39572Y40086D01*
X39538Y40166D01*
X39485Y40235D01*
X39416Y40288D01*
X39336Y40322D01*
X39250Y40333D01*
X38750D01*
X38664Y40322D01*
X38584Y40288D01*
X38515Y40235D01*
X38462Y40166D01*
X38443Y40122D01*
X36861D01*
X36527Y40457D01*
X36487Y40483D01*
X36440Y40492D01*
X34275D01*
X34253Y40537D01*
X34288Y40584D01*
X34322Y40664D01*
X34333Y40750D01*
Y41250D01*
X34322Y41336D01*
X34288Y41416D01*
X34235Y41485D01*
X34166Y41538D01*
X34086Y41572D01*
X34000Y41583D01*
X33914Y41572D01*
X33834Y41538D01*
X33765Y41485D01*
X33712Y41416D01*
X33678Y41336D01*
X33667Y41250D01*
Y40750D01*
X33678Y40664D01*
X33712Y40584D01*
X33747Y40537D01*
X33725Y40492D01*
X33275D01*
X33253Y40537D01*
X33288Y40584D01*
X33322Y40664D01*
X33333Y40750D01*
Y41250D01*
X33322Y41336D01*
X33288Y41416D01*
X33235Y41485D01*
X33166Y41538D01*
X33086Y41572D01*
X33000Y41583D01*
X32914Y41572D01*
X32834Y41538D01*
X32765Y41485D01*
X32712Y41416D01*
X32678Y41336D01*
X32672Y41285D01*
X32622Y41283D01*
X32613Y41327D01*
X32587Y41367D01*
Y41367D01*
D01*
D01*
D01*
X32587D01*
X32587D01*
Y41367D01*
D01*
D01*
D01*
D01*
X32587D01*
D01*
D01*
D01*
X32587D01*
X32247Y41707D01*
X32207Y41733D01*
X32160Y41742D01*
X23100D01*
X23053Y41733D01*
X23013Y41707D01*
X22913Y41607D01*
X22887Y41567D01*
X22886Y41560D01*
X22834Y41538D01*
X22797Y41510D01*
X22752Y41532D01*
Y41549D01*
X24081Y42878D01*
X24666D01*
X24689Y42821D01*
X24746Y42746D01*
X24821Y42689D01*
X24907Y42654D01*
X25000Y42641D01*
X25093Y42654D01*
X25179Y42689D01*
X25254Y42746D01*
X25311Y42821D01*
X25346Y42907D01*
X25359Y43000D01*
X25346Y43093D01*
X25311Y43179D01*
X25254Y43254D01*
X25179Y43311D01*
X25093Y43346D01*
X25000Y43359D01*
D02*
G37*
G36*
X29000D02*
X28907Y43346D01*
X28821Y43311D01*
X28746Y43254D01*
X28689Y43179D01*
X28654Y43093D01*
X28641Y43000D01*
X28654Y42907D01*
X28689Y42821D01*
X28746Y42746D01*
X28821Y42689D01*
X28907Y42654D01*
X29000Y42641D01*
X29093Y42654D01*
X29179Y42689D01*
X29254Y42746D01*
X29311Y42821D01*
X29346Y42907D01*
X29359Y43000D01*
X29346Y43093D01*
X29311Y43179D01*
X29254Y43254D01*
X29179Y43311D01*
X29093Y43346D01*
X29000Y43359D01*
D02*
G37*
G36*
X23402Y42950D02*
X23050D01*
Y42598D01*
X23106Y42605D01*
X23204Y42646D01*
X23289Y42711D01*
X23354Y42796D01*
X23395Y42894D01*
X23402Y42950D01*
D02*
G37*
G36*
X39450D02*
X39098D01*
X39105Y42894D01*
X39146Y42796D01*
X39211Y42711D01*
X39296Y42646D01*
X39394Y42605D01*
X39450Y42598D01*
Y42950D01*
D02*
G37*
G36*
X39902D02*
X39550D01*
Y42598D01*
X39606Y42605D01*
X39704Y42646D01*
X39789Y42711D01*
X39854Y42796D01*
X39895Y42894D01*
X39902Y42950D01*
D02*
G37*
G36*
X39450Y43402D02*
X39394Y43395D01*
X39296Y43354D01*
X39211Y43289D01*
X39146Y43204D01*
X39105Y43106D01*
X39098Y43050D01*
X39450D01*
Y43402D01*
D02*
G37*
G36*
X39550D02*
Y43050D01*
X39902D01*
X39895Y43106D01*
X39854Y43204D01*
X39789Y43289D01*
X39704Y43354D01*
X39606Y43395D01*
X39550Y43402D01*
D02*
G37*
G36*
X43950D02*
X43894Y43395D01*
X43796Y43354D01*
X43711Y43289D01*
X43646Y43204D01*
X43605Y43106D01*
X43598Y43050D01*
X43950D01*
Y43402D01*
D02*
G37*
G36*
X34000Y43359D02*
X33907Y43346D01*
X33821Y43311D01*
X33746Y43254D01*
X33689Y43179D01*
X33654Y43093D01*
X33641Y43000D01*
X33642Y42998D01*
X33597Y42976D01*
X33487Y43087D01*
X33447Y43113D01*
X33400Y43122D01*
X30334D01*
X30311Y43179D01*
X30254Y43254D01*
X30179Y43311D01*
X30093Y43346D01*
X30000Y43359D01*
X29907Y43346D01*
X29821Y43311D01*
X29746Y43254D01*
X29689Y43179D01*
X29654Y43093D01*
X29641Y43000D01*
X29654Y42907D01*
X29689Y42821D01*
X29746Y42746D01*
X29821Y42689D01*
X29907Y42654D01*
X30000Y42641D01*
X30093Y42654D01*
X30179Y42689D01*
X30254Y42746D01*
X30311Y42821D01*
X30334Y42878D01*
X33349D01*
X35313Y40913D01*
X35313Y40913D01*
X35313D01*
X35313Y40913D01*
D01*
X35313D01*
D01*
D01*
Y40913D01*
Y40913D01*
X35313Y40913D01*
D01*
D01*
X35313D01*
Y40913D01*
X35353Y40887D01*
X35400Y40878D01*
X35420D01*
Y40670D01*
X36580D01*
Y41330D01*
X35420D01*
Y41218D01*
X35374Y41199D01*
X33976Y42597D01*
X33998Y42642D01*
X34000Y42641D01*
X34093Y42654D01*
X34179Y42689D01*
X34254Y42746D01*
X34311Y42821D01*
X34346Y42907D01*
X34359Y43000D01*
X34346Y43093D01*
X34311Y43179D01*
X34254Y43254D01*
X34179Y43311D01*
X34093Y43346D01*
X34000Y43359D01*
D02*
G37*
G36*
X22950Y43402D02*
X22894Y43395D01*
X22796Y43354D01*
X22711Y43289D01*
X22646Y43204D01*
X22605Y43106D01*
X22598Y43050D01*
X22950D01*
Y43402D01*
D02*
G37*
G36*
X23050D02*
Y43050D01*
X23402D01*
X23395Y43106D01*
X23354Y43204D01*
X23289Y43289D01*
X23204Y43354D01*
X23106Y43395D01*
X23050Y43402D01*
D02*
G37*
G36*
X22950Y42950D02*
X22598D01*
X22605Y42894D01*
X22646Y42796D01*
X22711Y42711D01*
X22796Y42646D01*
X22894Y42605D01*
X22950Y42598D01*
Y42950D01*
D02*
G37*
G36*
X43750Y38333D02*
X43250D01*
X43164Y38322D01*
X43084Y38288D01*
X43015Y38235D01*
X42962Y38166D01*
X42928Y38086D01*
X42917Y38000D01*
X42928Y37914D01*
X42962Y37834D01*
X43015Y37765D01*
X43084Y37712D01*
X43164Y37678D01*
X43250Y37667D01*
X43750D01*
X43836Y37678D01*
X43916Y37712D01*
X43985Y37765D01*
X44038Y37834D01*
X44072Y37914D01*
X44083Y38000D01*
X44072Y38086D01*
X44038Y38166D01*
X43985Y38235D01*
X43916Y38288D01*
X43836Y38322D01*
X43750Y38333D01*
D02*
G37*
G36*
Y39333D02*
X43250D01*
X43164Y39322D01*
X43084Y39288D01*
X43015Y39235D01*
X42962Y39166D01*
X42928Y39086D01*
X42917Y39000D01*
X42928Y38914D01*
X42962Y38834D01*
X43015Y38765D01*
X43084Y38712D01*
X43164Y38678D01*
X43250Y38667D01*
X43750D01*
X43836Y38678D01*
X43916Y38712D01*
X43985Y38765D01*
X44038Y38834D01*
X44072Y38914D01*
X44083Y39000D01*
X44072Y39086D01*
X44038Y39166D01*
X43985Y39235D01*
X43916Y39288D01*
X43836Y39322D01*
X43750Y39333D01*
D02*
G37*
G36*
Y40333D02*
X43250D01*
X43164Y40322D01*
X43084Y40288D01*
X43015Y40235D01*
X42962Y40166D01*
X42928Y40086D01*
X42917Y40000D01*
X42928Y39914D01*
X42962Y39834D01*
X43015Y39765D01*
X43084Y39712D01*
X43164Y39678D01*
X43250Y39667D01*
X43750D01*
X43836Y39678D01*
X43916Y39712D01*
X43985Y39765D01*
X44038Y39834D01*
X44072Y39914D01*
X44083Y40000D01*
X44072Y40086D01*
X44038Y40166D01*
X43985Y40235D01*
X43916Y40288D01*
X43836Y40322D01*
X43750Y40333D01*
D02*
G37*
G36*
Y37333D02*
X43250D01*
X43164Y37322D01*
X43084Y37288D01*
X43015Y37235D01*
X42962Y37166D01*
X42928Y37086D01*
X42917Y37000D01*
X42928Y36914D01*
X42962Y36834D01*
X43015Y36765D01*
X43084Y36712D01*
X43164Y36678D01*
X43250Y36667D01*
X43750D01*
X43836Y36678D01*
X43916Y36712D01*
X43985Y36765D01*
X44038Y36834D01*
X44072Y36914D01*
X44083Y37000D01*
X44072Y37086D01*
X44038Y37166D01*
X43985Y37235D01*
X43916Y37288D01*
X43836Y37322D01*
X43750Y37333D01*
D02*
G37*
G36*
X38950D02*
X38750D01*
X38664Y37322D01*
X38584Y37288D01*
X38515Y37235D01*
X38462Y37166D01*
X38428Y37086D01*
X38424Y37050D01*
X38950D01*
Y37333D01*
D02*
G37*
G36*
X39250D02*
X39050D01*
Y37050D01*
X39576D01*
X39572Y37086D01*
X39538Y37166D01*
X39485Y37235D01*
X39416Y37288D01*
X39336Y37322D01*
X39250Y37333D01*
D02*
G37*
G36*
X21000Y43408D02*
X20894Y43395D01*
X20796Y43354D01*
X20711Y43289D01*
X20646Y43204D01*
X20605Y43106D01*
X20592Y43000D01*
X20605Y42894D01*
X20646Y42796D01*
X20711Y42711D01*
X20796Y42646D01*
X20894Y42605D01*
X21000Y42592D01*
X21106Y42605D01*
X21204Y42646D01*
X21289Y42711D01*
X21354Y42796D01*
X21395Y42894D01*
X21408Y43000D01*
X21395Y43106D01*
X21354Y43204D01*
X21289Y43289D01*
X21204Y43354D01*
X21106Y43395D01*
X21000Y43408D01*
D02*
G37*
G36*
X37500D02*
X37394Y43395D01*
X37296Y43354D01*
X37211Y43289D01*
X37146Y43204D01*
X37105Y43106D01*
X37092Y43000D01*
X37105Y42894D01*
X37146Y42796D01*
X37211Y42711D01*
X37296Y42646D01*
X37394Y42605D01*
X37500Y42592D01*
X37606Y42605D01*
X37704Y42646D01*
X37789Y42711D01*
X37854Y42796D01*
X37895Y42894D01*
X37908Y43000D01*
X37895Y43106D01*
X37854Y43204D01*
X37789Y43289D01*
X37704Y43354D01*
X37606Y43395D01*
X37500Y43408D01*
D02*
G37*
G36*
X42000D02*
X41894Y43395D01*
X41796Y43354D01*
X41711Y43289D01*
X41646Y43204D01*
X41605Y43106D01*
X41592Y43000D01*
X41605Y42894D01*
X41646Y42796D01*
X41711Y42711D01*
X41796Y42646D01*
X41894Y42605D01*
X42000Y42592D01*
X42106Y42605D01*
X42204Y42646D01*
X42289Y42711D01*
X42354Y42796D01*
X42395Y42894D01*
X42408Y43000D01*
X42395Y43106D01*
X42354Y43204D01*
X42289Y43289D01*
X42204Y43354D01*
X42106Y43395D01*
X42000Y43408D01*
D02*
G37*
G36*
X21000Y41583D02*
X20914Y41572D01*
X20834Y41538D01*
X20765Y41485D01*
X20712Y41416D01*
X20678Y41336D01*
X20667Y41250D01*
Y40750D01*
X20678Y40664D01*
X20712Y40584D01*
X20765Y40515D01*
X20834Y40462D01*
X20914Y40428D01*
X21000Y40417D01*
X21086Y40428D01*
X21166Y40462D01*
X21235Y40515D01*
X21288Y40584D01*
X21322Y40664D01*
X21333Y40750D01*
Y41250D01*
X21322Y41336D01*
X21288Y41416D01*
X21235Y41485D01*
X21166Y41538D01*
X21086Y41572D01*
X21000Y41583D01*
D02*
G37*
G36*
X39250Y41333D02*
X38750D01*
X38664Y41322D01*
X38584Y41288D01*
X38515Y41235D01*
X38462Y41166D01*
X38428Y41086D01*
X38417Y41000D01*
X38428Y40914D01*
X38462Y40834D01*
X38515Y40765D01*
X38584Y40712D01*
X38664Y40678D01*
X38750Y40667D01*
X39250D01*
X39336Y40678D01*
X39416Y40712D01*
X39485Y40765D01*
X39538Y40834D01*
X39572Y40914D01*
X39583Y41000D01*
X39572Y41086D01*
X39538Y41166D01*
X39485Y41235D01*
X39416Y41288D01*
X39336Y41322D01*
X39250Y41333D01*
D02*
G37*
G36*
X43750D02*
X43250D01*
X43164Y41322D01*
X43084Y41288D01*
X43015Y41235D01*
X42962Y41166D01*
X42928Y41086D01*
X42917Y41000D01*
X42928Y40914D01*
X42962Y40834D01*
X43015Y40765D01*
X43084Y40712D01*
X43164Y40678D01*
X43250Y40667D01*
X43750D01*
X43836Y40678D01*
X43916Y40712D01*
X43985Y40765D01*
X44038Y40834D01*
X44072Y40914D01*
X44083Y41000D01*
X44072Y41086D01*
X44038Y41166D01*
X43985Y41235D01*
X43916Y41288D01*
X43836Y41322D01*
X43750Y41333D01*
D02*
G37*
%LPD*%
D10*
X34000Y34240D02*
Y35000D01*
Y34240D02*
X34240Y34000D01*
X37500D02*
X38080Y33420D01*
X39360D01*
X39750Y33810D01*
Y34910D01*
X39840Y35000D01*
X41600D02*
X42000Y34600D01*
X39500Y43000D02*
X39980Y43480D01*
X42210D01*
X42690Y43000D01*
X44000D01*
X23000D02*
X23510Y43510D01*
X38990D01*
X39500Y43000D01*
X39750Y35200D02*
Y36800D01*
X39550Y37000D02*
X39750Y36800D01*
X39520Y37000D02*
X39620Y37100D01*
Y42500D01*
X39500Y42620D02*
X39620Y42500D01*
X39500Y42620D02*
Y43000D01*
X34240Y34000D02*
X36000D01*
X37500D01*
X39840Y35000D02*
X39950D01*
X40500D01*
X41600D01*
X42000Y31000D02*
Y32000D01*
Y34600D01*
X39750Y35200D02*
X39950Y35000D01*
X39520Y37000D02*
X39550D01*
X22000Y41000D02*
Y43000D01*
X22760Y43760D01*
X44260D01*
X44450Y43570D01*
Y42560D02*
Y43570D01*
X43990Y42100D02*
X44450Y42560D01*
X42500Y42100D02*
X43990D01*
X42000Y41600D02*
X42500Y42100D01*
X42000Y39360D02*
Y41600D01*
X41640Y39000D02*
X42000Y39360D01*
X40500Y39000D02*
X41640D01*
X38080D02*
X39000D01*
X36650Y37570D02*
X38080Y39000D01*
X27270Y37570D02*
X36650D01*
X26500Y36800D02*
X27270Y37570D01*
X26500Y34560D02*
Y36800D01*
X26320Y34380D02*
X26500Y34560D01*
X25810Y34380D02*
X26320D01*
X25630Y34560D02*
X25810Y34380D01*
X25630Y34560D02*
Y35350D01*
X25280Y35700D02*
X25630Y35350D01*
X21180Y35700D02*
X25280D01*
X21000Y35520D02*
X21180Y35700D01*
X23000Y33700D02*
Y35000D01*
Y33700D02*
X23115Y33585D01*
X29515D01*
X29950Y33150D01*
X34768D01*
X34928Y32990D01*
X36010D01*
X37000Y32000D01*
X40000Y31000D02*
X40450Y31450D01*
Y32640D01*
X40110Y32980D02*
X40450Y32640D01*
X38041Y32980D02*
X40110D01*
X37391Y33630D02*
X38041Y32980D01*
X35541Y33630D02*
X37391D01*
X35381Y33790D02*
X35541Y33630D01*
X33960Y33790D02*
X35381D01*
X33800Y33950D02*
X33960Y33790D01*
X30520Y33950D02*
X33800D01*
X30000Y34470D02*
X30520Y33950D01*
X30000Y34470D02*
Y35000D01*
X39880Y41000D02*
X40500D01*
X39880Y37760D02*
Y41000D01*
Y37760D02*
X40240Y37400D01*
X42240D01*
X42610Y37030D01*
Y30690D02*
Y37030D01*
X42400Y30480D02*
X42610Y30690D01*
X38790Y30480D02*
X42400D01*
X38550Y30720D02*
X38790Y30480D01*
X38550Y30720D02*
Y31200D01*
X38250Y31500D02*
X38550Y31200D01*
X34720Y31500D02*
X38250D01*
X34450Y31230D02*
X34720Y31500D01*
X34450Y30720D02*
Y31230D01*
X34280Y30550D02*
X34450Y30720D01*
X33720Y30550D02*
X34280D01*
X33550Y30720D02*
X33720Y30550D01*
X33550Y30720D02*
Y31160D01*
X33260Y31450D02*
X33550Y31160D01*
X32910Y31450D02*
X33260D01*
X32360Y32000D02*
X32910Y31450D01*
X32000Y32000D02*
X32360D01*
X29000Y38910D02*
X29440Y38470D01*
X33610D01*
X34140Y39000D01*
X36000D01*
X36810Y40000D02*
X39000D01*
X32500Y40640D02*
X32770Y40370D01*
X32500Y40640D02*
Y41280D01*
X32160Y41620D02*
X32500Y41280D01*
X23100Y41620D02*
X32160D01*
X23000Y41520D02*
X23100Y41620D01*
X23000Y41000D02*
Y41520D01*
X36440Y40370D02*
X36810Y40000D01*
X25000Y34240D02*
Y35000D01*
Y34240D02*
X25490Y33750D01*
X29810D01*
X30250Y33310D01*
X35088D01*
X35248Y33150D01*
X36318D01*
X36989Y32479D01*
X37395D01*
X37677Y32197D01*
X37803D01*
X38000Y32000D01*
X24030Y43000D02*
X25000D01*
X22630Y41600D02*
X24030Y43000D01*
X22630Y40460D02*
Y41600D01*
Y40460D02*
X22880Y40210D01*
X26730D01*
X27000Y40480D01*
Y41000D01*
Y40480D02*
X27100Y40380D01*
X28900D01*
X37730Y34000D02*
X39000D01*
X37200Y34530D02*
X37730Y34000D01*
X35540Y34530D02*
X37200D01*
X30000Y43000D02*
X33400D01*
X35400Y41000D01*
X36000D01*
X38060Y38000D02*
X39000D01*
X37500Y37440D02*
X38060Y38000D01*
X37500Y35750D02*
Y37440D01*
X37120Y35370D02*
X37500Y35750D01*
X35340Y35370D02*
X37120D01*
X34490Y34520D02*
X35340Y35370D01*
X32500Y31500D02*
X33000Y31000D01*
X31680Y31500D02*
X32500D01*
X31500Y31680D02*
X31680Y31500D01*
X31500Y31680D02*
Y32320D01*
X31330Y32490D02*
X31500Y32320D01*
X22890Y32490D02*
X31330D01*
X21000Y34380D02*
X22890Y32490D01*
X33500Y31500D02*
X34000Y31000D01*
X33500Y31500D02*
Y32320D01*
X32990Y32830D02*
X33500Y32320D01*
X23640Y32830D02*
X32990D01*
X22000Y34470D02*
X23640Y32830D01*
X22000Y34470D02*
Y35000D01*
X26370Y33160D02*
X26540Y32990D01*
X34010D01*
X35000Y32000D01*
X37380Y30380D02*
X38000Y31000D01*
X20930Y30380D02*
X37380D01*
X20590Y30720D02*
X20930Y30380D01*
X20590Y30720D02*
Y35520D01*
X21100Y36030D01*
X25810D01*
X26000Y35840D01*
Y35000D02*
Y35840D01*
X38201Y32799D02*
X39000Y32000D01*
X37630Y32799D02*
X38201D01*
X36959Y33470D02*
X37630Y32799D01*
X35474Y33470D02*
X36959D01*
X35314Y33630D02*
X35474Y33470D01*
X31560Y33630D02*
X35314D01*
X31400Y33790D02*
X31560Y33630D01*
X30390Y33790D02*
X31400D01*
X29370Y34810D02*
X30390Y33790D01*
X29370Y34810D02*
Y35530D01*
X29280Y35620D02*
X29370Y35530D01*
X28800Y35620D02*
X29280D01*
X28630Y35450D02*
X28800Y35620D01*
X28630Y34760D02*
Y35450D01*
X28160Y34290D02*
X28630Y34760D01*
X27200Y34290D02*
X28160D01*
X27000Y34490D02*
X27200Y34290D01*
X27000Y34490D02*
Y35000D01*
X28000D02*
Y35560D01*
X28220Y35780D01*
X35270D01*
X35450Y35600D01*
X36760D01*
X37100Y35940D01*
X39555Y31555D02*
X40000Y32000D01*
X38785Y31555D02*
X39555D01*
X38445Y31895D02*
X38785Y31555D01*
X38445Y31895D02*
Y32184D01*
X38184Y32445D02*
X38445Y32184D01*
X37665Y32445D02*
X38184D01*
X36800Y33310D02*
X37665Y32445D01*
X35314Y33310D02*
X36800D01*
X35154Y33470D02*
X35314Y33310D01*
X30410Y33470D02*
X35154D01*
X29800Y34080D02*
X30410Y33470D01*
X29160Y34080D02*
X29800D01*
X29000Y34240D02*
X29160Y34080D01*
X29000Y34240D02*
Y35000D01*
X28900Y40380D02*
X29000Y40480D01*
Y38910D02*
Y40480D01*
Y41000D01*
X21000Y34380D02*
Y35000D01*
Y35520D01*
X32770Y40370D02*
X34620D01*
X36440D01*
X33340Y39090D02*
X34620Y40370D01*
D11*
X43500Y35000D02*
D03*
Y36000D02*
D03*
Y37000D02*
D03*
Y38000D02*
D03*
Y39000D02*
D03*
Y40000D02*
D03*
Y41000D02*
D03*
X40500Y35000D02*
D03*
Y36000D02*
D03*
Y37000D02*
D03*
Y38000D02*
D03*
Y39000D02*
D03*
Y40000D02*
D03*
X36000D02*
D03*
Y39000D02*
D03*
Y38000D02*
D03*
Y37000D02*
D03*
Y34000D02*
D03*
X39000Y41000D02*
D03*
Y40000D02*
D03*
Y39000D02*
D03*
Y38000D02*
D03*
Y37000D02*
D03*
Y36000D02*
D03*
Y35000D02*
D03*
Y34000D02*
D03*
X36000Y36000D02*
D03*
Y35000D02*
D03*
D12*
X40500Y41000D02*
D03*
X36000D02*
D03*
D13*
X29000Y43000D02*
D03*
X25000D02*
D03*
X30000D02*
D03*
X34000D02*
D03*
D14*
X21000D02*
D03*
X23000D02*
D03*
X37500D02*
D03*
X39500D02*
D03*
X42000D02*
D03*
X44000D02*
D03*
X23000Y31000D02*
D03*
X24000D02*
D03*
X25000D02*
D03*
X26000D02*
D03*
X27000D02*
D03*
X28000D02*
D03*
X29000D02*
D03*
X30000D02*
D03*
X31000D02*
D03*
X32000D02*
D03*
X33000D02*
D03*
X34000D02*
D03*
X35000D02*
D03*
X36000D02*
D03*
X37000D02*
D03*
X38000D02*
D03*
X39000D02*
D03*
X40000D02*
D03*
X41000D02*
D03*
X23000Y32000D02*
D03*
X24000D02*
D03*
X25000D02*
D03*
X26000D02*
D03*
X27000D02*
D03*
X28000D02*
D03*
X29000D02*
D03*
X30000D02*
D03*
X31000D02*
D03*
X32000D02*
D03*
X33000D02*
D03*
X34000D02*
D03*
X35000D02*
D03*
X36000D02*
D03*
X37000D02*
D03*
X38000D02*
D03*
X39000D02*
D03*
X40000D02*
D03*
X41000D02*
D03*
X42000D02*
D03*
D15*
X21000Y35000D02*
D03*
D16*
X22000D02*
D03*
X23000D02*
D03*
X24000D02*
D03*
X25000D02*
D03*
X26000D02*
D03*
X27000D02*
D03*
X28000D02*
D03*
X29000D02*
D03*
X30000D02*
D03*
X31000D02*
D03*
X32000D02*
D03*
X33000D02*
D03*
X34000D02*
D03*
X21000Y41000D02*
D03*
X22000D02*
D03*
X23000D02*
D03*
X24000D02*
D03*
X25000D02*
D03*
X26000D02*
D03*
X27000D02*
D03*
X28000D02*
D03*
X29000D02*
D03*
X30000D02*
D03*
X31000D02*
D03*
X32000D02*
D03*
X33000D02*
D03*
X34000D02*
D03*
D17*
X42000Y31000D02*
D03*
D18*
X33340Y39090D02*
D03*
X35540Y34530D02*
D03*
X34490Y34520D02*
D03*
X26370Y33160D02*
D03*
X37100Y35940D02*
D03*
M02*
