M48
;Layer_Color=0
;FILE_FORMAT=2:4
INCH,LZ
;TYPE=PLATED
T1F00S00C0.0150
T2F00S00C0.0280
T3F00S00C0.0290
T4F00S00C0.0335
T5F00S00C0.0350
%
T01
X02637Y03316
X03449Y03452
X03554Y03453
X0371Y03594
X03334Y03909
T02
X021Y043
X023
X0375
X0395
X042
X044
T03
X021Y035
X022
X023
X024
X025
X026
X027
X028
X029
X03
X031
Y041
X03
X029
X028
X027
X026
X025
X024
X023
X022
X021
X032
X033
X034
X036
Y04
Y039
Y038
Y037
Y036
Y035
Y034
X039
Y035
Y036
Y037
Y038
Y039
Y04
Y041
X0405
Y04
Y039
Y038
Y037
Y036
Y035
X0435
Y036
Y037
Y038
Y039
Y04
Y041
X034Y035
X033
X032
T04
X025Y043
X029
X03
X034
T05
X032Y031
X033
X034
X035
X036
X037
X038
X039
X04
X041
X042
X031
X03
X029
X028
X027
X026
X025
X024
X023
Y032
X024
X025
X026
X027
X028
X029
X03
X031
X032
X033
X034
X035
X036
X037
X038
X039
X04
X041
X042
M30
