%FSLAX24Y24*%
%MOIN*%
G70*
G01*
G75*
G04 Layer_Color=16711935*
%ADD10C,0.0080*%
%ADD11O,0.1000X0.0500*%
%ADD12R,0.1000X0.0500*%
%ADD13C,0.0551*%
%ADD14C,0.0650*%
%ADD15R,0.0500X0.1000*%
%ADD16O,0.0500X0.1000*%
%ADD17R,0.0650X0.0650*%
%ADD18C,0.0320*%
%ADD19C,0.0100*%
%ADD20C,0.0079*%
%ADD21O,0.1080X0.0580*%
%ADD22R,0.1080X0.0580*%
%ADD23C,0.0631*%
%ADD24C,0.0730*%
%ADD25R,0.0580X0.1080*%
%ADD26O,0.0580X0.1080*%
%ADD27R,0.0730X0.0730*%
%ADD28C,0.0400*%
D21*
X43500Y35000D02*
D03*
Y36000D02*
D03*
Y37000D02*
D03*
Y38000D02*
D03*
Y39000D02*
D03*
Y40000D02*
D03*
Y41000D02*
D03*
X40500Y35000D02*
D03*
Y36000D02*
D03*
Y37000D02*
D03*
Y38000D02*
D03*
Y39000D02*
D03*
Y40000D02*
D03*
X36000D02*
D03*
Y39000D02*
D03*
Y38000D02*
D03*
Y37000D02*
D03*
Y34000D02*
D03*
X39000Y41000D02*
D03*
Y40000D02*
D03*
Y39000D02*
D03*
Y38000D02*
D03*
Y37000D02*
D03*
Y36000D02*
D03*
Y35000D02*
D03*
Y34000D02*
D03*
X36000Y36000D02*
D03*
Y35000D02*
D03*
D22*
X40500Y41000D02*
D03*
X36000D02*
D03*
D23*
X29000Y43000D02*
D03*
X25000D02*
D03*
X30000D02*
D03*
X34000D02*
D03*
D24*
X21000D02*
D03*
X23000D02*
D03*
X37500D02*
D03*
X39500D02*
D03*
X42000D02*
D03*
X44000D02*
D03*
X23000Y31000D02*
D03*
X24000D02*
D03*
X25000D02*
D03*
X26000D02*
D03*
X27000D02*
D03*
X28000D02*
D03*
X29000D02*
D03*
X30000D02*
D03*
X31000D02*
D03*
X32000D02*
D03*
X33000D02*
D03*
X34000D02*
D03*
X35000D02*
D03*
X36000D02*
D03*
X37000D02*
D03*
X38000D02*
D03*
X39000D02*
D03*
X40000D02*
D03*
X41000D02*
D03*
X23000Y32000D02*
D03*
X24000D02*
D03*
X25000D02*
D03*
X26000D02*
D03*
X27000D02*
D03*
X28000D02*
D03*
X29000D02*
D03*
X30000D02*
D03*
X31000D02*
D03*
X32000D02*
D03*
X33000D02*
D03*
X34000D02*
D03*
X35000D02*
D03*
X36000D02*
D03*
X37000D02*
D03*
X38000D02*
D03*
X39000D02*
D03*
X40000D02*
D03*
X41000D02*
D03*
X42000D02*
D03*
D25*
X21000Y35000D02*
D03*
D26*
X22000D02*
D03*
X23000D02*
D03*
X24000D02*
D03*
X25000D02*
D03*
X26000D02*
D03*
X27000D02*
D03*
X28000D02*
D03*
X29000D02*
D03*
X30000D02*
D03*
X31000D02*
D03*
X32000D02*
D03*
X33000D02*
D03*
X34000D02*
D03*
X21000Y41000D02*
D03*
X22000D02*
D03*
X23000D02*
D03*
X24000D02*
D03*
X25000D02*
D03*
X26000D02*
D03*
X27000D02*
D03*
X28000D02*
D03*
X29000D02*
D03*
X30000D02*
D03*
X31000D02*
D03*
X32000D02*
D03*
X33000D02*
D03*
X34000D02*
D03*
D27*
X42000Y31000D02*
D03*
D28*
X33340Y39090D02*
D03*
X35540Y34530D02*
D03*
X34490Y34520D02*
D03*
X26370Y33160D02*
D03*
X37100Y35940D02*
D03*
M02*
